<svg width="330" height="116" viewBox="0 0 330 116" fill="none" xmlns="http://www.w3.org/2000/svg">
<g filter="url(#filter0_b_25_936)">
<rect width="330" height="116" rx="58" fill="#0B2158" fill-opacity="0.1"/>
<g clip-path="url(#clip0_25_936)">
<mask id="mask0_25_936" style="mask-type:luminance" maskUnits="userSpaceOnUse" x="45" y="19" width="240" height="78">
<path d="M284.134 19.5H45V96.5H284.134V19.5Z" fill="white"/>
</mask>
<g mask="url(#mask0_25_936)">
<path d="M76.7569 45.1183C77.3038 45.3471 77.0367 45.9636 77.0303 46.3895C77.3038 47.3621 78.6901 47.5274 79.3303 46.8536C79.4155 46.7612 79.4807 46.6513 79.5216 46.5315C79.5626 46.4114 79.5783 46.2838 79.5678 46.1573C79.5572 46.0307 79.5207 45.9078 79.4605 45.7966C79.4002 45.6854 79.3176 45.5887 79.2183 45.5124C78.7522 45.099 77.9753 45.3406 77.5899 44.8322C77.4654 44.5333 77.5899 44.1964 77.5899 43.9041C77.0863 43.1031 75.5758 43.1666 75.2278 44.0819C75.2092 44.9274 76.1725 44.9274 76.7569 45.1183Z" fill="#0C71BC"/>
<path d="M81.3996 44.1018C81.1447 43.2881 80.0134 43.2246 79.3669 43.5615C79.2713 43.6138 79.1894 43.6891 79.1287 43.781C79.0683 43.873 79.0304 43.9788 79.0189 44.089C79.1866 45.2525 81.3436 45.3287 81.3996 44.1018Z" fill="#0C71BC"/>
<path d="M81.1335 46.4275C81.4379 47.5399 83.3961 47.6672 83.6198 46.4275C83.6572 45.4549 82.4325 44.9909 81.6742 45.3596C81.5692 45.3921 81.4718 45.4457 81.3876 45.5174C81.3031 45.5889 81.2339 45.6772 81.1834 45.7768C81.133 45.8762 81.1026 45.9852 81.0939 46.0969C81.0855 46.2087 81.0989 46.3211 81.1335 46.4275Z" fill="#0C71BC"/>
<path d="M87.212 47.1466C87.2723 46.9411 87.2805 46.7233 87.2363 46.5135C87.1918 46.3039 87.0965 46.109 86.9586 45.9473C86.821 45.7856 86.6454 45.6619 86.4485 45.5883C86.2516 45.5144 86.0396 45.493 85.832 45.5255C85.7381 45.5158 85.6433 45.5259 85.5532 45.5551C85.4633 45.5842 85.38 45.6316 85.3085 45.6946C85.237 45.7577 85.1786 45.8349 85.1372 45.9215C85.0958 46.0084 85.0723 46.103 85.0676 46.1992C84.9558 47.2736 86.5781 48.1064 87.212 47.1466Z" fill="#0C71BC"/>
<path d="M69.2421 49.7778C69.6772 49.2373 69.2421 48.4173 69.7332 47.9151C70.1807 47.5147 70.852 47.54 71.2871 47.1016C71.481 46.9384 71.6052 46.705 71.6344 46.4502C71.6633 46.1954 71.5946 45.9389 71.4424 45.7348C70.6779 44.9783 69.0929 45.8363 69.36 46.898C69.3631 47.2065 69.2562 47.5056 69.0595 47.7395C68.8628 47.9733 68.5897 48.1261 68.291 48.1695C68.0869 48.227 67.8994 48.334 67.7446 48.4818C67.5898 48.6295 67.4722 48.8134 67.402 49.0177C67.3317 49.2217 67.3109 49.4404 67.3412 49.6546C67.3715 49.869 67.4522 50.0726 67.5762 50.248C67.7142 50.3348 67.8684 50.3919 68.0289 50.415C68.1894 50.4383 68.3529 50.4277 68.5091 50.3834C68.6654 50.3394 68.8111 50.2629 68.9372 50.1585C69.0633 50.0543 69.1671 49.9248 69.2421 49.7778Z" fill="#0C71BC"/>
<path d="M71.1991 48.2648C71.096 48.3678 71.0139 48.491 70.9579 48.6269C70.9021 48.7629 70.8732 48.9087 70.8732 49.0562C70.8732 49.2037 70.9021 49.3498 70.9579 49.4857C71.0139 49.6214 71.096 49.7446 71.1991 49.8476C71.5287 50.1845 72.0944 49.9812 72.4424 50.337C72.5868 50.4819 72.6878 50.6662 72.7329 50.8679C72.7781 51.0695 72.7657 51.2803 72.6972 51.475C72.6619 51.6785 72.6758 51.8881 72.7377 52.0849C72.7993 52.2818 72.9073 52.4603 73.0518 52.6052C73.1962 52.7498 73.3732 52.8561 73.5671 52.9151C73.7609 52.974 73.9659 52.9839 74.1642 52.9435C75.0718 52.8162 75.6809 51.5512 75.0219 50.814C74.6304 50.2418 73.7788 50.5214 73.3934 49.9366C73.008 49.3519 73.3934 48.7735 73.2814 48.1885C73.2814 47.432 74.1207 47.2604 74.6988 47.1904C74.6988 47.1904 75.5504 46.701 75.5254 46.2243C75.6125 45.4868 74.7485 45.1309 74.1518 45.2517C73.9577 45.2736 73.7708 45.3395 73.6049 45.4449C73.4393 45.5503 73.2986 45.6925 73.1937 45.8609C73.0887 46.0291 73.0221 46.2195 72.9986 46.4177C72.9751 46.616 72.9953 46.8169 73.0577 47.0061C72.7657 47.8579 71.6654 47.6163 71.1991 48.2648Z" fill="#0C71BC"/>
<path d="M75.7436 47.6993C75.5659 47.7469 75.4029 47.8388 75.2687 47.9669C75.1346 48.0949 75.0337 48.2549 74.9753 48.4327C74.9167 48.6105 74.9022 48.8004 74.9332 48.9852C74.9643 49.1702 75.0398 49.3442 75.153 49.4919C75.8182 50.35 77.4466 49.8923 77.4902 48.7609C77.5337 47.8646 76.4706 47.4132 75.7436 47.6993Z" fill="#0C71BC"/>
<path d="M81.6725 49.0852C81.9212 48.0936 80.7588 47.3626 79.9073 47.6867C79.7435 47.7281 79.5918 47.8092 79.4652 47.923C79.3384 48.0371 79.2405 48.1805 79.1795 48.3415C79.1186 48.5024 79.0962 48.6759 79.1148 48.8475C79.1332 49.0188 79.1918 49.1834 79.2857 49.3268C79.8388 50.2039 81.4115 50.1341 81.6725 49.0852Z" fill="#0C71BC"/>
<path d="M83.4077 49.5364C83.2585 50.6171 81.86 50.1404 81.4748 51.0112C81.3901 51.1902 81.3449 51.3861 81.3421 51.5851C81.3393 51.7839 81.3788 51.9809 81.4581 52.1626C81.5374 52.3443 81.6545 52.506 81.8011 52.6364C81.948 52.7668 82.1207 52.8631 82.3077 52.9182C82.4665 52.9776 82.6355 53.0031 82.8044 52.9932C82.9734 52.9834 83.1385 52.9384 83.2898 52.8611C83.4411 52.7837 83.5753 52.6756 83.6844 52.5433C83.7934 52.4112 83.8748 52.2574 83.9237 52.0919C84.1103 51.6087 83.675 51.0812 83.9736 50.6171C84.0833 50.4443 84.2348 50.3031 84.4131 50.2073C84.5917 50.1115 84.7915 50.0644 84.9929 50.0704C85.2331 50.0242 85.4458 49.8824 85.5844 49.6765C85.723 49.4705 85.7762 49.2166 85.7327 48.9707C85.7004 48.7659 85.6247 48.5708 85.5108 48.3992C85.3967 48.2277 85.2473 48.0838 85.0731 47.9777C84.8988 47.8718 84.704 47.8061 84.5021 47.7854C84.3002 47.7647 84.0964 47.7895 83.9051 47.8583C83.1717 48.1062 83.3581 48.9452 83.4077 49.5364Z" fill="#0C71BC"/>
<path d="M88.9823 50.3185C89.983 49.4732 88.6779 47.6105 87.5652 48.2652C86.4774 49.0663 87.8882 51.005 88.9823 50.3185Z" fill="#0C71BC"/>
<path d="M77.9445 50.363C77.7419 50.4025 77.552 50.4927 77.392 50.626C77.2322 50.7591 77.107 50.9307 77.0282 51.1256C76.9492 51.3205 76.9188 51.5322 76.94 51.7421C76.9612 51.9519 77.0329 52.1531 77.1489 52.3275C77.528 53.0393 78.479 52.7787 78.9701 53.3381C79.1235 53.6762 79.1979 54.0463 79.1877 54.4188C79.0757 54.9782 79.4115 55.6202 79.0386 56.1162C78.6656 56.6118 77.7953 56.4783 77.3541 56.9425C77.1983 57.0832 77.0753 57.2582 76.9943 57.4538C76.9134 57.6497 76.8762 57.8614 76.8856 58.0739C76.895 58.2863 76.951 58.4938 77.0492 58.6812C77.1473 58.8687 77.2852 59.0313 77.4529 59.1569C77.6205 59.2828 77.8136 59.3687 78.0179 59.4081C78.2221 59.4476 78.4325 59.4399 78.6334 59.3853C78.8343 59.3309 79.0209 59.231 79.179 59.0932C79.3374 58.9553 79.4635 58.783 79.5482 58.5888C79.8776 57.9531 79.3741 57.2286 79.7534 56.6246C80.1325 56.0206 81.0525 56.2815 81.5249 55.7348C81.656 55.5935 81.7565 55.4258 81.8195 55.2422C81.8826 55.0586 81.907 54.8635 81.8913 54.6695C81.8755 54.4756 81.8197 54.2874 81.7275 54.117C81.6355 53.9467 81.5092 53.7982 81.3572 53.6815C80.9965 53.3889 80.4993 53.4017 80.1139 53.1983C79.9207 53.0588 79.7739 52.8622 79.6927 52.635C79.6117 52.4079 79.6002 52.161 79.6602 51.9269C79.7045 51.6942 79.6887 51.4538 79.6146 51.2291C79.5405 51.0046 79.4106 50.8034 79.2374 50.6458C79.0645 50.4879 78.8543 50.3789 78.6275 50.3294C78.4009 50.28 78.1654 50.2916 77.9445 50.363Z" fill="#0C71BC"/>
<path d="M86.9061 53.1905C87.0424 53.184 87.1758 53.1498 87.2991 53.0904C87.4221 53.0309 87.5327 52.947 87.624 52.8435C87.7153 52.74 87.7856 52.6192 87.8311 52.4878C87.8765 52.3565 87.8958 52.2171 87.8882 52.0781C87.8882 51.169 86.8814 50.2982 86.0235 50.7621C84.9358 51.4106 85.7313 53.2858 86.9061 53.1905Z" fill="#0C71BC"/>
<path d="M90.3751 53.5922H90.425C91.2019 54.1644 90.4932 55.2133 90.9657 55.9316C91.1212 56.3067 91.5873 56.6309 91.9727 56.3257C92.1713 56.1012 92.3021 55.8226 92.3497 55.5237C92.3972 55.2249 92.3591 54.9183 92.24 54.6411C92.0908 54.0054 91.1523 54.0054 91.0963 53.3061C91.1334 52.6707 91.1958 51.8696 90.6923 51.3612C90.6028 51.2469 90.4861 51.1581 90.3537 51.1027C90.2212 51.0476 90.077 51.0281 89.9351 51.0459C89.793 51.0638 89.6579 51.1184 89.5424 51.2048C89.4268 51.2911 89.3348 51.4062 89.2751 51.539C89.2087 51.7476 89.185 51.9678 89.205 52.1863C89.225 52.4045 89.2885 52.6163 89.3915 52.8085C89.4946 53.001 89.6351 53.1697 89.8043 53.3045C89.9734 53.4392 90.1675 53.5371 90.3751 53.5922Z" fill="#0C71BC"/>
<path d="M64.8225 56.4132C65.6244 56.496 65.9227 55.4534 65.8047 54.8051C65.6617 54.2964 65.9041 53.5337 66.4946 53.4829C67.1162 53.6037 67.1162 54.3347 67.0043 54.8176C66.8614 55.4916 67.2965 56.3562 68.0486 56.2862C68.8007 56.2162 69.2358 55.1673 69.0494 54.3792C68.8628 53.5909 69.6026 53.076 70.2925 53.0125H70.3424C70.5181 52.9208 70.673 52.7921 70.7965 52.6349C70.92 52.4776 71.0094 52.2952 71.0586 52.0998C71.108 51.9044 71.1163 51.7006 71.0828 51.5018C71.0492 51.3028 70.9748 51.1137 70.8645 50.9465C70.7393 50.8259 70.5901 50.735 70.4271 50.6791C70.264 50.6235 70.0911 50.6048 69.9203 50.624C69.7494 50.6433 69.5847 50.7003 69.4377 50.7913C69.2906 50.882 69.1645 51.0045 69.068 51.1498C68.6515 51.633 68.8007 52.3132 68.7572 52.9044C68.6988 53.0743 68.6075 53.2302 68.489 53.3635C68.3705 53.4969 68.2271 53.6044 68.0673 53.68C67.9239 53.6559 67.7875 53.5996 67.6682 53.5149C67.5488 53.4302 67.4494 53.3193 67.3773 53.1903C67.2903 52.5548 67.6943 51.9191 67.2903 51.3534C67.2048 51.2511 67.0977 51.1705 66.9772 51.1171C66.8566 51.0637 66.7257 51.0391 66.5944 51.0451C66.4632 51.0514 66.335 51.088 66.2197 51.1524C66.1044 51.2167 66.005 51.3072 65.929 51.4169C65.4317 51.9318 65.5995 52.6881 65.5684 53.3238C65.5371 53.4694 65.473 53.6056 65.3813 53.7214C65.2896 53.8373 65.1728 53.9297 65.0401 53.9913C64.1201 54.341 63.9771 55.9556 64.8225 56.4132Z" fill="#0C71BC"/>
<path d="M71.218 56.0512C72.1876 56.6041 73.3375 55.4154 72.9895 54.4111C72.9486 54.2414 72.8723 54.0829 72.7662 53.9462C72.6601 53.8093 72.5267 53.6974 72.3747 53.6177C72.2227 53.5383 72.0556 53.4931 71.885 53.4851C71.7144 53.4772 71.5441 53.5068 71.3857 53.572C71.1587 53.6769 70.9636 53.843 70.8215 54.0521C70.6792 54.2614 70.5952 54.5061 70.5777 54.7602C70.5606 55.0146 70.6112 55.2687 70.7239 55.4961C70.8363 55.7232 71.0072 55.915 71.218 56.0512Z" fill="#0C71BC"/>
<path d="M87.6842 57.1262C87.3423 56.5605 86.4906 56.7511 86.1922 56.1281C85.8007 55.5689 86.2482 54.8569 85.9063 54.2657C85.7833 53.9623 85.5501 53.7192 85.2557 53.5879C84.9614 53.4562 84.6289 53.4464 84.3275 53.5602C84.1374 53.6531 83.9715 53.7905 83.8428 53.9611C83.7143 54.1317 83.6268 54.3309 83.5875 54.5427C83.5482 54.7542 83.5581 54.9724 83.6164 55.1794C83.6748 55.3863 83.78 55.5764 83.9235 55.7342C84.2964 56.2872 85.1044 56.0964 85.4649 56.6686C85.9623 57.3043 85.3842 58.1496 85.8378 58.7919C85.9153 58.9377 86.0233 59.0645 86.1543 59.1624C86.2854 59.2604 86.4362 59.3272 86.5957 59.3583C86.755 59.3893 86.9193 59.3838 87.0764 59.3419C87.2336 59.2998 87.3795 59.2228 87.5037 59.116C87.7727 58.8679 87.9402 58.5257 87.9736 58.1571C88.007 57.7885 87.9037 57.4205 87.6842 57.1262Z" fill="#0C71BC"/>
<path d="M88.8097 56.2692C90.1648 55.9638 89.7172 53.4466 88.3187 53.7262C87.0132 54.0886 87.4483 56.4725 88.8097 56.2692Z" fill="#0C71BC"/>
<path d="M66.2071 56.7696C65.1193 57.1575 65.2747 59.3123 66.5242 59.2743C67.7798 58.9945 67.5622 56.5598 66.2071 56.7696Z" fill="#0C71BC"/>
<path d="M81.5234 58.5621C81.5888 58.7303 81.6864 58.883 81.8106 59.0118C81.9349 59.1405 82.0834 59.2423 82.2469 59.3111C82.4104 59.3799 82.5859 59.4143 82.7626 59.4124C82.9396 59.4103 83.1142 59.372 83.2763 59.2996C83.4514 59.2178 83.6076 59.0996 83.7351 58.9523C83.8629 58.8053 83.9591 58.6326 84.0175 58.4454C84.0761 58.2579 84.0956 58.0601 84.0751 57.8645C84.0544 57.6691 83.9942 57.48 83.8979 57.3098C83.8114 57.1479 83.693 57.0057 83.5504 56.8926C83.4081 56.7793 83.2443 56.697 83.0695 56.6513C82.8946 56.6053 82.7123 56.5966 82.5342 56.6257C82.3558 56.6549 82.1852 56.721 82.033 56.8204C81.7591 57.0009 81.5572 57.2757 81.4638 57.595C81.3702 57.9143 81.3914 58.2572 81.5234 58.5621Z" fill="#0C71BC"/>
<path d="M90.1584 59.2759C91.5508 59.2759 91.4017 56.5042 90.0031 56.784C88.9525 57.1589 89.0332 59.0788 90.1584 59.2759Z" fill="#0C71BC"/>
<path d="M72.6416 62.2302C72.8108 62.0553 72.9322 61.838 72.9936 61.6003C73.0551 61.3623 73.0541 61.1121 72.9913 60.8743C72.9282 60.6368 72.8054 60.4205 72.6351 60.2468C72.4645 60.073 72.2525 59.9482 72.02 59.8846C71.4729 59.8021 70.9012 59.465 70.8824 58.8357C71.0238 58.3121 70.9819 57.7546 70.7642 57.2592C70.6936 57.1271 70.5979 57.0106 70.4828 56.9165C70.3678 56.8224 70.2355 56.7527 70.0939 56.7113C69.9522 56.6699 69.8038 56.6576 69.6574 56.6754C69.5113 56.693 69.3696 56.7401 69.2414 56.8143C69.0692 56.9394 68.9254 57.1008 68.8202 57.2883C68.7151 57.4755 68.6506 57.6839 68.6318 57.899C68.6129 58.1141 68.6398 58.3307 68.7108 58.5342C68.7816 58.7376 68.8948 58.9228 69.0426 59.0773C69.428 59.4142 70.0558 59.3252 70.3666 59.7828C70.7955 60.355 70.3106 61.1051 70.6214 61.69C70.6864 61.8917 70.7995 62.0736 70.9508 62.2189C71.1024 62.3643 71.2868 62.4687 71.4878 62.5224C71.6885 62.5763 71.8993 62.5775 72.1009 62.5265C72.3026 62.4754 72.4885 62.3737 72.6416 62.2302Z" fill="#0C71BC"/>
<path d="M77.1537 62.1353C77.2927 61.9515 77.3847 61.7349 77.421 61.5054C77.4572 61.2758 77.4367 61.0407 77.3614 60.8213C77.2859 60.6021 77.1581 60.4055 76.9892 60.2496C76.8205 60.0939 76.6163 59.9837 76.3953 59.9295C75.8544 59.8468 75.1956 59.5989 75.152 58.9569C75.2273 58.4194 75.2273 57.8734 75.152 57.3358C75.1461 57.1818 75.1706 57.0281 75.2236 56.8839C75.2767 56.7396 75.3574 56.6077 75.4612 56.4956C75.5647 56.3837 75.6892 56.2942 75.8273 56.2321C75.9652 56.17 76.1139 56.1368 76.2647 56.1344C76.5833 56.0901 76.8767 55.933 77.0937 55.6902C77.3106 55.4474 77.4374 55.1344 77.452 54.8059C77.4579 54.6185 77.4266 54.432 77.36 54.2573C77.2932 54.0828 77.1927 53.9238 77.0643 53.7902C76.936 53.6564 76.7824 53.5508 76.6127 53.4796C76.4433 53.4084 76.2614 53.373 76.0781 53.3756C75.7226 53.3903 75.3864 53.5457 75.1407 53.809C74.8949 54.0722 74.7586 54.4228 74.7605 54.7869C74.7605 55.2508 74.9158 55.8038 74.5739 56.1917C74.232 56.5793 73.4551 56.5095 73.0261 56.9354C72.7553 57.1797 72.5864 57.5206 72.5539 57.8883C72.5217 58.2562 72.6283 58.6227 72.852 58.9124C73.2873 59.4526 74.0953 59.262 74.5179 59.8405C75.065 60.4762 74.4621 61.3215 74.9344 61.9573C75.0478 62.1469 75.2033 62.3064 75.3885 62.4226C75.5734 62.5389 75.7831 62.6084 75.9996 62.6257C76.2163 62.6433 76.4337 62.6077 76.6344 62.5225C76.8349 62.4373 77.013 62.3045 77.1537 62.1353Z" fill="#0C71BC"/>
<path d="M64.6788 59.6944C64.5317 59.8503 64.4193 60.0368 64.3493 60.2413C64.2794 60.4459 64.2536 60.6634 64.2736 60.879C64.2937 61.0946 64.3592 61.3032 64.4656 61.4904C64.5721 61.6779 64.7169 61.8393 64.8902 61.964C66.326 62.1736 66.009 59.1604 64.6788 59.6944Z" fill="#0C71BC"/>
<path d="M91.3332 59.7056C90.7115 60.1187 90.78 60.977 90.836 61.6128C90.836 62.1022 90.3136 62.795 89.8414 62.35C89.2198 61.6698 90.0652 60.4431 89.1452 59.8709C88.0699 59.2352 87.0689 60.869 87.6969 61.7781C87.8958 62.223 88.3929 62.2865 88.8033 62.3756C89.3689 62.5599 89.344 63.2654 89.2073 63.7358C89.1661 63.8667 89.1534 64.0053 89.1703 64.1417C89.1871 64.2784 89.2329 64.4093 89.3047 64.5258C89.3765 64.642 89.4722 64.7409 89.5854 64.8152C89.6986 64.8898 89.8261 64.938 89.9595 64.9565C90.1353 64.9271 90.3038 64.8624 90.4551 64.7664C90.6063 64.6702 90.7376 64.5441 90.8409 64.3958C90.9445 64.2474 91.0181 64.0797 91.0579 63.9021C91.0974 63.7243 91.1023 63.5404 91.072 63.3609C91.0073 63.0938 91.0336 62.812 91.1466 62.5625C91.2595 62.3127 91.4527 62.1099 91.6936 61.9877C92.3899 61.6891 92.4894 60.7164 92.2781 60.0807C92.1475 59.7183 91.6689 59.407 91.3332 59.7056Z" fill="#0C71BC"/>
<path d="M69.0111 64.7418C69.0996 64.9039 69.2228 65.0437 69.3716 65.1506C69.5203 65.2572 69.6906 65.3282 69.8699 65.3582C70.0492 65.3881 70.233 65.3763 70.4071 65.3236C70.5812 65.2706 70.7417 65.1782 70.876 65.0534C70.9981 64.8671 71.0753 64.6542 71.101 64.4316C71.1266 64.209 71.1 63.9833 71.0236 63.7735C70.9468 63.5634 70.8226 63.375 70.6607 63.2241C70.4988 63.073 70.3043 62.9635 70.0927 62.9046C69.9017 62.8762 69.7193 62.8042 69.5591 62.6943C69.3988 62.5843 69.2647 62.439 69.1666 62.2688C68.9179 61.7031 69.2908 61.0674 68.9925 60.5145C68.9461 60.3496 68.8614 60.1988 68.7457 60.0746C68.6299 59.9507 68.4865 59.8571 68.3276 59.8022C68.1688 59.7471 67.9992 59.7324 67.8336 59.7589C67.6679 59.7856 67.511 59.853 67.3764 59.955C67.2259 60.115 67.1131 60.3078 67.0467 60.519C66.9803 60.7303 66.962 60.9543 66.9932 61.1738C67.0244 61.3935 67.1043 61.6028 67.2267 61.7859C67.3491 61.9693 67.5108 62.1213 67.6996 62.2308C68.0725 62.3644 68.5139 62.5042 68.6756 62.9111C68.9179 63.4958 68.6196 64.2078 69.0111 64.7418Z" fill="#0C71BC"/>
<path d="M77.8014 65.5944C78.0205 65.6967 78.2626 65.7359 78.5019 65.7085C78.7412 65.6808 78.9687 65.5875 79.1603 65.438C79.3515 65.2886 79.4998 65.0886 79.589 64.8598C79.6779 64.6312 79.7047 64.3819 79.6661 64.1387C79.6165 63.9854 79.5998 63.823 79.6177 63.6625C79.6358 63.502 79.6875 63.3472 79.7697 63.2094C79.852 63.0715 79.9626 62.9533 80.0939 62.8636C80.2252 62.7738 80.3741 62.7144 80.5301 62.6894C80.9003 62.6747 81.2508 62.5159 81.5097 62.2449C81.7687 61.9742 81.9165 61.6123 81.9226 61.2336C81.9184 61.0031 81.8577 60.7774 81.7461 60.5769C81.6346 60.3767 81.4758 60.208 81.284 60.0868C81.0925 59.9653 80.8741 59.895 80.649 59.882C80.424 59.8692 80.1993 59.9142 79.9955 60.0131C79.6551 60.1748 79.388 60.4636 79.2497 60.8204C79.032 61.3926 79.4424 62.0474 79.0941 62.5876C78.6591 63.2233 77.6833 62.9565 77.2294 63.6047C77.1064 63.7642 77.0226 63.9515 76.985 64.1507C76.9473 64.3502 76.9567 64.5559 77.0127 64.7506C77.0687 64.9455 77.1697 65.1238 77.3068 65.2706C77.444 65.4173 77.6137 65.5285 77.8014 65.5944Z" fill="#0C71BC"/>
<path d="M85.688 62.1236C85.9146 61.871 86.0458 61.5444 86.0583 61.202C86.0708 60.8596 85.964 60.5237 85.7564 60.2547C85.604 60.067 85.3981 59.9327 85.1675 59.8699C84.9371 59.8074 84.6931 59.8196 84.4696 59.905C84.2985 59.9724 84.1421 60.074 84.0098 60.2039C83.8774 60.3336 83.7717 60.4893 83.699 60.6613C83.3882 61.2526 83.8294 61.9708 83.4564 62.5685C83.0835 63.166 82.2691 62.9689 81.8094 63.4266C81.6778 63.5356 81.5694 63.6708 81.4908 63.8241C81.4122 63.9776 81.3651 64.1456 81.3524 64.3183C81.3395 64.4909 81.3614 64.6644 81.4164 64.828C81.4715 64.9916 81.5586 65.142 81.6724 65.27C81.8273 65.4194 82.0136 65.5301 82.2171 65.5932C82.4207 65.6565 82.6357 65.6704 82.8456 65.6341C83.0553 65.5975 83.2538 65.5119 83.4256 65.3838C83.5974 65.2556 83.7378 65.0881 83.8357 64.8951C84.1713 64.3229 83.7237 63.6237 84.1155 63.058C84.507 62.4922 85.2715 62.6321 85.688 62.1236Z" fill="#0C71BC"/>
<path d="M66.0092 62.6242C65.0084 63.2599 65.7295 65.2622 66.9043 64.9318C68.0481 64.4104 67.2089 62.1793 66.0092 62.6242Z" fill="#0C71BC"/>
<path d="M86.0242 65.2696C87.0374 65.8036 88.2183 64.5069 87.7647 63.4897C87.7007 63.3468 87.6065 63.2202 87.4891 63.1189C87.372 63.0174 87.2341 62.9438 87.0856 62.9031C86.9371 62.8624 86.7818 62.8557 86.6305 62.8836C86.4793 62.9113 86.336 62.9729 86.2105 63.0638C85.471 63.477 85.1851 64.7865 86.0242 65.2696Z" fill="#0C71BC"/>
<path d="M73.188 65.3384C73.3523 65.478 73.5476 65.5735 73.7567 65.6171C73.9659 65.6604 74.1824 65.65 74.3866 65.5872C74.5911 65.5242 74.777 65.4106 74.9278 65.2561C75.0789 65.1019 75.1901 64.9118 75.2518 64.7029C75.293 64.4435 75.2633 64.1776 75.1661 63.9346C75.0687 63.6916 74.9078 63.4806 74.7005 63.3254C74.4934 63.1702 74.2483 63.0765 73.9923 63.0546C73.7363 63.033 73.4796 63.0842 73.2501 63.2026C73.0723 63.3124 72.924 63.4661 72.8191 63.6497C72.7144 63.8333 72.656 64.0407 72.6499 64.2532C72.6438 64.4657 72.6897 64.6765 72.7838 64.8661C72.8777 65.0554 73.0167 65.2181 73.188 65.3384Z" fill="#0C71BC"/>
<path d="M67.7622 65.6259C67.1406 65.9438 67.1717 66.8974 67.5881 67.3615C68.0046 67.8255 68.8687 68.1433 69.2913 67.5459C69.8631 66.6178 68.7692 65.232 67.7622 65.6259Z" fill="#0C71BC"/>
<path d="M88.1389 65.618C87.4055 65.8786 86.8584 66.8895 87.3619 67.6013C88.0521 68.326 89.2267 67.6013 89.3325 66.6859C89.3756 66.5228 89.373 66.3507 89.3252 66.1888C89.2772 66.0271 89.1859 65.8825 89.0615 65.7711C88.9372 65.6599 88.7848 65.5865 88.6217 65.5596C88.4587 65.5324 88.2914 65.5528 88.1389 65.618Z" fill="#0C71BC"/>
<path d="M75.3893 70.2915C75.7373 69.8593 75.2338 69.2998 75.5074 68.8357C75.905 68.2637 76.7505 68.5623 77.1919 68.0349C77.2978 67.9254 77.3794 67.7942 77.4316 67.6501C77.4841 67.5057 77.5055 67.3517 77.4949 67.1985C77.4843 67.0449 77.442 66.8955 77.3702 66.7603C77.2987 66.625 77.1996 66.5069 77.0799 66.4138C76.9279 66.2757 76.7479 66.1739 76.5526 66.1159C76.3573 66.0581 76.1519 66.0454 75.9512 66.0788C75.7505 66.1123 75.5596 66.1912 75.3926 66.3096C75.2255 66.428 75.0862 66.5829 74.985 66.7634C74.6745 67.2911 75.2959 68.0349 74.7676 68.4543C74.6286 68.5693 74.4596 68.64 74.2818 68.6578C74.1039 68.6757 73.9248 68.6398 73.7667 68.5546C73.6086 68.4692 73.4782 68.3385 73.3921 68.1783C73.306 68.018 73.2676 67.8356 73.282 67.6535C73.3272 67.4037 73.3074 67.1462 73.2241 66.9071C73.141 66.6679 72.9975 66.4552 72.8083 66.2908C72.6192 66.1265 72.3909 66.0158 72.1467 65.9706C71.9025 65.9251 71.6507 65.9465 71.4173 66.0324C70.7956 66.3247 70.8639 67.1068 71.0255 67.6725C71.1872 68.2382 70.5719 68.448 70.1615 68.448C69.9467 68.4408 69.7375 68.5188 69.5778 68.6658C69.4178 68.8126 69.3196 69.0171 69.3036 69.2363C69.2354 70.317 70.8081 71.0542 71.498 70.1834C71.8648 69.6747 71.1933 69.0327 71.6098 68.5623C72.1632 67.9711 73.17 68.6831 73.0519 69.4206C72.8281 70.6601 74.7241 71.2513 75.3893 70.2915Z" fill="#0C71BC"/>
<path d="M85.7881 68.2125C85.3467 67.7165 85.9683 67.0555 85.67 66.5088C85.5525 66.2622 85.3476 66.0712 85.0968 65.9742C84.846 65.8772 84.5685 65.882 84.321 65.9877C83.5876 66.2037 83.0156 67.1571 83.4881 67.8946C83.8238 68.4348 84.5137 68.1997 84.9798 68.5303C85.4834 69.0198 84.7128 69.7445 85.1789 70.2592C85.9808 71.1621 87.7523 70.0622 87.2363 68.9117C86.9629 68.2697 86.217 68.5684 85.7881 68.2125Z" fill="#0C71BC"/>
<path d="M81.7292 67.2584C81.8037 66.3238 80.66 65.8026 79.9202 66.1778C79.7597 66.2317 79.6134 66.3219 79.4915 66.4413C79.3696 66.5609 79.2753 66.7067 79.2157 66.8681C79.1562 67.0296 79.1327 67.2028 79.147 67.3749C79.1614 67.5469 79.2132 67.7134 79.2986 67.8624C79.9016 68.8285 81.6732 68.4471 81.7292 67.2584Z" fill="#0C71BC"/>
<path d="M79.6603 70.8051C79.2998 70.4744 79.6167 69.9975 79.5421 69.5971C79.4692 69.4224 79.3614 69.2648 79.2259 69.1346C79.0906 69.0045 78.9301 68.9041 78.7551 68.8403C78.58 68.7766 78.3939 68.7504 78.2085 68.7636C78.0231 68.7766 77.8421 68.829 77.6774 68.9169C77.549 68.9657 77.4332 69.0444 77.3393 69.1464C77.2452 69.2487 77.1758 69.3716 77.136 69.5057C77.0963 69.6399 77.0876 69.7817 77.1101 69.92C77.133 70.0582 77.1866 70.1893 77.2671 70.3029C77.6774 70.9003 78.5104 70.627 79.0076 71.0847C79.3494 71.4598 78.8026 72.0573 79.2873 72.3561C79.909 72.8456 81.3447 72.7183 81.4132 71.7204C81.2019 70.9256 80.2134 71.1737 79.6603 70.8051Z" fill="#0C71BC"/>
<path d="M81.8153 68.8792C81.6774 68.9239 81.5508 68.9995 81.4447 69.1001C81.3386 69.2007 81.2555 69.3241 81.2016 69.4613C81.1475 69.5987 81.1237 69.7464 81.1322 69.8941C81.1404 70.0419 81.1804 70.1858 81.2496 70.316C81.4143 70.487 81.6188 70.6124 81.8442 70.68C82.0694 70.7476 82.3077 70.7556 82.5369 70.7026C82.7659 70.65 82.9779 70.5383 83.1529 70.3783C83.328 70.2183 83.4602 70.0152 83.5372 69.7883C83.6675 68.8664 82.4866 68.4788 81.8153 68.8792Z" fill="#0C71BC"/>
<path d="M75.7187 71.1883C75.5878 71.2129 75.4681 71.2798 75.377 71.3791C75.2859 71.4785 75.2285 71.6053 75.2132 71.7406C75.1979 71.8758 75.2255 72.0125 75.2918 72.1306C75.3582 72.2485 75.4598 72.3416 75.5819 72.3963C76.2036 72.7712 77.3909 72.7839 77.5836 71.9321C77.4902 71.0865 76.3589 70.8705 75.7187 71.1883Z" fill="#0C71BC"/>
<path d="M55.2863 73.0499C54.9502 71.9495 54.2806 70.987 53.3744 70.3015C52.4683 69.6159 51.3724 69.2427 50.2452 69.2357C49.9024 69.2369 49.5607 69.2752 49.2258 69.3503C48.191 69.5628 47.2425 70.0885 46.5035 70.859C45.7645 71.6297 45.269 72.6095 45.0814 73.6719C44.8937 74.734 45.0226 75.8293 45.4513 76.8157C45.8799 77.802 46.5886 78.6338 47.4853 79.2032C48.3203 79.7487 49.2917 80.0355 50.2825 80.0297C50.8092 80.0273 51.3328 79.946 51.8365 79.7881C52.3353 79.6334 52.8072 79.3997 53.2351 79.0951C54.1643 78.4445 54.8649 77.506 55.2341 76.4179C55.6033 75.3298 55.6216 74.1493 55.2863 73.0499ZM110.142 70.9076C109.646 70.384 109.052 69.9677 108.395 69.6838C107.738 69.3999 107.033 69.254 106.32 69.2548C105.969 69.2545 105.619 69.2906 105.275 69.3628C103.952 69.6487 102.786 70.4427 102.018 71.5814C101.626 72.1692 101.351 72.8304 101.209 73.5273C101.068 74.2241 101.062 74.9426 101.193 75.6417C101.325 76.3407 101.59 77.0062 101.973 77.5999C102.357 78.1937 102.852 78.7041 103.429 79.1016C104.272 79.7039 105.279 80.0215 106.307 80.0104C107.201 80.015 108.082 79.7968 108.874 79.375C109.635 78.9666 110.278 78.3617 110.739 77.6203C111.394 76.5981 111.692 75.3794 111.585 74.1621C111.478 72.9447 110.972 71.8001 110.149 70.9139L110.142 70.9076ZM55.0439 39.1235C54.6176 38.1883 53.9388 37.3971 53.0876 36.843C52.2363 36.2889 51.248 35.995 50.239 35.996C49.7476 35.9957 49.259 36.0729 48.7906 36.2249C47.5871 36.596 46.5536 37.3962 45.8779 38.4803C45.2022 39.5643 44.929 40.8602 45.1081 42.1327C45.2871 43.4051 45.9065 44.5698 46.8536 45.4148C47.8008 46.2601 49.013 46.7298 50.27 46.739C50.8553 46.7395 51.4368 46.6427 51.9919 46.4529C52.526 46.2698 53.0247 45.9923 53.4651 45.6328C54.4123 44.8898 55.0845 43.8397 55.3713 42.6546C55.6582 41.4696 55.5428 40.22 55.0439 39.1108V39.1235ZM83.4572 90.0351C83.2048 88.8221 82.5539 87.7338 81.6132 86.9508C80.6725 86.168 79.4982 85.7378 78.2855 85.7316C77.8417 85.7316 77.4001 85.7958 76.9739 85.9224C76.3135 86.098 75.6937 86.4051 75.1497 86.8262C74.6057 87.2472 74.1483 87.774 73.8038 88.376C73.0949 89.5517 72.8713 90.9668 73.1822 92.311C73.4539 93.5011 74.1095 94.5632 75.0429 95.3265C75.9765 96.0897 77.1337 96.5099 78.329 96.5192C78.7488 96.5212 79.1669 96.4656 79.5721 96.3539C80.2382 96.1906 80.8662 95.8941 81.4198 95.4819C81.9735 95.0695 82.4419 94.5493 82.7982 93.9511C83.1561 93.3731 83.3984 92.7282 83.5113 92.054C83.6245 91.3797 83.6059 90.6894 83.4572 90.0226V90.0351ZM110.559 38.1446C110.063 37.4729 109.422 36.9284 108.685 36.5543C107.948 36.1803 107.136 35.9869 106.313 35.9896C105.645 35.9845 104.983 36.1186 104.368 36.3838C103.232 36.8613 102.295 37.7287 101.717 38.8368C101.14 39.9449 100.958 41.2242 101.204 42.4545C101.434 43.6106 102.032 44.6561 102.905 45.4278C103.777 46.1995 104.876 46.6538 106.027 46.72H106.394C107.366 46.713 108.318 46.43 109.142 45.9028C109.966 45.3756 110.631 44.6246 111.063 43.7336C111.495 42.8427 111.676 41.8467 111.587 40.8566C111.498 39.8664 111.142 38.921 110.559 38.1255V38.1446ZM83.1589 22.7929C82.745 21.8168 82.0619 20.9853 81.193 20.4005C80.3241 19.8156 79.3071 19.5027 78.2669 19.5001C77.6965 19.4966 77.1302 19.5978 76.5946 19.7989C75.9142 20.0337 75.2892 20.4111 74.7593 20.907C74.2297 21.4028 73.8066 22.0061 73.5177 22.6785C73.2191 23.3272 73.0553 24.0322 73.0372 24.749C73.0191 25.4658 73.1466 26.1786 73.4121 26.8422C73.8064 27.8591 74.4923 28.7302 75.3801 29.3406C76.2676 29.9511 77.3153 30.2724 78.385 30.2622C79.1349 30.2681 79.8758 30.0939 80.548 29.7536C81.7949 29.1576 82.7601 28.0812 83.2335 26.7596C83.7201 25.4789 83.6932 24.0535 83.1589 22.7929Z" fill="white"/>
<path d="M55.9146 38.6967C56.0377 38.9553 56.1416 39.2231 56.2254 39.4977C58.028 38.4297 60.3776 37.0185 61.9503 36.0841C65.4561 34.0117 70.0311 31.3419 73.7233 29.1742C73.1993 28.6055 72.7913 27.9356 72.5236 27.2036C72.4803 27.0956 72.4367 26.9811 72.3993 26.8667C67.4763 29.7527 61.6519 33.1727 56.9402 35.9697L54.9449 37.1711C55.3422 37.6262 55.6692 38.1406 55.9146 38.6967Z" fill="white"/>
<path d="M84.1155 27.1279C83.8369 27.8638 83.4303 28.5421 82.9159 29.1303C83.3136 29.3972 83.7425 29.6642 83.9227 29.766C86.1731 31.0754 88.4543 32.4295 90.6547 33.739C93.514 35.4362 97.3119 37.7183 100.389 39.5046C100.648 38.6561 101.071 37.8693 101.632 37.1907C95.8698 33.7962 89.0449 29.6833 84.2275 26.8291C84.1964 26.899 84.159 27.0071 84.1155 27.1279Z" fill="white"/>
<path d="M107.663 65.2698C107.663 63.3626 107.663 61.4557 107.663 59.5485V59.1798C107.663 54.8827 107.663 50.096 107.663 47.8012V47.5596C107.255 47.6532 106.838 47.702 106.42 47.7059H106.003C105.69 47.6922 105.378 47.6517 105.071 47.5851V47.8139C105.071 49.2504 105.071 51.5708 105.071 54.1707C105.071 56.3448 105.071 58.6967 105.071 60.8582C105.056 61.1376 105.056 61.4176 105.071 61.6973C105.071 61.9261 105.071 62.1422 105.071 62.333V62.371C105.071 62.5998 105.071 62.8352 105.071 63.083C105.071 63.3309 105.071 63.687 105.071 63.9921V64.3862V65.0217C105.071 65.3396 105.071 65.6575 105.071 65.9753V67.4946C105.071 67.6089 105.071 68.0286 105.071 68.4607H105.114C105.523 68.3727 105.94 68.3279 106.358 68.3274C106.807 68.3272 107.255 68.3763 107.694 68.4735C107.694 67.4946 107.694 66.2614 107.694 65.6702L107.663 65.2698Z" fill="white"/>
<path d="M100.414 76.5073L95.0062 79.6857C91.2768 81.8853 86.7639 84.5805 82.8975 86.8181C83.5074 87.4817 83.9641 88.2768 84.234 89.1447C87.454 87.2375 91.3328 84.9364 94.4284 83.112L101.682 78.8339C101.104 78.1587 100.672 77.3656 100.414 76.5073Z" fill="white"/>
<path d="M50.2451 68.2887C50.6929 68.2914 51.139 68.3445 51.5754 68.4475C51.5754 67.2461 51.5754 66.0892 51.5754 65.695C51.5754 64.4238 51.6064 63.1523 51.5194 61.8494C51.5878 60.0695 51.5816 58.264 51.5691 56.5159C51.5691 55.2955 51.5691 54.0305 51.5691 52.7908C51.5691 52.0598 51.5691 51.3225 51.5691 50.5915C51.5691 49.8602 51.5691 48.5445 51.5691 47.5781C51.1399 47.6705 50.7025 47.7174 50.2638 47.7182C49.823 47.7179 49.3835 47.6712 48.9522 47.5781C48.9522 49.0912 48.9522 51.278 48.9522 52.7908C48.9522 53.255 48.9522 53.7254 48.9522 54.1893C48.9522 55.2699 48.9522 56.3889 48.9522 57.4885C48.9522 58.3213 48.9522 59.1731 48.9522 60.0312V61.1564C48.9522 62.4278 48.9522 63.7626 48.9522 65.0658C48.9522 65.4982 48.9522 65.9366 48.9522 66.3372C48.9522 66.5788 48.9522 67.4559 48.9522 68.4223H49.0703C49.4564 68.3366 49.8501 68.2918 50.2451 68.2887Z" fill="white"/>
<path d="M72.9713 87.8556C73.1836 87.4954 73.4292 87.1571 73.7047 86.8448C68.5516 83.8317 62.6651 80.3291 57.6675 77.3478L56.1881 76.5215C55.9378 77.3851 55.5144 78.1861 54.9449 78.8734C57.4313 80.3419 60.7444 82.2616 62.7211 83.4313L72.4118 89.1524C72.5516 88.7005 72.7391 88.2657 72.9713 87.8556Z" fill="white"/>
<path d="M66.2013 49.3005C65.6972 50.0299 65.2582 50.8044 64.8897 51.6144L57.8222 47.4696C56.9146 46.9294 55.9574 46.3762 55.0561 45.8423L54.8323 45.7152C55.4235 45.0576 55.8725 44.2801 56.1501 43.4331L56.3365 43.5348C57.4243 44.1324 58.5059 44.8061 59.5502 45.4036L66.2013 49.3005Z" fill="white"/>
<path d="M66.3079 66.8524C62.9388 68.7596 57.8107 71.6327 56.3996 72.5038L56.1883 72.6436C55.9103 71.7703 55.4428 70.9729 54.8208 70.3107L55.0756 70.1644C56.6856 69.2426 58.3079 68.2575 59.8806 67.3419L64.9715 64.5068C65.3461 65.3288 65.7934 66.114 66.3079 66.8524Z" fill="white"/>
<path d="M79.616 34.8843V42.9257C79.2017 42.8833 78.7645 42.8621 78.3045 42.8621C77.8445 42.8621 77.4095 42.8833 76.9991 42.9257C76.9991 39.5566 76.9991 35.2085 76.9991 34.5538C76.9991 33.4858 76.9991 32.4243 76.9991 31.3754V31.1084C77.4499 31.2134 77.9106 31.2668 78.3727 31.2673C78.7906 31.2676 79.2073 31.2228 79.616 31.1338V31.3754C79.616 32.5387 79.616 33.7083 79.616 34.8843Z" fill="white"/>
<path d="M79.6168 84.6632V84.892C79.1803 84.7902 78.7342 84.739 78.2865 84.7395C77.8559 84.7395 77.4262 84.7885 77.006 84.8858V84.6379C77.006 83.7416 77.006 82.8325 77.006 81.9552C77.006 81.1734 77.006 76.6282 77.006 73.0557C77.4206 73.098 77.8556 73.1194 78.3114 73.1194C78.7672 73.1194 79.2046 73.098 79.6229 73.0557C79.6229 76.6092 79.6229 81.1544 79.6229 81.9552C79.6229 82.839 79.6229 83.7606 79.6168 84.6632Z" fill="white"/>
<path d="M101.794 45.6829L101.57 45.8102C100.632 46.3504 99.7055 46.9099 98.773 47.4503C98.3069 47.7237 94.8634 49.8339 91.7676 51.7156C91.4083 50.9093 90.9796 50.1371 90.4872 49.408C94.3599 47.0624 99.1337 44.1511 100.24 43.4836L100.445 43.3628C100.726 44.2269 101.186 45.0183 101.794 45.6829Z" fill="white"/>
<path d="M101.794 70.3025C101.588 70.5272 101.399 70.7673 101.228 71.0207C100.884 71.5118 100.615 72.0544 100.433 72.6291L100.227 72.502C99.1085 71.8218 94.1544 68.9039 90.3998 66.7046C90.906 65.9729 91.3469 65.1964 91.7177 64.3843L96.5476 67.2196L97.7907 67.9506C99.034 68.6879 100.308 69.4506 101.576 70.1754L101.794 70.3025Z" fill="white"/>
<path d="M123.457 47.3364H119.056V68.657H123.457V47.3364Z" fill="white"/>
<path d="M136.051 47.3364H127.417V68.6635H136.051C142.267 68.6635 146.531 64.4615 146.531 58.0031C146.531 51.5445 142.267 47.3364 136.051 47.3364ZM135.834 64.6333H131.818V51.3919H135.834C139.607 51.3919 142.05 53.9346 142.05 58.0031C142.05 62.0713 139.607 64.6333 135.834 64.6333Z" fill="white"/>
<path d="M162.5 55.9253H149.304V59.7647H162.5V55.9253Z" fill="#0C71BC"/>
<path d="M163.663 47.3364H149.304V51.2966H163.663V47.3364Z" fill="white"/>
<path d="M164.017 64.7041H149.304V68.6645H164.017V64.7041Z" fill="white"/>
<path d="M172.949 47.3364L164.483 68.6635H168.99L170.674 64.0928H179.501L181.185 68.6635H185.798L177.294 47.3364H172.949ZM172.079 60.3424L175.094 52.1802L178.108 60.3424H172.079Z" fill="white"/>
<path d="M196.165 46.9746C190.166 46.9746 185.765 51.6658 185.765 58.0037C185.765 64.3412 190.166 69.0327 196.165 69.0327C202.163 69.0327 206.564 64.373 206.564 58.0037C206.564 51.6341 202.138 46.9746 196.165 46.9746ZM196.165 64.8244C192.771 64.8244 190.216 62.0529 190.216 58.0037C190.216 53.9544 192.771 51.1827 196.165 51.1827C199.558 51.1827 202.113 53.9544 202.113 58.0037C202.113 62.0529 199.558 64.8244 196.165 64.8244Z" fill="white"/>
<path d="M213.733 47.3364H209.338V68.6635H223.262V64.6395H213.733V47.3364Z" fill="white"/>
<path d="M234.071 46.9746C228.073 46.9746 223.672 51.6658 223.672 58.0037C223.672 64.3412 228.073 69.0327 234.071 69.0327C240.07 69.0327 244.471 64.373 244.471 58.0037C244.471 51.6341 240.045 46.9746 234.071 46.9746ZM234.071 64.8244C230.677 64.8244 228.123 62.0529 228.123 58.0037C228.123 53.9544 230.677 51.1827 234.071 51.1827C237.465 51.1827 240.02 53.9544 240.02 58.0037C240.02 62.0529 237.465 64.8244 234.071 64.8244Z" fill="white"/>
<path d="M256.715 51.175C257.66 51.168 258.593 51.3815 259.445 51.7989C260.297 52.2164 261.045 52.8269 261.632 53.5844L264.423 50.6473C262.558 48.2382 259.804 46.9604 256.466 46.9604C250.412 46.9604 246.011 51.5629 246.011 57.9895C246.011 64.4163 250.412 69.0185 256.379 69.0185C259.166 69.0296 261.874 68.075 264.062 66.3105V57.3603H255.142V61.454H260.072V63.8949C259.037 64.5179 257.853 64.8348 256.653 64.8105C253.016 64.8105 250.487 61.9752 250.487 57.9895C250.487 54.0038 253.023 51.175 256.715 51.175Z" fill="white"/>
<path d="M279.821 47.3364L274.742 56.8144L269.664 47.3364H264.995L272.355 61.048V68.6635H276.75V61.1052L284.134 47.3364H279.821Z" fill="white"/>
</g>
</g>
</g>
<defs>
<filter id="filter0_b_25_936" x="-40" y="-40" width="410" height="196" filterUnits="userSpaceOnUse" color-interpolation-filters="sRGB">
<feFlood flood-opacity="0" result="BackgroundImageFix"/>
<feGaussianBlur in="BackgroundImageFix" stdDeviation="20"/>
<feComposite in2="SourceAlpha" operator="in" result="effect1_backgroundBlur_25_936"/>
<feBlend mode="normal" in="SourceGraphic" in2="effect1_backgroundBlur_25_936" result="shape"/>
</filter>
<clipPath id="clip0_25_936">
<rect width="240" height="77" fill="white" transform="translate(45 19.5)"/>
</clipPath>
</defs>
</svg>
