<svg width="346" height="346" viewBox="0 0 346 346" fill="none" xmlns="http://www.w3.org/2000/svg">
<g filter="url(#filter0_d_25_826)">
<circle cx="170" cy="169" r="133" fill="#00D2E7" fill-opacity="0.1"/>
<circle cx="170" cy="169" r="153" fill="#00D2E7" fill-opacity="0.1"/>
<circle cx="170" cy="169" r="107" fill="#00D2E7" fill-opacity="0.1"/>
<circle cx="170.5" cy="169.5" r="83.5" stroke="#0C71BC" stroke-width="4"/>
<path d="M164.331 118.836C166.49 119.718 165.435 122.097 165.41 123.739C166.49 127.491 171.963 128.129 174.491 125.53C174.827 125.174 175.085 124.749 175.246 124.287C175.408 123.824 175.47 123.332 175.428 122.844C175.386 122.355 175.243 121.881 175.005 121.452C174.767 121.023 174.441 120.65 174.049 120.356C172.208 118.761 169.141 119.693 167.619 117.732C167.128 116.579 167.619 115.28 167.619 114.152C165.631 111.062 159.667 111.307 158.293 114.838C158.22 118.1 162.023 118.1 164.331 118.836Z" fill="white"/>
<path d="M182.661 114.915C181.654 111.776 177.188 111.531 174.635 112.831C174.258 113.033 173.935 113.323 173.695 113.678C173.456 114.032 173.307 114.441 173.261 114.866C173.923 119.354 182.439 119.648 182.661 114.915Z" fill="white"/>
<path d="M181.61 123.885C182.812 128.176 190.543 128.667 191.427 123.885C191.574 120.133 186.739 118.343 183.745 119.765C183.33 119.891 182.946 120.098 182.613 120.374C182.28 120.65 182.007 120.991 181.807 121.375C181.608 121.758 181.488 122.179 181.454 122.609C181.42 123.041 181.473 123.475 181.61 123.885Z" fill="white"/>
<path d="M205.609 126.658C205.847 125.866 205.88 125.026 205.705 124.216C205.529 123.408 205.153 122.656 204.609 122.032C204.065 121.408 203.372 120.931 202.595 120.647C201.817 120.362 200.98 120.28 200.161 120.405C199.79 120.368 199.416 120.407 199.06 120.519C198.705 120.632 198.376 120.814 198.094 121.058C197.811 121.301 197.581 121.599 197.417 121.933C197.254 122.268 197.161 122.633 197.142 123.004C196.701 127.148 203.107 130.361 205.609 126.658Z" fill="white"/>
<path d="M134.661 136.809C136.378 134.724 134.661 131.561 136.6 129.624C138.366 128.079 141.017 128.177 142.735 126.485C143.5 125.856 143.991 124.956 144.106 123.973C144.22 122.99 143.949 122 143.348 121.213C140.329 118.295 134.072 121.605 135.126 125.7C135.138 126.89 134.717 128.044 133.94 128.946C133.163 129.848 132.085 130.438 130.905 130.605C130.1 130.827 129.359 131.24 128.748 131.81C128.137 132.379 127.673 133.089 127.395 133.877C127.118 134.664 127.036 135.507 127.156 136.334C127.275 137.161 127.594 137.946 128.083 138.623C128.628 138.958 129.237 139.178 129.871 139.267C130.504 139.357 131.15 139.316 131.767 139.145C132.384 138.975 132.959 138.68 133.457 138.277C133.955 137.875 134.364 137.376 134.661 136.809Z" fill="white"/>
<path d="M142.387 130.973C141.98 131.37 141.656 131.845 141.435 132.37C141.215 132.894 141.1 133.457 141.1 134.026C141.1 134.595 141.215 135.158 141.435 135.683C141.656 136.206 141.98 136.681 142.387 137.079C143.689 138.378 145.922 137.594 147.296 138.967C147.866 139.525 148.265 140.236 148.443 141.014C148.622 141.792 148.572 142.605 148.302 143.356C148.163 144.141 148.217 144.95 148.462 145.709C148.705 146.468 149.132 147.157 149.702 147.716C150.272 148.274 150.971 148.684 151.736 148.911C152.502 149.139 153.311 149.177 154.094 149.021C157.677 148.53 160.082 143.65 157.48 140.806C155.934 138.599 152.572 139.678 151.051 137.422C149.529 135.167 151.051 132.935 150.609 130.679C150.609 127.76 153.922 127.099 156.205 126.829C156.205 126.829 159.567 124.941 159.468 123.102C159.812 120.257 156.401 118.884 154.045 119.35C153.279 119.434 152.541 119.689 151.886 120.095C151.232 120.502 150.676 121.05 150.262 121.7C149.848 122.349 149.585 123.083 149.492 123.848C149.399 124.613 149.479 125.388 149.725 126.118C148.572 129.403 144.228 128.471 142.387 130.973Z" fill="white"/>
<path d="M160.33 128.791C159.628 128.975 158.984 129.329 158.455 129.823C157.925 130.317 157.527 130.934 157.296 131.62C157.065 132.306 157.008 133.038 157.13 133.751C157.253 134.465 157.551 135.136 157.998 135.706C160.624 139.016 167.054 137.251 167.225 132.886C167.397 129.429 163.2 127.687 160.33 128.791Z" fill="white"/>
<path d="M183.738 134.138C184.72 130.313 180.131 127.493 176.769 128.744C176.122 128.903 175.523 129.216 175.023 129.655C174.523 130.095 174.136 130.648 173.895 131.269C173.655 131.89 173.567 132.56 173.64 133.221C173.712 133.882 173.944 134.517 174.314 135.07C176.498 138.454 182.708 138.184 183.738 134.138Z" fill="white"/>
<path d="M190.589 135.878C190 140.046 184.478 138.208 182.957 141.567C182.623 142.257 182.445 143.013 182.434 143.78C182.422 144.547 182.578 145.307 182.892 146.008C183.205 146.709 183.667 147.333 184.246 147.836C184.826 148.339 185.508 148.71 186.246 148.923C186.873 149.152 187.54 149.25 188.207 149.212C188.874 149.174 189.526 149.001 190.124 148.703C190.721 148.404 191.251 147.987 191.682 147.477C192.112 146.967 192.433 146.374 192.626 145.735C193.363 143.871 191.644 141.837 192.823 140.046C193.256 139.38 193.854 138.835 194.559 138.466C195.264 138.096 196.052 137.914 196.848 137.937C197.796 137.759 198.636 137.212 199.183 136.418C199.73 135.623 199.94 134.644 199.768 133.696C199.641 132.906 199.342 132.153 198.892 131.491C198.442 130.829 197.852 130.274 197.164 129.865C196.476 129.456 195.707 129.203 194.91 129.123C194.113 129.043 193.308 129.139 192.553 129.404C189.657 130.36 190.393 133.597 190.589 135.878Z" fill="white"/>
<path d="M212.599 138.894C216.55 135.634 211.397 128.448 207.003 130.974C202.709 134.064 208.279 141.543 212.599 138.894Z" fill="white"/>
<path d="M169.019 139.067C168.219 139.22 167.47 139.568 166.838 140.082C166.207 140.595 165.713 141.257 165.402 142.009C165.09 142.761 164.97 143.577 165.053 144.387C165.137 145.196 165.42 145.972 165.878 146.645C167.375 149.391 171.13 148.386 173.069 150.544C173.674 151.848 173.968 153.275 173.928 154.712C173.486 156.87 174.811 159.347 173.339 161.26C171.867 163.172 168.43 162.657 166.688 164.447C166.073 164.99 165.588 165.665 165.268 166.42C164.948 167.175 164.802 167.992 164.839 168.812C164.876 169.631 165.097 170.431 165.484 171.154C165.872 171.878 166.416 172.505 167.079 172.99C167.74 173.475 168.503 173.806 169.309 173.959C170.115 174.111 170.946 174.081 171.739 173.87C172.533 173.661 173.269 173.275 173.894 172.744C174.519 172.212 175.017 171.547 175.351 170.798C176.652 168.346 174.664 165.551 176.161 163.221C177.658 160.891 181.29 161.897 183.156 159.789C183.673 159.244 184.07 158.597 184.319 157.889C184.568 157.18 184.664 156.428 184.602 155.679C184.54 154.931 184.32 154.205 183.955 153.548C183.592 152.891 183.093 152.318 182.493 151.868C181.069 150.74 179.106 150.789 177.584 150.004C176.822 149.466 176.242 148.708 175.922 147.831C175.602 146.955 175.556 146.003 175.793 145.1C175.968 144.202 175.906 143.275 175.613 142.408C175.32 141.542 174.808 140.766 174.124 140.158C173.441 139.549 172.612 139.129 171.716 138.937C170.821 138.747 169.891 138.792 169.019 139.067Z" fill="white"/>
<path d="M204.401 149.973C204.939 149.948 205.466 149.816 205.953 149.587C206.439 149.358 206.875 149.034 207.236 148.635C207.596 148.236 207.874 147.77 208.053 147.263C208.233 146.756 208.309 146.219 208.279 145.682C208.279 142.175 204.304 138.816 200.917 140.606C196.622 143.107 199.763 150.341 204.401 149.973Z" fill="white"/>
<path d="M218.098 151.524H218.294C221.362 153.731 218.564 157.777 220.429 160.548C221.043 161.995 222.884 163.246 224.405 162.069C225.189 161.203 225.706 160.128 225.894 158.975C226.081 157.822 225.931 156.639 225.461 155.57C224.872 153.118 221.166 153.118 220.945 150.421C221.092 147.969 221.338 144.879 219.35 142.918C218.997 142.477 218.536 142.134 218.013 141.921C217.49 141.708 216.921 141.633 216.36 141.702C215.799 141.771 215.266 141.981 214.81 142.314C214.354 142.648 213.99 143.091 213.755 143.604C213.493 144.409 213.399 145.258 213.478 146.101C213.557 146.943 213.807 147.759 214.214 148.501C214.621 149.244 215.176 149.894 215.844 150.414C216.512 150.934 217.278 151.312 218.098 151.524Z" fill="white"/>
<path d="M117.211 162.406C120.377 162.725 121.555 158.703 121.089 156.203C120.525 154.241 121.482 151.298 123.813 151.102C126.267 151.568 126.267 154.388 125.826 156.251C125.261 158.851 126.979 162.186 129.949 161.916C132.918 161.646 134.636 157.6 133.9 154.56C133.163 151.519 136.084 149.533 138.808 149.288H139.005C139.699 148.934 140.31 148.437 140.798 147.831C141.285 147.224 141.638 146.521 141.833 145.767C142.028 145.013 142.06 144.227 141.928 143.46C141.795 142.693 141.502 141.963 141.066 141.318C140.572 140.853 139.983 140.502 139.339 140.287C138.695 140.072 138.013 140 137.338 140.074C136.664 140.149 136.013 140.369 135.433 140.719C134.852 141.069 134.354 141.542 133.973 142.102C132.329 143.966 132.918 146.59 132.746 148.871C132.516 149.526 132.155 150.128 131.687 150.642C131.219 151.156 130.653 151.571 130.022 151.863C129.456 151.77 128.918 151.552 128.446 151.226C127.975 150.899 127.583 150.471 127.298 149.974C126.954 147.522 128.55 145.07 126.954 142.888C126.617 142.493 126.194 142.182 125.718 141.976C125.242 141.77 124.725 141.675 124.207 141.699C123.689 141.723 123.183 141.864 122.728 142.113C122.272 142.36 121.88 142.709 121.58 143.133C119.616 145.119 120.279 148.036 120.156 150.489C120.033 151.05 119.78 151.576 119.418 152.022C119.056 152.47 118.594 152.826 118.07 153.064C114.438 154.412 113.874 160.641 117.211 162.406Z" fill="white"/>
<path d="M142.462 161.008C146.29 163.141 150.83 158.555 149.456 154.681C149.294 154.027 148.993 153.415 148.575 152.888C148.156 152.36 147.629 151.928 147.029 151.621C146.429 151.315 145.769 151.14 145.095 151.109C144.422 151.079 143.749 151.193 143.124 151.444C142.228 151.849 141.458 152.49 140.896 153.296C140.334 154.104 140.003 155.048 139.934 156.028C139.866 157.009 140.066 157.989 140.511 158.866C140.955 159.743 141.629 160.482 142.462 161.008Z" fill="white"/>
<path d="M207.473 165.155C206.124 162.972 202.761 163.708 201.583 161.304C200.037 159.147 201.804 156.401 200.454 154.12C199.968 152.95 199.048 152.012 197.885 151.505C196.723 150.998 195.411 150.96 194.221 151.399C193.47 151.757 192.815 152.287 192.307 152.945C191.8 153.603 191.454 154.372 191.299 155.188C191.144 156.004 191.183 156.846 191.413 157.645C191.644 158.443 192.059 159.176 192.625 159.785C194.098 161.918 197.288 161.182 198.711 163.389C200.675 165.841 198.393 169.102 200.184 171.58C200.489 172.142 200.916 172.631 201.433 173.009C201.951 173.387 202.546 173.645 203.176 173.765C203.805 173.884 204.453 173.863 205.074 173.702C205.694 173.539 206.27 173.242 206.761 172.83C207.823 171.873 208.484 170.553 208.616 169.131C208.748 167.709 208.34 166.29 207.473 165.155Z" fill="white"/>
<path d="M211.917 161.849C217.267 160.671 215.5 150.961 209.978 152.039C204.824 153.437 206.542 162.633 211.917 161.849Z" fill="white"/>
<path d="M122.678 163.781C118.383 165.277 118.997 173.589 123.93 173.442C128.887 172.363 128.028 162.971 122.678 163.781Z" fill="white"/>
<path d="M183.149 170.695C183.408 171.344 183.793 171.933 184.284 172.43C184.774 172.926 185.36 173.319 186.006 173.584C186.652 173.85 187.345 173.983 188.042 173.975C188.741 173.967 189.43 173.819 190.07 173.54C190.761 173.224 191.378 172.768 191.882 172.2C192.386 171.633 192.766 170.967 192.997 170.245C193.228 169.522 193.305 168.759 193.224 168.004C193.142 167.25 192.905 166.521 192.525 165.864C192.183 165.24 191.715 164.691 191.152 164.255C190.59 163.818 189.944 163.5 189.254 163.324C188.563 163.147 187.843 163.113 187.14 163.226C186.436 163.338 185.763 163.593 185.161 163.977C184.08 164.673 183.283 165.733 182.914 166.964C182.545 168.196 182.628 169.519 183.149 170.695Z" fill="white"/>
<path d="M217.242 173.448C222.74 173.448 222.151 162.756 216.629 163.835C212.481 165.282 212.8 172.688 217.242 173.448Z" fill="white"/>
<path d="M148.083 184.845C148.751 184.17 149.23 183.332 149.472 182.415C149.715 181.497 149.711 180.531 149.463 179.614C149.214 178.698 148.729 177.864 148.057 177.194C147.383 176.523 146.546 176.042 145.628 175.797C143.468 175.478 141.211 174.178 141.137 171.751C141.695 169.731 141.53 167.58 140.67 165.669C140.392 165.159 140.014 164.71 139.559 164.347C139.105 163.984 138.583 163.715 138.024 163.556C137.464 163.396 136.878 163.349 136.3 163.417C135.723 163.485 135.164 163.667 134.658 163.953C133.978 164.435 133.41 165.058 132.995 165.781C132.58 166.503 132.325 167.307 132.251 168.137C132.177 168.967 132.283 169.802 132.563 170.588C132.843 171.372 133.29 172.087 133.873 172.683C135.395 173.982 137.873 173.639 139.1 175.404C140.794 177.611 138.879 180.505 140.106 182.761C140.363 183.539 140.81 184.241 141.407 184.801C142.005 185.362 142.734 185.765 143.527 185.972C144.319 186.18 145.152 186.184 145.948 185.987C146.744 185.791 147.478 185.398 148.083 184.845Z" fill="white"/>
<path d="M165.897 184.478C166.446 183.769 166.809 182.934 166.952 182.048C167.095 181.163 167.015 180.256 166.717 179.409C166.419 178.564 165.915 177.806 165.248 177.204C164.582 176.603 163.775 176.178 162.903 175.97C160.767 175.65 158.166 174.694 157.994 172.218C158.291 170.144 158.291 168.038 157.994 165.964C157.971 165.37 158.068 164.777 158.277 164.221C158.487 163.664 158.805 163.156 159.215 162.723C159.624 162.291 160.115 161.946 160.66 161.707C161.205 161.467 161.792 161.339 162.387 161.33C163.645 161.159 164.804 160.553 165.66 159.616C166.517 158.68 167.017 157.472 167.075 156.205C167.098 155.482 166.975 154.763 166.712 154.089C166.448 153.416 166.051 152.802 165.544 152.287C165.038 151.771 164.431 151.364 163.761 151.089C163.092 150.814 162.374 150.678 161.651 150.688C160.247 150.745 158.919 151.344 157.95 152.36C156.979 153.375 156.441 154.728 156.448 156.132C156.448 157.921 157.061 160.055 155.712 161.551C154.362 163.046 151.294 162.777 149.601 164.42C148.532 165.362 147.865 166.677 147.736 168.096C147.609 169.515 148.03 170.928 148.913 172.046C150.632 174.13 153.822 173.395 155.491 175.626C157.65 178.078 155.27 181.339 157.135 183.792C157.583 184.523 158.197 185.138 158.928 185.587C159.658 186.035 160.486 186.303 161.34 186.37C162.196 186.438 163.054 186.3 163.847 185.972C164.638 185.643 165.342 185.131 165.897 184.478Z" fill="white"/>
<path d="M116.644 175.062C116.063 175.663 115.619 176.382 115.343 177.171C115.067 177.96 114.965 178.8 115.044 179.631C115.124 180.463 115.382 181.268 115.802 181.99C116.222 182.713 116.794 183.336 117.478 183.816C123.148 184.625 121.896 173.002 116.644 175.062Z" fill="white"/>
<path d="M221.88 175.106C219.426 176.7 219.696 180.011 219.917 182.463C219.917 184.351 217.855 187.023 215.99 185.307C213.536 182.683 216.874 177.951 213.242 175.744C208.996 173.291 205.044 179.594 207.524 183.101C208.309 184.817 210.272 185.062 211.892 185.405C214.125 186.116 214.027 188.838 213.487 190.653C213.324 191.158 213.274 191.692 213.341 192.218C213.407 192.746 213.588 193.251 213.871 193.7C214.155 194.148 214.533 194.53 214.98 194.817C215.427 195.104 215.93 195.29 216.457 195.361C217.151 195.248 217.816 194.998 218.413 194.628C219.011 194.257 219.529 193.77 219.937 193.199C220.346 192.626 220.636 191.979 220.793 191.294C220.949 190.608 220.969 189.899 220.849 189.206C220.594 188.176 220.698 187.089 221.144 186.127C221.589 185.163 222.352 184.381 223.303 183.909C226.052 182.757 226.445 179.005 225.611 176.553C225.095 175.155 223.206 173.954 221.88 175.106Z" fill="white"/>
<path d="M133.749 194.532C134.098 195.158 134.585 195.697 135.172 196.109C135.759 196.52 136.431 196.794 137.139 196.91C137.847 197.025 138.573 196.98 139.26 196.776C139.948 196.572 140.581 196.216 141.112 195.734C141.594 195.016 141.898 194.194 142 193.335C142.101 192.477 141.996 191.606 141.694 190.797C141.391 189.987 140.901 189.26 140.262 188.678C139.622 188.095 138.854 187.673 138.019 187.445C137.265 187.336 136.545 187.058 135.912 186.634C135.279 186.21 134.75 185.649 134.363 184.993C133.381 182.811 134.853 180.358 133.675 178.225C133.492 177.589 133.158 177.007 132.701 176.528C132.244 176.05 131.677 175.689 131.05 175.478C130.423 175.265 129.754 175.209 129.1 175.311C128.446 175.414 127.826 175.674 127.294 176.067C126.7 176.684 126.255 177.428 125.993 178.243C125.731 179.058 125.658 179.922 125.782 180.769C125.905 181.616 126.22 182.424 126.703 183.13C127.187 183.837 127.825 184.424 128.57 184.846C130.043 185.361 131.785 185.901 132.424 187.47C133.381 189.726 132.203 192.472 133.749 194.532Z" fill="white"/>
<path d="M168.454 197.821C169.319 198.216 170.275 198.367 171.22 198.261C172.165 198.155 173.063 197.795 173.819 197.218C174.575 196.642 175.16 195.87 175.512 194.988C175.863 194.106 175.969 193.144 175.817 192.206C175.621 191.615 175.555 190.988 175.625 190.369C175.697 189.75 175.901 189.153 176.225 188.621C176.551 188.089 176.987 187.633 177.506 187.287C178.024 186.941 178.612 186.712 179.228 186.615C180.689 186.559 182.073 185.946 183.095 184.901C184.118 183.857 184.701 182.461 184.726 181C184.709 180.11 184.469 179.24 184.029 178.467C183.589 177.694 182.961 177.044 182.204 176.576C181.448 176.107 180.586 175.836 179.697 175.786C178.809 175.737 177.922 175.91 177.117 176.292C175.773 176.915 174.719 178.029 174.172 179.406C173.313 181.613 174.933 184.139 173.558 186.223C171.841 188.675 167.988 187.646 166.196 190.146C165.71 190.762 165.379 191.484 165.231 192.252C165.082 193.022 165.119 193.815 165.34 194.566C165.562 195.318 165.96 196.006 166.502 196.572C167.043 197.138 167.713 197.567 168.454 197.821Z" fill="white"/>
<path d="M199.592 184.433C200.487 183.458 201.005 182.199 201.054 180.878C201.103 179.557 200.682 178.261 199.862 177.223C199.26 176.499 198.447 175.982 197.537 175.739C196.628 175.498 195.664 175.545 194.782 175.875C194.106 176.135 193.489 176.526 192.966 177.028C192.443 177.528 192.026 178.128 191.739 178.792C190.512 181.073 192.254 183.843 190.781 186.149C189.309 188.454 186.094 187.694 184.279 189.459C183.759 189.88 183.331 190.401 183.021 190.992C182.71 191.585 182.525 192.233 182.475 192.899C182.423 193.565 182.51 194.234 182.727 194.865C182.945 195.496 183.288 196.076 183.738 196.57C184.349 197.146 185.085 197.573 185.889 197.817C186.692 198.061 187.541 198.115 188.37 197.974C189.198 197.833 189.982 197.503 190.66 197.009C191.338 196.514 191.893 195.868 192.279 195.124C193.604 192.917 191.837 190.219 193.384 188.037C194.929 185.855 197.948 186.394 199.592 184.433Z" fill="white"/>
<path d="M121.897 186.364C117.945 188.816 120.792 196.54 125.431 195.265C129.946 193.254 126.633 184.648 121.897 186.364Z" fill="white"/>
<path d="M200.919 196.568C204.92 198.628 209.582 193.626 207.791 189.702C207.538 189.151 207.167 188.663 206.703 188.272C206.241 187.88 205.696 187.596 205.11 187.439C204.524 187.283 203.911 187.257 203.313 187.364C202.716 187.471 202.15 187.709 201.655 188.059C198.735 189.653 197.607 194.704 200.919 196.568Z" fill="white"/>
<path d="M150.24 196.834C150.888 197.372 151.659 197.741 152.485 197.909C153.311 198.076 154.166 198.036 154.972 197.794C155.779 197.551 156.513 197.113 157.109 196.517C157.705 195.922 158.145 195.188 158.388 194.383C158.551 193.382 158.434 192.356 158.05 191.419C157.665 190.481 157.03 189.667 156.211 189.069C155.394 188.47 154.426 188.109 153.415 188.024C152.404 187.941 151.391 188.139 150.485 188.595C149.783 189.019 149.198 189.612 148.783 190.32C148.37 191.028 148.14 191.828 148.115 192.648C148.091 193.467 148.272 194.281 148.644 195.012C149.015 195.742 149.564 196.37 150.24 196.834Z" fill="white"/>
<path d="M128.818 197.943C126.363 199.169 126.486 202.847 128.131 204.638C129.775 206.427 133.187 207.653 134.855 205.349C137.112 201.769 132.794 196.423 128.818 197.943Z" fill="white"/>
<path d="M209.269 197.912C206.373 198.917 204.213 202.817 206.201 205.562C208.926 208.358 213.563 205.562 213.981 202.031C214.151 201.402 214.141 200.738 213.953 200.114C213.763 199.49 213.403 198.932 212.911 198.502C212.421 198.074 211.819 197.791 211.175 197.687C210.531 197.582 209.871 197.661 209.269 197.912Z" fill="white"/>
<path d="M158.931 215.94C160.305 214.273 158.317 212.115 159.397 210.325C160.967 208.118 164.305 209.27 166.048 207.235C166.466 206.813 166.788 206.307 166.994 205.751C167.202 205.194 167.286 204.6 167.244 204.009C167.203 203.417 167.035 202.84 166.752 202.319C166.47 201.797 166.078 201.341 165.606 200.982C165.006 200.449 164.295 200.057 163.524 199.833C162.753 199.61 161.942 199.561 161.149 199.69C160.357 199.819 159.603 200.124 158.944 200.58C158.284 201.037 157.734 201.635 157.335 202.331C156.109 204.366 158.562 207.235 156.477 208.853C155.927 209.297 155.26 209.57 154.558 209.639C153.856 209.707 153.149 209.569 152.525 209.24C151.9 208.911 151.386 208.407 151.046 207.789C150.706 207.17 150.554 206.467 150.611 205.764C150.789 204.801 150.711 203.808 150.382 202.885C150.054 201.962 149.488 201.142 148.741 200.508C147.994 199.874 147.093 199.447 146.129 199.272C145.164 199.097 144.17 199.18 143.249 199.511C140.794 200.639 141.064 203.655 141.702 205.838C142.34 208.02 139.911 208.829 138.291 208.829C137.443 208.801 136.617 209.102 135.986 209.669C135.354 210.235 134.967 211.024 134.904 211.87C134.634 216.039 140.844 218.883 143.567 215.523C145.016 213.561 142.364 211.085 144.009 209.27C146.194 206.989 150.169 209.736 149.702 212.581C148.819 217.362 156.305 219.643 158.931 215.94Z" fill="white"/>
<path d="M199.987 207.921C198.244 206.008 200.699 203.458 199.521 201.35C199.057 200.398 198.248 199.661 197.258 199.287C196.268 198.913 195.172 198.932 194.195 199.339C191.299 200.173 189.041 203.85 190.906 206.695C192.232 208.779 194.956 207.872 196.796 209.147C198.784 211.035 195.742 213.831 197.582 215.817C200.748 219.299 207.742 215.056 205.705 210.619C204.626 208.142 201.681 209.294 199.987 207.921Z" fill="white"/>
<path d="M183.962 204.241C184.256 200.636 179.741 198.625 176.82 200.072C176.186 200.28 175.608 200.628 175.127 201.089C174.646 201.55 174.273 202.113 174.038 202.735C173.803 203.358 173.71 204.027 173.767 204.69C173.824 205.354 174.028 205.996 174.365 206.571C176.746 210.298 183.741 208.826 183.962 204.241Z" fill="white"/>
<path d="M175.793 217.921C174.37 216.646 175.622 214.806 175.327 213.261C175.039 212.587 174.614 211.979 174.079 211.477C173.544 210.975 172.911 210.588 172.22 210.342C171.528 210.096 170.794 209.995 170.062 210.046C169.33 210.096 168.615 210.298 167.965 210.637C167.458 210.826 167.001 211.129 166.63 211.523C166.258 211.917 165.984 212.392 165.827 212.909C165.67 213.426 165.636 213.973 165.725 214.507C165.815 215.04 166.027 215.546 166.345 215.984C167.965 218.288 171.254 217.234 173.216 218.999C174.566 220.447 172.407 222.751 174.321 223.904C176.775 225.792 182.444 225.301 182.714 221.452C181.88 218.386 177.978 219.343 175.793 217.921Z" fill="white"/>
<path d="M184.302 210.493C183.757 210.666 183.258 210.957 182.839 211.345C182.42 211.733 182.092 212.21 181.879 212.739C181.665 213.269 181.572 213.839 181.605 214.408C181.637 214.978 181.795 215.533 182.069 216.036C182.719 216.696 183.526 217.179 184.416 217.44C185.305 217.701 186.246 217.731 187.151 217.527C188.055 217.324 188.892 216.893 189.583 216.276C190.274 215.659 190.796 214.875 191.1 214C191.615 210.444 186.952 208.949 184.302 210.493Z" fill="white"/>
<path d="M160.231 219.4C159.715 219.494 159.242 219.752 158.882 220.136C158.523 220.519 158.296 221.008 158.236 221.53C158.175 222.051 158.284 222.579 158.546 223.034C158.808 223.489 159.209 223.848 159.692 224.059C162.146 225.505 166.834 225.554 167.594 222.269C167.226 219.007 162.759 218.173 160.231 219.4Z" fill="white"/>
</g>
<defs>
<filter id="filter0_d_25_826" x="-13" y="-5" width="372" height="355" filterUnits="userSpaceOnUse" color-interpolation-filters="sRGB">
<feFlood flood-opacity="0" result="BackgroundImageFix"/>
<feColorMatrix in="SourceAlpha" type="matrix" values="0 0 0 0 0 0 0 0 0 0 0 0 0 0 0 0 0 0 127 0" result="hardAlpha"/>
<feOffset dx="3" dy="4"/>
<feGaussianBlur stdDeviation="10"/>
<feColorMatrix type="matrix" values="0 0 0 0 0 0 0 0 0 0 0 0 0 0 0 0 0 0 0.1 0"/>
<feBlend mode="normal" in2="BackgroundImageFix" result="effect1_dropShadow_25_826"/>
<feBlend mode="normal" in="SourceGraphic" in2="effect1_dropShadow_25_826" result="shape"/>
</filter>
</defs>
</svg>
