<svg width="263" height="84" viewBox="0 0 263 84" fill="none" xmlns="http://www.w3.org/2000/svg">
<mask id="mask0_20_464" style="mask-type:luminance" maskUnits="userSpaceOnUse" x="0" y="0" width="263" height="84">
<path d="M262.051 0.529297H0V83.0391H262.051V0.529297Z" fill="white"/>
</mask>
<g mask="url(#mask0_20_464)">
<path d="M34.8003 27.9809C35.3996 28.2261 35.1069 28.8867 35.0999 29.3431C35.3996 30.3853 36.9188 30.5624 37.6204 29.8405C37.7137 29.7415 37.7851 29.6236 37.83 29.4952C37.8748 29.3666 37.8921 29.2299 37.8805 29.0943C37.8689 28.9586 37.829 28.8269 37.7629 28.7078C37.6969 28.5886 37.6064 28.485 37.4976 28.4033C36.9868 27.9603 36.1354 28.2192 35.7131 27.6743C35.5767 27.3541 35.7131 26.9931 35.7131 26.6798C35.1613 25.8215 33.506 25.8896 33.1246 26.8704C33.1042 27.7764 34.1598 27.7764 34.8003 27.9809Z" fill="#0C71BC"/>
<path d="M39.8879 26.892C39.6086 26.0201 38.3689 25.952 37.6604 26.313C37.5557 26.3691 37.4659 26.4498 37.3994 26.5483C37.3332 26.6468 37.2916 26.7602 37.279 26.8783C37.4628 28.125 39.8265 28.2067 39.8879 26.892Z" fill="#0C71BC"/>
<path d="M39.5963 29.3835C39.9299 30.5755 42.0757 30.7119 42.3209 29.3835C42.3619 28.3413 41.0198 27.8442 40.1888 28.2392C40.0738 28.274 39.967 28.3315 39.8747 28.4084C39.7822 28.4849 39.7064 28.5796 39.6509 28.6863C39.5957 28.7928 39.5625 28.9096 39.5529 29.0292C39.5437 29.1491 39.5584 29.2696 39.5963 29.3835Z" fill="#0C71BC"/>
<path d="M46.2573 30.1537C46.3234 29.9335 46.3324 29.7002 46.2839 29.4754C46.2352 29.2508 46.1307 29.0419 45.9796 28.8687C45.8288 28.6954 45.6365 28.5629 45.4206 28.484C45.2048 28.4048 44.9725 28.3818 44.7451 28.4167C44.6422 28.4063 44.5383 28.4172 44.4395 28.4484C44.3411 28.4796 44.2498 28.5304 44.1714 28.5979C44.093 28.6655 44.0291 28.7482 43.9837 28.8411C43.9383 28.9341 43.9125 29.0355 43.9074 29.1386C43.7849 30.2899 45.5627 31.1823 46.2573 30.1537Z" fill="#0C71BC"/>
<path d="M26.5654 32.9734C27.0421 32.3943 26.5653 31.5156 27.1035 30.9774C27.5939 30.5484 28.3295 30.5755 28.8063 30.1057C29.0187 29.9309 29.1549 29.6807 29.1868 29.4077C29.2186 29.1346 29.1433 28.8598 28.9764 28.6411C28.1387 27.8305 26.4019 28.7499 26.6945 29.8875C26.6979 30.2181 26.5808 30.5386 26.3653 30.7892C26.1497 31.0398 25.8504 31.2036 25.523 31.25C25.2994 31.3116 25.0939 31.4263 24.9243 31.5847C24.7546 31.743 24.6258 31.94 24.5488 32.1589C24.4719 32.3775 24.449 32.6119 24.4823 32.8414C24.5155 33.0711 24.6038 33.2893 24.7397 33.4772C24.891 33.5703 25.0599 33.6314 25.2358 33.6562C25.4117 33.6812 25.5909 33.6698 25.7621 33.6224C25.9334 33.5752 26.093 33.4932 26.2312 33.3813C26.3694 33.2697 26.4831 33.1309 26.5654 32.9734Z" fill="#0C71BC"/>
<path d="M28.7098 31.3526C28.5969 31.463 28.5069 31.595 28.4455 31.7407C28.3844 31.8864 28.3527 32.0426 28.3527 32.2007C28.3527 32.3587 28.3844 32.5153 28.4455 32.6609C28.5069 32.8064 28.5969 32.9384 28.7098 33.0487C29.071 33.4097 29.6909 33.1918 30.0722 33.5732C30.2306 33.7284 30.3412 33.9259 30.3907 34.142C30.4402 34.3581 30.4265 34.5839 30.3515 34.7925C30.3128 35.0107 30.328 35.2352 30.3958 35.4462C30.4634 35.6571 30.5817 35.8484 30.7401 36.0036C30.8984 36.1586 31.0923 36.2725 31.3047 36.3357C31.5172 36.3989 31.7418 36.4095 31.9591 36.3661C32.9536 36.2297 33.6212 34.8743 32.899 34.0842C32.4699 33.4711 31.5368 33.7707 31.1144 33.1441C30.6921 32.5176 31.1144 31.8977 30.9917 31.2709C30.9917 30.4602 31.9114 30.2764 32.545 30.2014C32.545 30.2014 33.4781 29.6769 33.4508 29.1661C33.5462 28.3758 32.5994 27.9945 31.9455 28.1239C31.7328 28.1474 31.528 28.218 31.3462 28.331C31.1647 28.4439 31.0105 28.5963 30.8955 28.7768C30.7805 28.957 30.7076 29.161 30.6818 29.3734C30.656 29.5859 30.6782 29.8012 30.7465 30.0039C30.4265 30.9166 29.2208 30.6578 28.7098 31.3526Z" fill="#0C71BC"/>
<path d="M33.6898 30.7464C33.4952 30.7975 33.3165 30.896 33.1695 31.0331C33.0225 31.1703 32.9119 31.3418 32.848 31.5323C32.7838 31.7229 32.7678 31.9263 32.8018 32.1243C32.8359 32.3226 32.9186 32.509 33.0426 32.6673C33.7716 33.5868 35.5561 33.0964 35.6038 31.884C35.6515 30.9236 34.4866 30.4398 33.6898 30.7464Z" fill="#0C71BC"/>
<path d="M40.1869 32.2319C40.4595 31.1693 39.1857 30.386 38.2526 30.7333C38.0731 30.7777 37.9068 30.8645 37.7681 30.9865C37.6291 31.1087 37.5219 31.2624 37.4551 31.4349C37.3883 31.6074 37.3638 31.7933 37.3842 31.9771C37.4043 32.1607 37.4685 32.3371 37.5714 32.4908C38.1775 33.4306 39.901 33.3558 40.1869 32.2319Z" fill="#0C71BC"/>
<path d="M42.0885 32.715C41.925 33.8729 40.3924 33.3622 39.9703 34.2953C39.8775 34.4871 39.828 34.697 39.8249 34.9102C39.8218 35.1232 39.8651 35.3344 39.952 35.5291C40.0389 35.7237 40.1673 35.897 40.3279 36.0368C40.4888 36.1765 40.6781 36.2796 40.883 36.3387C41.0571 36.4024 41.2422 36.4297 41.4274 36.4191C41.6125 36.4086 41.7935 36.3604 41.9593 36.2776C42.1251 36.1946 42.2721 36.0788 42.3917 35.937C42.5111 35.7954 42.6003 35.6307 42.6539 35.4533C42.8584 34.9355 42.3814 34.3703 42.7086 33.8729C42.8287 33.6878 42.9948 33.5365 43.1902 33.4338C43.3859 33.3312 43.6048 33.2807 43.8256 33.2871C44.0888 33.2376 44.3219 33.0857 44.4738 32.865C44.6256 32.6443 44.6839 32.3723 44.6362 32.1088C44.6009 31.8894 44.5179 31.6802 44.3931 31.4964C44.268 31.3126 44.1043 31.1584 43.9135 31.0447C43.7224 30.9312 43.5089 30.8608 43.2877 30.8386C43.0665 30.8165 42.8432 30.843 42.6335 30.9168C41.8299 31.1823 42.0341 32.0814 42.0885 32.715Z" fill="#0C71BC"/>
<path d="M48.1973 33.5531C49.2939 32.6473 47.8637 30.6513 46.6443 31.3529C45.4523 32.2113 46.9983 34.2887 48.1973 33.5531Z" fill="#0C71BC"/>
<path d="M36.1016 33.601C35.8796 33.6433 35.6716 33.74 35.4962 33.8828C35.3212 34.0254 35.184 34.2093 35.0976 34.4181C35.011 34.627 34.9777 34.8539 35.0009 35.0787C35.0241 35.3035 35.1028 35.5191 35.2299 35.706C35.6453 36.4687 36.6875 36.1895 37.2256 36.789C37.3937 37.1512 37.4752 37.5478 37.4641 37.947C37.3414 38.5464 37.7093 39.2344 37.3006 39.7658C36.8919 40.2969 35.9382 40.1538 35.4547 40.6512C35.284 40.802 35.1492 40.9895 35.0605 41.1991C34.9718 41.409 34.931 41.6359 34.9414 41.8636C34.9517 42.0913 35.013 42.3135 35.1206 42.5144C35.2281 42.7152 35.3792 42.8895 35.563 43.0241C35.7466 43.159 35.9583 43.251 36.1821 43.2933C36.4059 43.3356 36.6364 43.3274 36.8566 43.2688C37.0768 43.2106 37.2813 43.1036 37.4546 42.9558C37.6281 42.8081 37.7663 42.6235 37.8591 42.4154C38.2201 41.7342 37.6683 40.9578 38.0839 40.3106C38.4993 39.6634 39.5075 39.9429 40.0252 39.3571C40.1689 39.2057 40.279 39.026 40.3481 38.8293C40.4172 38.6326 40.444 38.4234 40.4267 38.2156C40.4094 38.0078 40.3483 37.8062 40.2472 37.6236C40.1464 37.4411 40.008 37.282 39.8414 37.1569C39.4461 36.8434 38.9013 36.857 38.479 36.6392C38.2673 36.4896 38.1064 36.279 38.0174 36.0356C37.9287 35.7922 37.9161 35.5276 37.9818 35.2767C38.0303 35.0274 38.013 34.7698 37.9318 34.529C37.8506 34.2884 37.7083 34.0729 37.5185 33.904C37.329 33.7348 37.0987 33.618 36.8502 33.5649C36.6019 33.512 36.3438 33.5244 36.1016 33.601Z" fill="#0C71BC"/>
<path d="M45.9221 36.6305C46.0714 36.6236 46.2176 36.587 46.3527 36.5233C46.4876 36.4596 46.6088 36.3696 46.7088 36.2587C46.8089 36.1479 46.886 36.0184 46.9357 35.8776C46.9855 35.7369 47.0066 35.5876 46.9984 35.4385C46.9984 34.4644 45.8951 33.5313 44.955 34.0284C43.763 34.7233 44.6347 36.7326 45.9221 36.6305Z" fill="#0C71BC"/>
<path d="M49.7235 37.0615H49.7782C50.6296 37.6747 49.853 38.7986 50.3707 39.5683C50.5411 39.9703 51.0519 40.3176 51.4743 39.9906C51.6919 39.7501 51.8353 39.4515 51.8873 39.1312C51.9394 38.811 51.8977 38.4825 51.7672 38.1855C51.6037 37.5042 50.5752 37.5042 50.5138 36.755C50.5546 36.074 50.6229 35.2156 50.0711 34.6708C49.9731 34.5483 49.8452 34.4532 49.7001 34.3939C49.5549 34.3348 49.3968 34.3139 49.2414 34.333C49.0856 34.3521 48.9376 34.4106 48.811 34.5032C48.6844 34.5958 48.5836 34.719 48.5181 34.8613C48.4454 35.0849 48.4194 35.3208 48.4413 35.5549C48.4632 35.7888 48.5328 36.0157 48.6457 36.2217C48.7587 36.428 48.9126 36.6088 49.098 36.7531C49.2834 36.8975 49.4961 37.0025 49.7235 37.0615Z" fill="#0C71BC"/>
<path d="M21.7222 40.0843C22.6009 40.173 22.9279 39.0558 22.7985 38.3612C22.6418 37.8161 22.9074 36.9987 23.5546 36.9443C24.2357 37.0738 24.2357 37.8571 24.1131 38.3746C23.9564 39.0968 24.4333 40.0232 25.2575 39.9482C26.0817 39.8732 26.5584 38.7492 26.3542 37.9048C26.1497 37.0601 26.9604 36.5083 27.7164 36.4403H27.771C27.9637 36.342 28.1333 36.2041 28.2687 36.0357C28.404 35.8671 28.502 35.6716 28.5559 35.4623C28.6101 35.2529 28.6191 35.0345 28.5825 34.8215C28.5456 34.6083 28.4641 34.4056 28.3432 34.2264C28.206 34.0972 28.0426 33.9998 27.8639 33.9399C27.6852 33.8804 27.4957 33.8603 27.3085 33.8809C27.1213 33.9015 26.9408 33.9626 26.7796 34.0601C26.6185 34.1573 26.4803 34.2886 26.3746 34.4443C25.9182 34.962 26.0817 35.691 26.034 36.3245C25.97 36.5065 25.87 36.6736 25.7401 36.8164C25.6102 36.9593 25.4531 37.0745 25.2779 37.1555C25.1208 37.1297 24.9714 37.0694 24.8405 36.9786C24.7097 36.8879 24.6008 36.769 24.5218 36.6308C24.4264 35.9498 24.8692 35.2686 24.4264 34.6624C24.3328 34.5528 24.2155 34.4665 24.0833 34.4092C23.9512 34.352 23.8078 34.3257 23.6639 34.3321C23.5201 34.3388 23.3797 34.378 23.2533 34.4471C23.1269 34.516 23.018 34.6129 22.9347 34.7305C22.3898 35.2823 22.5737 36.0927 22.5396 36.7739C22.5053 36.9299 22.4351 37.0758 22.3345 37.1999C22.2341 37.3241 22.106 37.4231 21.9606 37.4892C20.9525 37.8638 20.7958 39.5939 21.7222 40.0843Z" fill="#0C71BC"/>
<path d="M28.7305 39.6958C29.7931 40.2883 31.0532 39.0146 30.6718 37.9384C30.627 37.7566 30.5434 37.5867 30.4272 37.4402C30.3109 37.2935 30.1647 37.1736 29.9981 37.0882C29.8315 37.0032 29.6485 36.9547 29.4615 36.9462C29.2746 36.9377 29.0879 36.9694 28.9144 37.0393C28.6656 37.1517 28.4518 37.3296 28.2961 37.5537C28.1401 37.778 28.048 38.0402 28.029 38.3125C28.0101 38.585 28.0656 38.8573 28.1891 39.101C28.3123 39.3444 28.4995 39.5499 28.7305 39.6958Z" fill="#0C71BC"/>
<path d="M46.7748 40.848C46.4001 40.2418 45.4667 40.446 45.1398 39.7785C44.7107 39.1792 45.2012 38.4163 44.8265 37.7828C44.6917 37.4576 44.4361 37.1972 44.1136 37.0564C43.791 36.9154 43.4267 36.9048 43.0964 37.0268C42.888 37.1263 42.7063 37.2735 42.5652 37.4563C42.4244 37.6391 42.3285 37.8526 42.2855 38.0795C42.2424 38.3062 42.2532 38.54 42.3172 38.7618C42.3811 38.9835 42.4964 39.1872 42.6537 39.3564C43.0623 39.9489 43.9478 39.7444 44.3428 40.3576C44.8879 41.0388 44.2544 41.9446 44.7515 42.6328C44.8363 42.789 44.9547 42.9249 45.0983 43.0299C45.2419 43.1348 45.4072 43.2065 45.582 43.2397C45.7566 43.273 45.9365 43.2671 46.1088 43.2222C46.281 43.1771 46.4409 43.0946 46.577 42.9801C46.8717 42.7143 47.0553 42.3476 47.0919 41.9526C47.1285 41.5576 47.0153 41.1633 46.7748 40.848Z" fill="#0C71BC"/>
<path d="M48.0082 39.9295C49.4931 39.6023 49.0027 36.905 47.47 37.2046C46.0395 37.5929 46.5163 40.1473 48.0082 39.9295Z" fill="#0C71BC"/>
<path d="M23.2395 40.4661C22.0474 40.8818 22.2177 43.1907 23.5869 43.15C24.9628 42.8501 24.7244 40.2413 23.2395 40.4661Z" fill="#0C71BC"/>
<path d="M40.0235 42.3869C40.0952 42.5671 40.2022 42.7308 40.3384 42.8688C40.4745 43.0067 40.6372 43.1158 40.8164 43.1895C40.9956 43.2633 41.1879 43.3002 41.3816 43.2981C41.5755 43.2958 41.7668 43.2548 41.9445 43.1772C42.1363 43.0895 42.3075 42.9629 42.4473 42.8051C42.5873 42.6476 42.6927 42.4624 42.7567 42.2618C42.8209 42.061 42.8423 41.849 42.8198 41.6394C42.7971 41.43 42.7311 41.2274 42.6257 41.0451C42.5308 40.8715 42.4011 40.7191 42.2448 40.598C42.0888 40.4765 41.9094 40.3883 41.7178 40.3393C41.5262 40.2901 41.3264 40.2808 41.1312 40.312C40.9358 40.3432 40.7488 40.4141 40.582 40.5206C40.2819 40.714 40.0607 41.0084 39.9583 41.3506C39.8557 41.6928 39.8789 42.0602 40.0235 42.3869Z" fill="#0C71BC"/>
<path d="M49.4861 43.1517C51.012 43.1517 50.8485 40.1816 49.3159 40.4815C48.1646 40.8832 48.2531 42.9405 49.4861 43.1517Z" fill="#0C71BC"/>
<path d="M30.2906 46.3173C30.476 46.1298 30.6091 45.897 30.6764 45.6422C30.7437 45.3872 30.7426 45.1191 30.6738 44.8643C30.6047 44.6098 30.4701 44.378 30.2834 44.1919C30.0965 44.0057 29.8642 43.8719 29.6094 43.8038C29.0099 43.7154 28.3834 43.3541 28.3628 42.6799C28.5177 42.1188 28.4718 41.5214 28.2333 40.9905C28.156 40.8489 28.051 40.7241 27.9249 40.6233C27.7989 40.5225 27.6539 40.4477 27.4987 40.4034C27.3435 40.359 27.1808 40.3459 27.0204 40.3649C26.8603 40.3838 26.7051 40.4343 26.5646 40.5137C26.3758 40.6478 26.2183 40.8208 26.103 41.0217C25.9878 41.2223 25.9171 41.4456 25.8965 41.6761C25.8759 41.9066 25.9053 42.1386 25.9831 42.3568C26.0607 42.5747 26.1848 42.7732 26.3467 42.9387C26.769 43.2997 27.457 43.2043 27.7976 43.6947C28.2676 44.3079 27.7362 45.1116 28.0768 45.7384C28.148 45.9545 28.272 46.1494 28.4378 46.3051C28.6038 46.4609 28.806 46.5728 29.0262 46.6303C29.2461 46.688 29.4772 46.6893 29.6981 46.6347C29.9191 46.58 30.1228 46.4709 30.2906 46.3173Z" fill="#0C71BC"/>
<path d="M35.2351 46.2158C35.3875 46.0188 35.4883 45.7867 35.528 45.5407C35.5677 45.2948 35.5453 45.0428 35.4628 44.8077C35.38 44.5728 35.24 44.3621 35.0549 44.1951C34.87 44.0282 34.6462 43.9101 34.4041 43.8521C33.8113 43.7634 33.0893 43.4978 33.0416 42.8099C33.1241 42.2339 33.1241 41.6489 33.0416 41.0728C33.0352 40.9078 33.062 40.743 33.12 40.5886C33.1783 40.4339 33.2667 40.2926 33.3804 40.1724C33.4939 40.0525 33.6303 39.9566 33.7816 39.8901C33.9327 39.8236 34.0957 39.788 34.261 39.7854C34.6101 39.738 34.9316 39.5696 35.1693 39.3094C35.4071 39.0493 35.546 38.7138 35.562 38.3619C35.5685 38.161 35.5342 37.9612 35.4612 37.774C35.388 37.5871 35.2779 37.4166 35.1371 37.2735C34.9966 37.1302 34.8282 37.017 34.6423 36.9406C34.4567 36.8643 34.2574 36.8264 34.0565 36.8292C33.6669 36.845 33.2984 37.0115 33.0292 37.2936C32.7598 37.5757 32.6105 37.9514 32.6126 38.3415C32.6126 38.8386 32.7827 39.4311 32.4081 39.8468C32.0335 40.2622 31.1821 40.1874 30.712 40.6438C30.4152 40.9055 30.2301 41.2709 30.1945 41.6648C30.1592 42.0591 30.276 42.4518 30.5212 42.7622C30.9982 43.3411 31.8836 43.1369 32.3467 43.7567C32.9462 44.4379 32.2856 45.3437 32.8031 46.025C32.9274 46.2281 33.0978 46.3991 33.3008 46.5236C33.5034 46.6482 33.7332 46.7227 33.9704 46.7413C34.2078 46.7601 34.4461 46.7219 34.666 46.6306C34.8857 46.5394 35.0809 46.397 35.2351 46.2158Z" fill="#0C71BC"/>
<path d="M21.5647 43.5996C21.4034 43.7667 21.2803 43.9665 21.2036 44.1857C21.127 44.4048 21.0987 44.6379 21.1207 44.8689C21.1427 45.1 21.2145 45.3235 21.3311 45.5241C21.4477 45.725 21.6064 45.898 21.7963 46.0316C23.3698 46.2561 23.0224 43.0274 21.5647 43.5996Z" fill="#0C71BC"/>
<path d="M50.7734 43.6121C50.0922 44.0548 50.1673 44.9745 50.2286 45.6558C50.2286 46.1802 49.6562 46.9225 49.1387 46.4458C48.4575 45.7169 49.3839 44.4024 48.3758 43.7892C47.1974 43.108 46.1006 44.8588 46.7887 45.8329C47.0066 46.3096 47.5514 46.3777 48.0011 46.4731C48.621 46.6706 48.5936 47.4266 48.4438 47.9307C48.3987 48.071 48.3848 48.2195 48.4034 48.3657C48.4217 48.5121 48.4719 48.6524 48.5506 48.7772C48.6292 48.9017 48.7342 49.0077 48.8582 49.0874C48.9822 49.1673 49.122 49.2189 49.2682 49.2387C49.4608 49.2073 49.6454 49.1379 49.8112 49.035C49.977 48.9319 50.1208 48.7968 50.234 48.638C50.3475 48.4789 50.4282 48.2992 50.4718 48.1089C50.5151 47.9183 50.5205 47.7213 50.4872 47.529C50.4163 47.2428 50.4452 46.9408 50.569 46.6735C50.6927 46.4058 50.9044 46.1885 51.1685 46.0575C51.9314 45.7375 52.0405 44.6953 51.8089 44.0141C51.6658 43.6258 51.1414 43.2921 50.7734 43.6121Z" fill="#0C71BC"/>
<path d="M26.3121 49.0082C26.4091 49.1819 26.5442 49.3317 26.7072 49.4462C26.8701 49.5605 27.0568 49.6365 27.2533 49.6687C27.4497 49.7007 27.6511 49.6881 27.8419 49.6316C28.0327 49.5749 28.2086 49.4759 28.3558 49.3421C28.4896 49.1425 28.5742 48.9143 28.6023 48.6758C28.6304 48.4373 28.6013 48.1954 28.5175 47.9706C28.4334 47.7455 28.2973 47.5436 28.1199 47.3819C27.9425 47.22 27.7292 47.1027 27.4974 47.0395C27.2881 47.0091 27.0882 46.932 26.9127 46.8142C26.7371 46.6963 26.5901 46.5406 26.4826 46.3583C26.21 45.7521 26.6187 45.0709 26.2918 44.4784C26.241 44.3017 26.1482 44.1401 26.0213 44.007C25.8944 43.8742 25.7373 43.7739 25.5632 43.7152C25.3891 43.6561 25.2033 43.6404 25.0218 43.6687C24.8403 43.6974 24.6683 43.7696 24.5207 43.8789C24.3559 44.0503 24.2323 44.2569 24.1595 44.4833C24.0868 44.7097 24.0667 44.9497 24.1009 45.1849C24.1351 45.4203 24.2226 45.6446 24.3567 45.8408C24.4909 46.0373 24.6681 46.2002 24.8749 46.3176C25.2837 46.4607 25.7673 46.6105 25.9445 47.0465C26.21 47.673 25.8831 48.436 26.3121 49.0082Z" fill="#0C71BC"/>
<path d="M35.9449 49.922C36.1849 50.0316 36.4503 50.0737 36.7125 50.0443C36.9747 50.0146 37.2241 49.9146 37.4339 49.7545C37.6436 49.5943 37.806 49.3801 37.9037 49.1349C38.0012 48.8899 38.0306 48.6228 37.9883 48.3621C37.9339 48.1978 37.9156 48.0238 37.9352 47.8518C37.955 47.6798 38.0118 47.514 38.1017 47.3663C38.192 47.2186 38.3132 47.092 38.4571 46.9958C38.6009 46.8996 38.7641 46.8359 38.9351 46.8091C39.3407 46.7934 39.7249 46.6232 40.0085 46.3329C40.2924 46.0428 40.4543 45.655 40.461 45.2492C40.4564 45.0021 40.3898 44.7603 40.2676 44.5455C40.1454 44.331 39.9714 44.1502 39.7612 44.0203C39.5513 43.8901 39.3121 43.8148 39.0653 43.8009C38.8188 43.7872 38.5726 43.8354 38.3493 43.9414C37.9762 44.1146 37.6835 44.4241 37.5319 44.8064C37.2934 45.4196 37.7431 46.1212 37.3615 46.7C36.8847 47.3813 35.8155 47.0953 35.3181 47.7899C35.1832 47.9609 35.0914 48.1615 35.0502 48.375C35.0089 48.5887 35.0192 48.8092 35.0806 49.0178C35.142 49.2266 35.2526 49.4177 35.4029 49.575C35.5532 49.7323 35.7391 49.8514 35.9449 49.922Z" fill="#0C71BC"/>
<path d="M44.5872 46.2027C44.8355 45.932 44.9794 45.5821 44.9931 45.2152C45.0067 44.8483 44.8897 44.4883 44.6623 44.2001C44.4952 43.9989 44.2696 43.8551 44.0169 43.7878C43.7644 43.7207 43.4971 43.7339 43.2521 43.8254C43.0647 43.8976 42.8932 44.0064 42.7483 44.1457C42.6031 44.2846 42.4874 44.4515 42.4077 44.6358C42.0671 45.2693 42.5505 46.039 42.1418 46.6795C41.7332 47.3197 40.8408 47.1085 40.3369 47.599C40.1928 47.7158 40.0739 47.8607 39.9878 48.0249C39.9017 48.1894 39.8501 48.3694 39.8362 48.5545C39.822 48.7394 39.846 48.9253 39.9063 49.1006C39.9667 49.276 40.0621 49.4371 40.1869 49.5743C40.3565 49.7344 40.5607 49.853 40.7838 49.9206C41.0068 49.9884 41.2425 50.0033 41.4725 49.9644C41.7022 49.9252 41.9198 49.8334 42.1081 49.6962C42.2963 49.5588 42.4502 49.3794 42.5575 49.1726C42.9252 48.5594 42.4348 47.8101 42.8641 47.2039C43.2931 46.5977 44.1308 46.7476 44.5872 46.2027Z" fill="#0C71BC"/>
<path d="M23.0226 46.7395C21.9259 47.4207 22.7161 49.5662 24.0035 49.2122C25.2569 48.6534 24.3373 46.2627 23.0226 46.7395Z" fill="#0C71BC"/>
<path d="M44.9557 49.5742C46.066 50.1463 47.3601 48.7568 46.8629 47.6669C46.7928 47.5137 46.6897 47.3781 46.561 47.2696C46.4326 47.1608 46.2815 47.0819 46.1188 47.0383C45.9561 46.9947 45.7859 46.9875 45.6201 47.0174C45.4544 47.047 45.2973 47.1131 45.1599 47.2105C44.3495 47.6532 44.0362 49.0564 44.9557 49.5742Z" fill="#0C71BC"/>
<path d="M30.8894 49.6479C31.0694 49.7975 31.2834 49.8999 31.5126 49.9465C31.7418 49.9929 31.979 49.9818 32.2029 49.9145C32.4269 49.847 32.6306 49.7253 32.7959 49.5598C32.9614 49.3945 33.0834 49.1908 33.1509 48.967C33.1961 48.689 33.1636 48.4041 33.0571 48.1437C32.9503 47.8833 32.774 47.6571 32.5468 47.4908C32.3199 47.3245 32.0512 47.2242 31.7707 47.2007C31.4902 47.1775 31.2089 47.2325 30.9575 47.3593C30.7625 47.4769 30.6001 47.6417 30.4851 47.8384C30.3704 48.0351 30.3064 48.2574 30.2997 48.4851C30.293 48.7127 30.3433 48.9386 30.4464 49.1418C30.5493 49.3447 30.7017 49.519 30.8894 49.6479Z" fill="#0C71BC"/>
<path d="M24.9436 49.9558C24.2624 50.2964 24.2965 51.3182 24.7528 51.8156C25.2092 52.3127 26.1562 52.6533 26.6192 52.0131C27.2458 51.0186 26.0471 49.5337 24.9436 49.9558Z" fill="#0C71BC"/>
<path d="M47.273 49.9473C46.4693 50.2265 45.8698 51.3097 46.4216 52.0724C47.1779 52.849 48.465 52.0724 48.5811 51.0916C48.6282 50.9168 48.6254 50.7324 48.5731 50.5589C48.5205 50.3856 48.4204 50.2306 48.284 50.1113C48.1479 49.9921 47.9808 49.9135 47.8021 49.8846C47.6234 49.8555 47.4401 49.8774 47.273 49.9473Z" fill="#0C71BC"/>
<path d="M33.3016 54.9553C33.683 54.4922 33.1312 53.8928 33.4311 53.3954C33.8668 52.7825 34.7932 53.1025 35.2769 52.5373C35.393 52.42 35.4824 52.2794 35.5397 52.125C35.5972 51.9703 35.6207 51.8053 35.6091 51.641C35.5974 51.4765 35.551 51.3164 35.4724 51.1715C35.394 51.0266 35.2855 50.9 35.1542 50.8002C34.9876 50.6522 34.7904 50.5431 34.5764 50.481C34.3624 50.4191 34.1373 50.4054 33.9173 50.4413C33.6974 50.4771 33.4883 50.5617 33.3052 50.6885C33.1222 50.8154 32.9695 50.9815 32.8586 51.1748C32.5183 51.7403 33.1992 52.5373 32.6204 52.9867C32.468 53.1099 32.2829 53.1858 32.0879 53.2048C31.893 53.2239 31.6968 53.1855 31.5235 53.0942C31.3503 53.0027 31.2074 52.8627 31.113 52.691C31.0187 52.5192 30.9766 52.3238 30.9924 52.1286C31.0419 51.861 31.0202 51.5851 30.9289 51.3288C30.8379 51.0725 30.6806 50.8445 30.4733 50.6684C30.266 50.4923 30.0159 50.3737 29.7483 50.3252C29.4806 50.2765 29.2047 50.2995 28.949 50.3915C28.2677 50.7048 28.3425 51.5428 28.5197 52.149C28.6968 52.7552 28.0225 52.98 27.5729 52.98C27.3374 52.9723 27.1082 53.0558 26.9331 53.2133C26.7578 53.3706 26.6503 53.5898 26.6328 53.8247C26.558 54.9827 28.2814 55.7727 29.0374 54.8396C29.4394 54.2945 28.7035 53.6066 29.1599 53.1025C29.7663 52.4689 30.8696 53.2319 30.7402 54.0222C30.495 55.3503 32.5727 55.9839 33.3016 54.9553Z" fill="#0C71BC"/>
<path d="M44.6969 52.7277C44.2132 52.1963 44.8944 51.488 44.5675 50.9022C44.4388 50.6379 44.2143 50.4332 43.9394 50.3292C43.6645 50.2253 43.3605 50.2305 43.0893 50.3437C42.2856 50.5752 41.6588 51.5968 42.1765 52.3871C42.5445 52.966 43.3005 52.714 43.8112 53.0683C44.363 53.5928 43.5186 54.3694 44.0294 54.9209C44.9081 55.8883 46.8494 54.7097 46.284 53.477C45.9844 52.7891 45.167 53.1091 44.6969 52.7277Z" fill="#0C71BC"/>
<path d="M40.249 51.7054C40.3308 50.7039 39.0774 50.1454 38.2667 50.5474C38.0909 50.6051 37.9305 50.7018 37.797 50.8297C37.6634 50.9579 37.56 51.1141 37.4948 51.2871C37.4295 51.4602 37.4037 51.6458 37.4195 51.8302C37.4352 52.0145 37.4919 52.1929 37.5855 52.3525C38.2464 53.3878 40.1877 52.9791 40.249 51.7054Z" fill="#0C71BC"/>
<path d="M37.9819 55.5056C37.5869 55.1513 37.9342 54.6402 37.8524 54.2112C37.7725 54.024 37.6544 53.8551 37.5059 53.7156C37.3576 53.5761 37.1818 53.4686 36.9899 53.4003C36.7981 53.3319 36.5942 53.3038 36.391 53.318C36.1878 53.332 35.9895 53.3882 35.809 53.4823C35.6682 53.5346 35.5414 53.6189 35.4385 53.7283C35.3354 53.8378 35.2593 53.9696 35.2157 54.1132C35.1721 54.2571 35.1626 54.409 35.1874 54.5572C35.2124 54.7052 35.2712 54.8458 35.3593 54.9675C35.809 55.6077 36.7218 55.3148 37.2666 55.8052C37.6413 56.2072 37.042 56.8474 37.5732 57.1676C38.2544 57.6921 39.8278 57.5557 39.9028 56.4864C39.6713 55.6348 38.5881 55.9006 37.9819 55.5056Z" fill="#0C71BC"/>
<path d="M40.3434 53.4422C40.1923 53.4901 40.0536 53.5711 39.9373 53.6789C39.821 53.7867 39.73 53.9189 39.6709 54.0659C39.6116 54.2131 39.5856 54.3715 39.5949 54.5298C39.6039 54.6881 39.6477 54.8423 39.7235 54.9818C39.904 55.1651 40.1281 55.2994 40.3751 55.3719C40.6219 55.4443 40.8831 55.4528 41.1342 55.3961C41.3851 55.3397 41.6174 55.22 41.8092 55.0485C42.0011 54.8771 42.146 54.6595 42.2303 54.4163C42.3731 53.4285 41.079 53.0131 40.3434 53.4422Z" fill="#0C71BC"/>
<path d="M33.6625 55.9161C33.5192 55.9424 33.3879 56.0141 33.2881 56.1206C33.1883 56.227 33.1254 56.3629 33.1087 56.5078C33.0919 56.6527 33.1221 56.7992 33.1948 56.9258C33.2675 57.0521 33.3789 57.1519 33.5127 57.2105C34.1939 57.6122 35.495 57.6258 35.7062 56.7131C35.6038 55.807 34.3641 55.5755 33.6625 55.9161Z" fill="#0C71BC"/>
<path d="M11.2724 57.911C10.9041 56.7319 10.1703 55.7005 9.1773 54.9659C8.1843 54.2313 6.98339 53.8314 5.74817 53.8239C5.37252 53.8252 4.99805 53.8662 4.63106 53.9467C3.49709 54.1743 2.45775 54.7377 1.64791 55.5633C0.838064 56.3892 0.29511 57.4391 0.0895019 58.5775C-0.116106 59.7156 0.0251237 60.8893 0.494864 61.9462C0.964605 63.0031 1.74117 63.8945 2.7238 64.5046C3.63886 65.0891 4.70331 65.3964 5.78904 65.3903C6.3663 65.3877 6.94005 65.3005 7.49196 65.1314C8.03859 64.9656 8.55577 64.7152 9.02458 64.3888C10.0428 63.6916 10.8107 62.686 11.2152 61.52C11.6198 60.3541 11.6399 59.0891 11.2724 57.911ZM71.3855 55.6154C70.8418 55.0544 70.1907 54.6083 69.4708 54.304C68.7512 53.9998 67.9776 53.8435 67.1964 53.8443C66.8119 53.844 66.4285 53.8827 66.0518 53.9601C64.6017 54.2664 63.3243 55.1173 62.4825 56.3374C62.0527 56.9673 61.7512 57.6758 61.5963 58.4226C61.4413 59.1693 61.4354 59.9392 61.579 60.6882C61.7229 61.4373 62.0132 62.1505 62.4337 62.7866C62.854 63.4229 63.3963 63.9698 64.0288 64.3958C64.9529 65.0411 66.0557 65.3815 67.1827 65.3696C68.1617 65.3745 69.1273 65.1407 69.9958 64.6887C70.8296 64.2511 71.5341 63.6029 72.0394 62.8085C72.7573 61.7132 73.084 60.4072 72.9664 59.1027C72.8491 57.7983 72.2942 56.5718 71.3922 55.6221L71.3855 55.6154ZM11.0068 21.557C10.5396 20.5548 9.79576 19.707 8.86294 19.1133C7.93014 18.5195 6.8471 18.2047 5.74136 18.2057C5.20286 18.2054 4.66752 18.2881 4.15423 18.4509C2.83534 18.8486 1.70282 19.7061 0.962341 20.8677C0.221862 22.0293 -0.0774575 23.418 0.118742 24.7815C0.314941 26.145 0.993649 27.3929 2.0316 28.2985C3.06954 29.2043 4.39789 29.7076 5.77542 29.7174C6.41681 29.7179 7.05401 29.6143 7.66224 29.4108C8.24762 29.2146 8.79402 28.9173 9.27662 28.5321C10.3146 27.7359 11.0512 26.6106 11.3656 25.3408C11.68 24.0709 11.5535 22.7319 11.0068 21.5434V21.557ZM42.143 76.1116C41.8664 74.8118 41.1532 73.6456 40.1223 72.8066C39.0915 71.9678 37.8046 71.5068 36.4756 71.5001C35.9894 71.5001 35.5054 71.5689 35.0384 71.7046C34.3147 71.8928 33.6355 72.2218 33.0394 72.673C32.4432 73.1243 31.942 73.6887 31.5645 74.3338C30.7876 75.5936 30.5427 77.11 30.8833 78.5503C31.1811 79.8256 31.8994 80.9637 32.9223 81.7816C33.9454 82.5995 35.2135 83.0497 36.5233 83.0597C36.9833 83.0618 37.4415 83.0022 37.8855 82.8826C38.6155 82.7075 39.3037 82.3899 39.9104 81.9482C40.5171 81.5062 41.0304 80.9488 41.4208 80.3078C41.813 79.6884 42.0786 78.9974 42.2023 78.2749C42.3264 77.5525 42.306 76.8127 42.143 76.0982V76.1116ZM71.8419 20.508C71.2989 19.7882 70.596 19.2048 69.7885 18.804C68.9809 18.4031 68.0911 18.196 67.1894 18.1989C66.4574 18.1934 65.7321 18.3371 65.0573 18.6212C63.8129 19.1329 62.786 20.0624 62.153 21.2498C61.5202 22.4371 61.3212 23.808 61.5903 25.1263C61.8425 26.3652 62.4982 27.4855 63.4543 28.3124C64.4106 29.1393 65.614 29.6261 66.8761 29.697H67.2781C68.3435 29.6896 69.386 29.3863 70.2892 28.8214C71.1927 28.2565 71.9213 27.4517 72.3945 26.4969C72.8676 25.5424 73.0664 24.4751 72.969 23.4141C72.8712 22.3531 72.4811 21.34 71.8419 20.4876V20.508ZM41.8161 4.05783C41.3625 3.01189 40.614 2.12093 39.6618 1.49418C38.7096 0.867438 37.5952 0.53214 36.4553 0.529391C35.8303 0.525645 35.2096 0.634079 34.6228 0.849541C33.8771 1.10123 33.1923 1.50563 32.6116 2.03694C32.0312 2.56824 31.5676 3.21476 31.251 3.93522C30.9238 4.63032 30.7443 5.38582 30.7245 6.15389C30.7046 6.92195 30.8444 7.68576 31.1352 8.39686C31.5673 9.48659 32.319 10.42 33.2918 11.0741C34.2644 11.7282 35.4126 12.0725 36.5847 12.0616C37.4065 12.0679 38.2184 11.8813 38.9551 11.5166C40.3214 10.8779 41.379 9.7245 41.8978 8.30832C42.431 6.93598 42.4017 5.40867 41.8161 4.05783Z" fill="white"/>
<path d="M11.9605 21.0999C12.0955 21.377 12.2093 21.6639 12.3011 21.9581C14.2765 20.8138 16.8513 19.3016 18.5747 18.3003C22.4165 16.0797 27.4299 13.2188 31.476 10.896C30.9018 10.2866 30.4547 9.56868 30.1612 8.78437C30.1138 8.66857 30.0661 8.54597 30.0251 8.42334C24.6303 11.5159 18.2477 15.1805 13.0845 18.1777L10.8979 19.4651C11.3333 19.9527 11.6917 20.504 11.9605 21.0999Z" fill="white"/>
<path d="M42.864 8.70344C42.5587 9.492 42.1132 10.2189 41.5495 10.8491C41.9853 11.1352 42.4553 11.4213 42.6528 11.5303C45.1189 12.9335 47.6186 14.3844 50.03 15.7876C53.1633 17.6063 57.3251 20.0517 60.697 21.9658C60.9808 21.0565 61.4442 20.2135 62.0594 19.4863C55.7448 15.8489 48.2658 11.4417 42.9867 8.3833C42.9527 8.45823 42.9117 8.57403 42.864 8.70344Z" fill="white"/>
<path d="M68.6681 49.5742C68.6681 47.5305 68.6681 45.4871 68.6681 43.4435V43.0484C68.6681 38.4439 68.6681 33.3146 68.6681 30.8556V30.5967C68.221 30.697 67.7643 30.7493 67.3059 30.7534H66.8495C66.5058 30.7388 66.1642 30.6954 65.8277 30.624V30.8692C65.8277 32.4085 65.8277 34.8949 65.8277 37.6809C65.8277 40.0105 65.8277 42.5307 65.8277 44.8469C65.8114 45.1463 65.8114 45.4464 65.8277 45.746C65.8277 45.9912 65.8277 46.2227 65.8277 46.4272V46.468C65.8277 46.7132 65.8277 46.9653 65.8277 47.2309C65.8277 47.4965 65.8277 47.8781 65.8277 48.205V48.6274V49.3084C65.8277 49.649 65.8277 49.9896 65.8277 50.3302V51.9582C65.8277 52.0807 65.8277 52.5304 65.8277 52.9935H65.8754C66.3232 52.8991 66.7799 52.8511 67.2378 52.8506C67.73 52.8503 68.221 52.9029 68.7024 53.0071C68.7024 51.9582 68.7024 50.6368 68.7024 50.0032L68.6681 49.5742Z" fill="white"/>
<path d="M60.7248 61.6162L54.7985 65.0221C50.7117 67.379 45.7663 70.2671 41.5294 72.6648C42.1977 73.3759 42.6982 74.2278 42.9939 75.1579C46.5225 73.1142 50.7731 70.6485 54.1653 68.6935L62.1143 64.1093C61.4803 63.3858 61.0069 62.5359 60.7248 61.6162Z" fill="white"/>
<path d="M5.7478 52.8095C6.2385 52.8123 6.72737 52.8693 7.20549 52.9797C7.20549 51.6923 7.20549 50.4526 7.20549 50.0302C7.20549 48.668 7.23955 47.3056 7.1442 45.9094C7.21913 44.0021 7.2123 42.0675 7.19868 40.1943C7.19868 38.8865 7.19868 37.531 7.19868 36.2026C7.19868 35.4193 7.19868 34.6292 7.19868 33.8459C7.19868 33.0623 7.19868 31.6524 7.19868 30.6169C6.72827 30.716 6.24894 30.7662 5.76825 30.767C5.28526 30.7668 4.80358 30.7167 4.33098 30.6169C4.33098 32.2383 4.33098 34.5815 4.33098 36.2026C4.33098 36.7 4.33098 37.2041 4.33098 37.7012C4.33098 38.8592 4.33098 40.0581 4.33098 41.2365C4.33098 42.1289 4.33098 43.0416 4.33098 43.9611V45.1668C4.33098 46.5292 4.33098 47.9595 4.33098 49.356C4.33098 49.8193 4.33098 50.2891 4.33098 50.7184C4.33098 50.9773 4.33098 51.9171 4.33098 52.9526H4.46039C4.88348 52.8608 5.31488 52.8129 5.7478 52.8095Z" fill="white"/>
<path d="M30.6519 73.7763C30.8845 73.3903 31.1537 73.0278 31.4556 72.6931C25.8086 69.4644 19.358 65.7112 13.8814 62.5165L12.2603 61.6311C11.986 62.5565 11.522 63.4149 10.8979 64.1513C13.6226 65.7249 17.2532 67.7819 19.4193 69.0353L30.0387 75.1658C30.1919 74.6816 30.3974 74.2157 30.6519 73.7763Z" fill="white"/>
<path d="M23.2331 32.4626C22.6807 33.2441 22.1996 34.0741 21.7958 34.942L14.0509 30.5006C13.0564 29.9218 12.0074 29.329 11.0198 28.7568L10.7745 28.6207C11.4224 27.916 11.9144 27.0829 12.2186 26.1753L12.423 26.2843C13.615 26.9246 14.8002 27.6466 15.9446 28.2868L23.2331 32.4626Z" fill="white"/>
<path d="M23.3499 51.2703C19.658 53.314 14.0384 56.3926 12.4921 57.326L12.2605 57.4758C11.9559 56.5401 11.4436 55.6856 10.762 54.976L11.0412 54.8192C12.8054 53.8314 14.5833 52.7758 16.3066 51.7947L21.8854 48.7568C22.2959 49.6376 22.7861 50.479 23.3499 51.2703Z" fill="white"/>
<path d="M37.9334 17.0146V25.6314C37.4793 25.586 37.0003 25.5633 36.4962 25.5633C35.9921 25.5633 35.5154 25.586 35.0657 25.6314C35.0657 22.0212 35.0657 17.362 35.0657 16.6604C35.0657 15.5161 35.0657 14.3785 35.0657 13.2546V12.9685C35.5597 13.0811 36.0646 13.1382 36.571 13.1388C37.0289 13.1391 37.4855 13.0911 37.9334 12.9958V13.2546C37.9334 14.5011 37.9334 15.7545 37.9334 17.0146Z" fill="white"/>
<path d="M37.9343 70.3553V70.6005C37.456 70.4915 36.9671 70.4366 36.4764 70.4371C36.0046 70.4371 35.5338 70.4897 35.0732 70.5938V70.3283C35.0732 69.3678 35.0732 68.3937 35.0732 67.4536C35.0732 66.6158 35.0732 61.7454 35.0732 57.9172C35.5276 57.9626 36.0043 57.9856 36.5038 57.9856C37.0032 57.9856 37.4825 57.9626 37.941 57.9172C37.941 61.7251 37.941 66.5955 37.941 67.4536C37.941 68.4006 37.941 69.3882 37.9343 70.3553Z" fill="white"/>
<path d="M62.2367 28.5858L61.9915 28.7222C60.963 29.301 59.9481 29.9005 58.9263 30.4796C58.4155 30.7725 54.642 33.0338 51.2495 35.0501C50.8558 34.1861 50.386 33.3587 49.8463 32.5774C54.0902 30.064 59.3216 26.9443 60.5339 26.229L60.7588 26.0996C61.0661 27.0255 61.5702 27.8736 62.2367 28.5858Z" fill="white"/>
<path d="M62.2365 54.9671C62.0111 55.208 61.8038 55.4653 61.6166 55.7368C61.2391 56.2631 60.9452 56.8445 60.7448 57.4602L60.52 57.3241C59.294 56.5952 53.8651 53.4686 49.7507 51.1119C50.3053 50.3278 50.7885 49.4957 51.1948 48.6255L56.4876 51.6637L57.8498 52.447C59.2122 53.237 60.6084 54.0544 61.9982 54.831L62.2365 54.9671Z" fill="white"/>
<path d="M85.9754 30.3577H81.1526V53.2039H85.9754V30.3577Z" fill="white"/>
<path d="M99.7772 30.3577H90.3156V53.2108H99.7772C106.589 53.2108 111.261 48.7081 111.261 41.7876C111.261 34.8668 106.589 30.3577 99.7772 30.3577ZM99.5387 48.8922H95.1383V34.7034H99.5387C103.673 34.7034 106.35 37.428 106.35 41.7876C106.35 46.1469 103.673 48.8922 99.5387 48.8922Z" fill="white"/>
<path d="M128.761 39.5608H114.3V43.6749H128.761V39.5608Z" fill="#0C71BC"/>
<path d="M130.034 30.3577H114.3V34.6012H130.034V30.3577Z" fill="white"/>
<path d="M130.423 48.9683H114.3V53.2121H130.423V48.9683Z" fill="white"/>
<path d="M140.211 30.3577L130.934 53.2108H135.872L137.718 48.3131H147.39L149.236 53.2108H154.291L144.972 30.3577H140.211ZM139.257 44.2943L142.561 35.548L145.865 44.2943H139.257Z" fill="white"/>
<path d="M165.651 29.97C159.078 29.97 154.255 34.9969 154.255 41.7882C154.255 48.5793 159.078 53.6064 165.651 53.6064C172.224 53.6064 177.047 48.6133 177.047 41.7882C177.047 34.9628 172.197 29.97 165.651 29.97ZM165.651 49.097C161.932 49.097 159.132 46.1272 159.132 41.7882C159.132 37.4492 161.932 34.4791 165.651 34.4791C169.37 34.4791 172.17 37.4492 172.17 41.7882C172.17 46.1272 169.37 49.097 165.651 49.097Z" fill="white"/>
<path d="M184.903 30.3577H180.087V53.2108H195.345V48.8989H184.903V30.3577Z" fill="white"/>
<path d="M207.191 29.97C200.617 29.97 195.795 34.9969 195.795 41.7882C195.795 48.5793 200.617 53.6064 207.191 53.6064C213.764 53.6064 218.587 48.6133 218.587 41.7882C218.587 34.9628 213.737 29.97 207.191 29.97ZM207.191 49.097C203.471 49.097 200.672 46.1272 200.672 41.7882C200.672 37.4492 203.471 34.4791 207.191 34.4791C210.91 34.4791 213.709 37.4492 213.709 41.7882C213.709 46.1272 210.91 49.097 207.191 49.097Z" fill="white"/>
<path d="M232.004 34.4707C233.039 34.4632 234.063 34.6919 234.996 35.1393C235.93 35.5867 236.749 36.2408 237.392 37.0525L240.451 33.9053C238.407 31.3237 235.39 29.9546 231.732 29.9546C225.097 29.9546 220.275 34.8864 220.275 41.7728C220.275 48.6596 225.097 53.5911 231.636 53.5911C234.69 53.6029 237.658 52.5801 240.056 50.6893V41.0986H230.281V45.4853H235.683V48.1008C234.549 48.7684 233.252 49.1079 231.936 49.0819C227.951 49.0819 225.179 46.0437 225.179 41.7728C225.179 37.5019 227.958 34.4707 232.004 34.4707Z" fill="white"/>
<path d="M257.324 30.3577L251.759 40.5138L246.194 30.3577H241.078L249.143 45.0503V53.2108H253.959V45.1117L262.051 30.3577H257.324Z" fill="white"/>
</g>
</svg>
