<svg width="158" height="50" viewBox="0 0 158 50" fill="none" xmlns="http://www.w3.org/2000/svg">
<g clip-path="url(#clip0_985_344)">
<mask id="mask0_985_344" style="mask-type:luminance" maskUnits="userSpaceOnUse" x="0" y="0" width="158" height="50">
<path d="M157.43 0.215683H0V49.7843H157.43V0.215683Z" fill="white"/>
</mask>
<g mask="url(#mask0_985_344)">
<path d="M20.9067 16.7075C21.2667 16.8548 21.0908 17.2516 21.0867 17.5258C21.2667 18.1519 22.1793 18.2584 22.6008 17.8246C22.6569 17.7651 22.6998 17.6944 22.7268 17.6172C22.7537 17.5399 22.7641 17.4578 22.7571 17.3763C22.7502 17.2949 22.7261 17.2157 22.6865 17.1441C22.6468 17.0726 22.5925 17.0103 22.5271 16.9612C22.2202 16.6951 21.7087 16.8506 21.455 16.5233C21.3731 16.3309 21.455 16.114 21.455 15.9258C21.1235 15.4102 20.1291 15.4511 19.9 16.0403C19.8877 16.5846 20.5219 16.5846 20.9067 16.7075Z" fill="#0C71BC"/>
<path d="M23.963 16.0532C23.7953 15.5294 23.0505 15.4885 22.6249 15.7054C22.562 15.739 22.5081 15.7875 22.4681 15.8467C22.4283 15.9059 22.4033 15.974 22.3958 16.045C22.5062 16.7939 23.9262 16.843 23.963 16.0532Z" fill="#0C71BC"/>
<path d="M23.7879 17.5501C23.9883 18.2663 25.2774 18.3482 25.4247 17.5501C25.4493 16.924 24.6431 16.6254 24.1438 16.8627C24.0747 16.8836 24.0106 16.9181 23.9552 16.9643C23.8996 17.0103 23.854 17.0672 23.8207 17.1313C23.7876 17.1953 23.7676 17.2654 23.7618 17.3373C23.7563 17.4093 23.7651 17.4817 23.7879 17.5501Z" fill="#0C71BC"/>
<path d="M27.7896 18.013C27.8292 17.8807 27.8347 17.7405 27.8055 17.6054C27.7763 17.4705 27.7135 17.345 27.6228 17.241C27.5321 17.1369 27.4166 17.0572 27.2869 17.0098C27.1573 16.9623 27.0177 16.9485 26.8811 16.9694C26.8193 16.9632 26.7569 16.9697 26.6975 16.9885C26.6384 17.0072 26.5835 17.0377 26.5364 17.0783C26.4893 17.1189 26.4509 17.1686 26.4237 17.2244C26.3964 17.2803 26.3809 17.3412 26.3778 17.4031C26.3042 18.0948 27.3723 18.6309 27.7896 18.013Z" fill="#0C71BC"/>
<path d="M15.9594 19.7068C16.2458 19.3589 15.9594 18.831 16.2827 18.5078C16.5773 18.25 17.0192 18.2663 17.3057 17.984C17.4333 17.879 17.5151 17.7288 17.5343 17.5647C17.5534 17.4007 17.5081 17.2355 17.4079 17.1042C16.9046 16.6172 15.8612 17.1696 16.037 17.853C16.039 18.0516 15.9687 18.2441 15.8392 18.3947C15.7097 18.5452 15.5299 18.6436 15.3332 18.6715C15.1989 18.7085 15.0754 18.7774 14.9735 18.8725C14.8716 18.9677 14.7942 19.086 14.748 19.2175C14.7017 19.3489 14.688 19.4897 14.708 19.6275C14.7279 19.7656 14.781 19.8966 14.8626 20.0095C14.9536 20.0654 15.055 20.1022 15.1607 20.117C15.2663 20.1321 15.374 20.1252 15.4769 20.0967C15.5797 20.0684 15.6756 20.0191 15.7587 19.9519C15.8417 19.8848 15.91 19.8015 15.9594 19.7068Z" fill="#0C71BC"/>
<path d="M17.2477 18.733C17.1799 18.7993 17.1258 18.8786 17.0889 18.9661C17.0522 19.0536 17.0332 19.1475 17.0332 19.2424C17.0332 19.3374 17.0522 19.4314 17.0889 19.5189C17.1258 19.6063 17.1799 19.6856 17.2477 19.7519C17.4647 19.9688 17.8371 19.8379 18.0662 20.067C18.1613 20.1602 18.2278 20.2789 18.2575 20.4087C18.2873 20.5385 18.279 20.6742 18.234 20.7995C18.2107 20.9306 18.2199 21.0655 18.2606 21.1922C18.3012 21.3189 18.3723 21.4338 18.4674 21.5271C18.5625 21.6202 18.679 21.6887 18.8066 21.7266C18.9343 21.7646 19.0692 21.7709 19.1998 21.7449C19.7972 21.6629 20.1983 20.8486 19.7644 20.374C19.5066 20.0056 18.9461 20.1856 18.6923 19.8092C18.4386 19.4328 18.6923 19.0604 18.6186 18.6839C18.6186 18.1969 19.1711 18.0864 19.5517 18.0413C19.5517 18.0413 20.1123 17.7263 20.0959 17.4194C20.1532 16.9446 19.5844 16.7155 19.1916 16.7933C19.0638 16.8074 18.9408 16.8498 18.8316 16.9177C18.7225 16.9855 18.6299 17.0771 18.5608 17.1855C18.4917 17.2938 18.4479 17.4163 18.4324 17.5439C18.4169 17.6716 18.4302 17.8009 18.4713 17.9227C18.279 18.471 17.5547 18.3155 17.2477 18.733Z" fill="#0C71BC"/>
<path d="M20.2395 18.3688C20.1226 18.3995 20.0152 18.4586 19.9269 18.541C19.8386 18.6235 19.7722 18.7265 19.7338 18.8409C19.6952 18.9554 19.6856 19.0776 19.706 19.1966C19.7265 19.3157 19.7762 19.4277 19.8507 19.5228C20.2886 20.0752 21.3607 19.7806 21.3894 19.0522C21.418 18.4752 20.7182 18.1846 20.2395 18.3688Z" fill="#0C71BC"/>
<path d="M24.1427 19.2612C24.3064 18.6228 23.5412 18.1523 22.9806 18.3609C22.8728 18.3875 22.7729 18.4398 22.6896 18.513C22.6061 18.5864 22.5416 18.6788 22.5015 18.7824C22.4614 18.886 22.4467 18.9977 22.4589 19.1082C22.471 19.2184 22.5096 19.3244 22.5714 19.4167C22.9356 19.9813 23.9709 19.9364 24.1427 19.2612Z" fill="#0C71BC"/>
<path d="M25.2851 19.5515C25.1869 20.2472 24.2661 19.9403 24.0126 20.5009C23.9568 20.6161 23.9271 20.7422 23.9252 20.8703C23.9233 20.9983 23.9494 21.1251 24.0016 21.2421C24.0538 21.359 24.1309 21.4631 24.2274 21.5471C24.3241 21.631 24.4378 21.693 24.5609 21.7285C24.6655 21.7667 24.7767 21.7832 24.8879 21.7768C24.9991 21.7705 25.1079 21.7415 25.2075 21.6918C25.3071 21.6419 25.3954 21.5723 25.4673 21.4871C25.539 21.4021 25.5926 21.3031 25.6248 21.1965C25.7476 20.8855 25.4611 20.546 25.6576 20.2472C25.7298 20.1359 25.8296 20.045 25.947 19.9834C26.0646 19.9217 26.1961 19.8913 26.3287 19.8952C26.4868 19.8655 26.6268 19.7742 26.7181 19.6416C26.8093 19.509 26.8443 19.3456 26.8157 19.1873C26.7945 19.0555 26.7446 18.9299 26.6696 18.8194C26.5945 18.709 26.4961 18.6163 26.3815 18.548C26.2667 18.4799 26.1384 18.4376 26.0055 18.4243C25.8726 18.4109 25.7385 18.4269 25.6126 18.4712C25.1297 18.6308 25.2524 19.1709 25.2851 19.5515Z" fill="#0C71BC"/>
<path d="M28.955 20.0549C29.6138 19.5107 28.7546 18.3116 28.0221 18.7331C27.3059 19.2488 28.2347 20.4968 28.955 20.0549Z" fill="#0C71BC"/>
<path d="M21.6884 20.0839C21.5551 20.1093 21.4301 20.1674 21.3247 20.2532C21.2196 20.3388 21.1372 20.4493 21.0853 20.5748C21.0332 20.7002 21.0132 20.8365 21.0272 20.9716C21.0411 21.1067 21.0884 21.2362 21.1647 21.3485C21.4143 21.8067 22.0404 21.6389 22.3637 21.9991C22.4647 22.2167 22.5136 22.455 22.5069 22.6947C22.4332 23.0549 22.6543 23.4682 22.4087 23.7874C22.1632 24.1065 21.5902 24.0206 21.2998 24.3194C21.1973 24.41 21.1162 24.5226 21.063 24.6485C21.0097 24.7746 20.9852 24.9109 20.9914 25.0477C20.9976 25.1845 21.0345 25.318 21.099 25.4387C21.1636 25.5593 21.2544 25.6641 21.3649 25.7449C21.4751 25.8259 21.6023 25.8812 21.7368 25.9066C21.8712 25.932 22.0097 25.9271 22.142 25.8919C22.2743 25.8569 22.3971 25.7926 22.5012 25.7039C22.6055 25.6151 22.6885 25.5042 22.7443 25.3792C22.9611 24.9699 22.6296 24.5035 22.8793 24.1147C23.1289 23.7259 23.7345 23.8938 24.0456 23.5419C24.1319 23.451 24.198 23.343 24.2395 23.2248C24.281 23.1066 24.2972 22.981 24.2868 22.8562C24.2764 22.7313 24.2397 22.6102 24.179 22.5005C24.1184 22.3908 24.0352 22.2953 23.9351 22.2201C23.6977 22.0318 23.3704 22.04 23.1166 21.9091C22.9895 21.8192 22.8928 21.6927 22.8394 21.5465C22.7861 21.4002 22.7785 21.2413 22.818 21.0906C22.8471 20.9408 22.8367 20.786 22.7879 20.6414C22.7391 20.4968 22.6536 20.3673 22.5396 20.2659C22.4258 20.1643 22.2875 20.0941 22.1381 20.0622C21.989 20.0304 21.8339 20.0379 21.6884 20.0839Z" fill="#0C71BC"/>
<path d="M27.5882 21.9038C27.6779 21.8996 27.7657 21.8776 27.8469 21.8394C27.9279 21.8011 28.0007 21.7471 28.0608 21.6805C28.1209 21.6138 28.1672 21.5361 28.1971 21.4515C28.227 21.3669 28.2397 21.2772 28.2348 21.1877C28.2348 20.6025 27.5719 20.0419 27.0072 20.3405C26.2911 20.758 26.8148 21.9652 27.5882 21.9038Z" fill="#0C71BC"/>
<path d="M29.8719 22.1627H29.9048C30.4163 22.531 29.9497 23.2062 30.2607 23.6686C30.3631 23.9101 30.67 24.1188 30.9237 23.9223C31.0544 23.7778 31.1406 23.5984 31.1719 23.4061C31.2032 23.2137 31.1781 23.0163 31.0997 22.8379C31.0015 22.4286 30.3836 22.4286 30.3467 21.9785C30.3712 21.5694 30.4122 21.0537 30.0807 20.7264C30.0219 20.6528 29.945 20.5957 29.8578 20.56C29.7706 20.5246 29.6757 20.512 29.5823 20.5235C29.4887 20.5349 29.3998 20.5701 29.3237 20.6257C29.2477 20.6813 29.1871 20.7554 29.1478 20.8409C29.1041 20.9752 29.0884 21.1169 29.1016 21.2576C29.1148 21.3981 29.1566 21.5344 29.2244 21.6581C29.2923 21.7821 29.3848 21.8906 29.4961 21.9774C29.6075 22.0641 29.7353 22.1272 29.8719 22.1627Z" fill="#0C71BC"/>
<path d="M13.0498 23.9786C13.5777 24.0319 13.7742 23.3607 13.6964 22.9434C13.6023 22.6159 13.7619 22.1249 14.1506 22.0922C14.5598 22.1699 14.5598 22.6405 14.4862 22.9514C14.3921 23.3853 14.6785 23.9419 15.1737 23.8968C15.6688 23.8517 15.9552 23.1765 15.8326 22.6692C15.7097 22.1617 16.1967 21.8302 16.6509 21.7893H16.6837C16.7995 21.7303 16.9014 21.6475 16.9827 21.5463C17.064 21.445 17.1229 21.3276 17.1553 21.2018C17.1878 21.076 17.1932 20.9448 17.1712 20.8169C17.1491 20.6888 17.1001 20.567 17.0275 20.4594C16.9451 20.3818 16.8469 20.3232 16.7395 20.2873C16.6322 20.2515 16.5183 20.2394 16.4058 20.2518C16.2934 20.2642 16.185 20.3009 16.0881 20.3594C15.9913 20.4178 15.9083 20.4967 15.8448 20.5902C15.5706 20.9013 15.6688 21.3392 15.6402 21.7198C15.6017 21.8292 15.5416 21.9295 15.4636 22.0153C15.3856 22.1012 15.2912 22.1704 15.186 22.219C15.0916 22.2036 15.0018 22.1673 14.9232 22.1128C14.8446 22.0583 14.7792 21.9868 14.7317 21.9038C14.6744 21.4947 14.9404 21.0855 14.6744 20.7213C14.6182 20.6555 14.5477 20.6036 14.4683 20.5692C14.3889 20.5348 14.3028 20.519 14.2164 20.5229C14.1299 20.5269 14.0456 20.5504 13.9697 20.592C13.8937 20.6333 13.8283 20.6916 13.7782 20.7622C13.4509 21.0937 13.5614 21.5805 13.5409 21.9898C13.5203 22.0835 13.4781 22.1712 13.4177 22.2457C13.3573 22.3203 13.2804 22.3798 13.1931 22.4195C12.5874 22.6446 12.4933 23.684 13.0498 23.9786Z" fill="#0C71BC"/>
<path d="M17.2602 23.7453C17.8985 24.1013 18.6555 23.336 18.4264 22.6895C18.3995 22.5803 18.3493 22.4782 18.2794 22.3902C18.2096 22.3021 18.1217 22.23 18.0217 22.1788C17.9216 22.1277 17.8116 22.0985 17.6993 22.0934C17.587 22.0883 17.4749 22.1074 17.3706 22.1493C17.2211 22.2169 17.0927 22.3238 16.9992 22.4584C16.9055 22.5931 16.8502 22.7507 16.8387 22.9142C16.8274 23.078 16.8607 23.2416 16.9349 23.3879C17.0089 23.5342 17.1214 23.6576 17.2602 23.7453Z" fill="#0C71BC"/>
<path d="M28.1004 24.4374C27.8754 24.0732 27.3146 24.1959 27.1182 23.7949C26.8604 23.4349 27.1551 22.9765 26.93 22.5959C26.849 22.4006 26.6955 22.2441 26.5017 22.1596C26.3079 22.0748 26.089 22.0685 25.8906 22.1418C25.7654 22.2015 25.6562 22.29 25.5715 22.3998C25.4869 22.5096 25.4293 22.6379 25.4034 22.7742C25.3776 22.9104 25.3841 23.0509 25.4225 23.1841C25.4609 23.3173 25.5301 23.4397 25.6246 23.5413C25.8702 23.8973 26.4021 23.7744 26.6394 24.1428C26.9669 24.552 26.5863 25.0962 26.8849 25.5096C26.9359 25.6035 27.007 25.6851 27.0933 25.7482C27.1795 25.8112 27.2788 25.8543 27.3839 25.8743C27.4887 25.8943 27.5969 25.8907 27.7003 25.8637C27.8038 25.8366 27.8998 25.7871 27.9816 25.7183C28.1587 25.5586 28.269 25.3383 28.291 25.101C28.313 24.8637 28.245 24.6268 28.1004 24.4374Z" fill="#0C71BC"/>
<path d="M28.8414 23.8856C29.7335 23.6891 29.4389 22.0686 28.5181 22.2486C27.6587 22.4819 27.9451 24.0165 28.8414 23.8856Z" fill="#0C71BC"/>
<path d="M13.9614 24.208C13.2452 24.4577 13.3475 25.8448 14.1701 25.8204C14.9967 25.6402 14.8535 24.0729 13.9614 24.208Z" fill="#0C71BC"/>
<path d="M24.0445 25.3618C24.0876 25.4701 24.1519 25.5685 24.2337 25.6514C24.3155 25.7342 24.4132 25.7997 24.5209 25.8441C24.6285 25.8884 24.7441 25.9105 24.8604 25.9093C24.9769 25.9079 25.0918 25.8832 25.1986 25.8366C25.3138 25.7839 25.4167 25.7079 25.5006 25.6131C25.5847 25.5184 25.6481 25.4072 25.6865 25.2867C25.7251 25.166 25.7379 25.0387 25.7245 24.9128C25.7108 24.787 25.6712 24.6652 25.6078 24.5557C25.5508 24.4515 25.4729 24.3599 25.379 24.2871C25.2853 24.2142 25.1775 24.1612 25.0624 24.1318C24.9473 24.1022 24.8273 24.0966 24.71 24.1153C24.5926 24.1341 24.4803 24.1767 24.3801 24.2407C24.1998 24.3568 24.0669 24.5337 24.0054 24.7393C23.9437 24.9448 23.9576 25.1656 24.0445 25.3618Z" fill="#0C71BC"/>
<path d="M29.7293 25.8213C30.646 25.8213 30.5478 24.037 29.627 24.2171C28.9354 24.4585 28.9885 25.6944 29.7293 25.8213Z" fill="#0C71BC"/>
<path d="M18.1974 27.7233C18.3088 27.6107 18.3887 27.4708 18.4292 27.3178C18.4696 27.1646 18.469 27.0035 18.4276 26.8505C18.3861 26.6976 18.3052 26.5583 18.1931 26.4465C18.0808 26.3346 17.9412 26.2542 17.7882 26.2134C17.428 26.1602 17.0516 25.9432 17.0392 25.5381C17.1323 25.2011 17.1047 24.8422 16.9615 24.5232C16.915 24.4382 16.8519 24.3632 16.7762 24.3026C16.7004 24.2421 16.6134 24.1971 16.5201 24.1705C16.4269 24.1439 16.3291 24.136 16.2328 24.1474C16.1366 24.1587 16.0434 24.1891 15.9589 24.2368C15.8455 24.3174 15.7509 24.4213 15.6817 24.542C15.6124 24.6625 15.57 24.7966 15.5576 24.9351C15.5452 25.0736 15.5628 25.213 15.6096 25.344C15.6563 25.4749 15.7308 25.5942 15.828 25.6937C16.0818 25.9105 16.495 25.8532 16.6997 26.1478C16.9821 26.5162 16.6628 26.999 16.8674 27.3756C16.9102 27.5054 16.9847 27.6225 17.0843 27.7161C17.1841 27.8096 17.3055 27.8768 17.4378 27.9114C17.5699 27.9461 17.7087 27.9469 17.8415 27.914C17.9742 27.8812 18.0966 27.8157 18.1974 27.7233Z" fill="#0C71BC"/>
<path d="M21.1679 27.6621C21.2594 27.5438 21.32 27.4044 21.3438 27.2566C21.3677 27.1088 21.3542 26.9575 21.3046 26.8162C21.2549 26.6751 21.1708 26.5486 21.0596 26.4482C20.9485 26.348 20.8141 26.277 20.6686 26.2422C20.3125 26.1889 19.8788 26.0293 19.8501 25.616C19.8997 25.27 19.8997 24.9185 19.8501 24.5725C19.8462 24.4733 19.8623 24.3743 19.8972 24.2816C19.9322 24.1886 19.9853 24.1037 20.0536 24.0315C20.1218 23.9595 20.2037 23.9019 20.2947 23.8619C20.3854 23.822 20.4833 23.8006 20.5826 23.799C20.7924 23.7705 20.9855 23.6694 21.1284 23.5131C21.2712 23.3568 21.3547 23.1553 21.3643 22.9438C21.3681 22.8232 21.3475 22.7031 21.3037 22.5907C21.2597 22.4783 21.1936 22.376 21.109 22.29C21.0246 22.2039 20.9234 22.1359 20.8117 22.09C20.7002 22.0442 20.5805 22.0214 20.4598 22.0231C20.2257 22.0325 20.0044 22.1326 19.8427 22.3021C19.6808 22.4715 19.5911 22.6972 19.5923 22.9316C19.5923 23.2302 19.6946 23.5862 19.4695 23.8359C19.2444 24.0855 18.7329 24.0405 18.4506 24.3147C18.2723 24.4719 18.1611 24.6914 18.1397 24.9281C18.1185 25.165 18.1886 25.4009 18.3359 25.5874C18.6225 25.9351 19.1544 25.8125 19.4326 26.1848C19.7928 26.5941 19.3959 27.1383 19.7068 27.5475C19.7815 27.6696 19.8839 27.7723 20.0058 27.8471C20.1275 27.9219 20.2655 27.9667 20.4081 27.9778C20.5507 27.9891 20.6939 27.9662 20.826 27.9114C20.958 27.8565 21.0752 27.771 21.1679 27.6621Z" fill="#0C71BC"/>
<path d="M12.9552 26.0907C12.8583 26.191 12.7844 26.3111 12.7383 26.4428C12.6922 26.5744 12.6753 26.7145 12.6885 26.8532C12.7017 26.992 12.7448 27.1263 12.8149 27.2469C12.8849 27.3675 12.9803 27.4715 13.0944 27.5517C14.0396 27.6866 13.8309 25.7469 12.9552 26.0907Z" fill="#0C71BC"/>
<path d="M30.5027 26.0981C30.0934 26.3641 30.1385 26.9166 30.1754 27.3258C30.1754 27.6409 29.8315 28.0869 29.5206 27.8005C29.1113 27.3626 29.6679 26.5729 29.0622 26.2045C28.3543 25.7953 27.6954 26.847 28.1088 27.4323C28.2397 27.7187 28.567 27.7596 28.8372 27.8169C29.2096 27.9355 29.1931 28.3897 29.1031 28.6926C29.076 28.7768 29.0677 28.866 29.0788 28.9539C29.0898 29.0419 29.12 29.1261 29.1673 29.2011C29.2145 29.2759 29.2776 29.3396 29.3521 29.3874C29.4266 29.4355 29.5105 29.4664 29.5984 29.4784C29.7141 29.4595 29.825 29.4178 29.9246 29.356C30.0242 29.294 30.1106 29.2129 30.1786 29.1174C30.2468 29.0219 30.2953 28.9139 30.3214 28.7996C30.3475 28.6851 30.3507 28.5668 30.3307 28.4512C30.2881 28.2793 30.3055 28.0979 30.3798 27.9372C30.4542 27.7765 30.5814 27.6459 30.74 27.5672C31.1983 27.375 31.2639 26.7488 31.1248 26.3396C31.0388 26.1063 30.7237 25.9059 30.5027 26.0981Z" fill="#0C71BC"/>
<path d="M15.8073 29.3399C15.8655 29.4443 15.9467 29.5343 16.0446 29.6031C16.1425 29.6717 16.2547 29.7174 16.3727 29.7368C16.4907 29.756 16.6117 29.7484 16.7263 29.7144C16.841 29.6804 16.9466 29.6209 17.0351 29.5405C17.1154 29.4206 17.1663 29.2835 17.1831 29.1402C17.2 28.9969 17.1825 28.8516 17.1322 28.7166C17.0817 28.5813 16.9999 28.46 16.8933 28.3629C16.7867 28.2656 16.6586 28.1952 16.5194 28.1572C16.3936 28.1389 16.2736 28.0926 16.1681 28.0218C16.0626 27.951 15.9743 27.8575 15.9097 27.748C15.746 27.3838 15.9915 26.9745 15.7951 26.6186C15.7645 26.5125 15.7088 26.4153 15.6326 26.3354C15.5564 26.2556 15.4619 26.1954 15.3574 26.1601C15.2528 26.1246 15.1412 26.1151 15.0321 26.1322C14.9231 26.1494 14.8198 26.1928 14.7311 26.2584C14.632 26.3614 14.5578 26.4855 14.5141 26.6215C14.4704 26.7575 14.4583 26.9017 14.4789 27.043C14.4994 27.1844 14.552 27.3192 14.6326 27.4371C14.7132 27.5551 14.8196 27.653 14.9439 27.7235C15.1894 27.8095 15.48 27.8995 15.5864 28.1614C15.746 28.5378 15.5495 28.9962 15.8073 29.3399Z" fill="#0C71BC"/>
<path d="M21.5943 29.8889C21.7385 29.9547 21.8979 29.9799 22.0554 29.9623C22.2129 29.9445 22.3627 29.8844 22.4888 29.7882C22.6148 29.692 22.7124 29.5633 22.7711 29.4159C22.8296 29.2688 22.8473 29.1083 22.8219 28.9517C22.7892 28.853 22.7782 28.7485 22.79 28.6452C22.8019 28.5418 22.836 28.4422 22.89 28.3535C22.9442 28.2647 23.017 28.1887 23.1035 28.1309C23.1899 28.0731 23.288 28.0348 23.3907 28.0187C23.6343 28.0093 23.8651 27.907 24.0355 27.7326C24.2061 27.5584 24.3033 27.3254 24.3074 27.0816C24.3046 26.9332 24.2646 26.7879 24.1912 26.6588C24.1178 26.53 24.0132 26.4214 23.887 26.3433C23.7609 26.2651 23.6171 26.2199 23.4689 26.2115C23.3208 26.2033 23.1729 26.2322 23.0387 26.2959C22.8146 26.4 22.6388 26.5859 22.5477 26.8156C22.4044 27.184 22.6746 27.6055 22.4453 27.9532C22.1589 28.3625 21.5165 28.1907 21.2177 28.608C21.1367 28.7107 21.0815 28.8312 21.0568 28.9595C21.032 29.0879 21.0382 29.2203 21.075 29.3456C21.1119 29.4711 21.1784 29.5859 21.2687 29.6804C21.359 29.7749 21.4707 29.8464 21.5943 29.8889Z" fill="#0C71BC"/>
<path d="M26.7862 27.6545C26.9354 27.4919 27.0219 27.2817 27.0301 27.0613C27.0383 26.8408 26.9679 26.6246 26.8313 26.4514C26.7309 26.3306 26.5954 26.2442 26.4436 26.2037C26.292 26.1635 26.1313 26.1714 25.9842 26.2264C25.8715 26.2697 25.7685 26.3351 25.6815 26.4187C25.5943 26.5022 25.5247 26.6025 25.4769 26.7132C25.2722 27.0938 25.5627 27.5562 25.3172 27.941C25.0716 28.3256 24.5355 28.1987 24.2328 28.4933C24.1463 28.5635 24.0748 28.6506 24.0231 28.7492C23.9714 28.8481 23.9404 28.9562 23.932 29.0674C23.9235 29.1785 23.9379 29.2902 23.9742 29.3955C24.0104 29.5008 24.0677 29.5976 24.1427 29.68C24.2446 29.7762 24.3673 29.8475 24.5013 29.8881C24.6353 29.9288 24.7769 29.9378 24.915 29.9144C25.053 29.8909 25.1838 29.8357 25.2969 29.7533C25.4099 29.6708 25.5024 29.5629 25.5669 29.4387C25.7877 29.0704 25.4931 28.6202 25.751 28.256C26.0088 27.8919 26.5121 27.9819 26.7862 27.6545Z" fill="#0C71BC"/>
<path d="M13.8311 27.9768C13.1722 28.386 13.6469 29.6749 14.4204 29.4623C15.1733 29.1266 14.6209 27.6903 13.8311 27.9768Z" fill="#0C71BC"/>
<path d="M27.0076 29.6797C27.6746 30.0235 28.4521 29.1887 28.1534 28.5339C28.1113 28.4419 28.0493 28.3604 27.972 28.2952C27.8949 28.2299 27.8041 28.1825 27.7064 28.1563C27.6086 28.1301 27.5064 28.1258 27.4068 28.1437C27.3072 28.1615 27.2128 28.2012 27.1303 28.2598C26.6434 28.5257 26.4552 29.3687 27.0076 29.6797Z" fill="#0C71BC"/>
<path d="M18.5571 29.724C18.6653 29.8139 18.7938 29.8754 18.9315 29.9034C19.0692 29.9313 19.2117 29.9246 19.3462 29.8842C19.4808 29.8436 19.6032 29.7705 19.7025 29.6711C19.8019 29.5718 19.8752 29.4494 19.9158 29.315C19.9429 29.148 19.9234 28.9768 19.8594 28.8203C19.7953 28.6639 19.6893 28.5281 19.5528 28.4281C19.4165 28.3282 19.2551 28.268 19.0866 28.2539C18.9181 28.2399 18.7491 28.2729 18.598 28.3491C18.4809 28.4198 18.3833 28.5188 18.3142 28.6369C18.2453 28.7551 18.2069 28.8887 18.2029 29.0254C18.1988 29.1622 18.229 29.2979 18.291 29.42C18.3528 29.5419 18.4444 29.6466 18.5571 29.724Z" fill="#0C71BC"/>
<path d="M14.9851 29.9092C14.5759 30.1138 14.5963 30.7277 14.8705 31.0265C15.1447 31.3251 15.7136 31.5297 15.9918 31.1451C16.3682 30.5477 15.6481 29.6556 14.9851 29.9092Z" fill="#0C71BC"/>
<path d="M28.3998 29.904C27.9169 30.0718 27.5568 30.7225 27.8883 31.1807C28.3426 31.6473 29.1159 31.1807 29.1856 30.5915C29.2139 30.4865 29.2122 30.3757 29.1808 30.2715C29.1492 30.1674 29.0891 30.0743 29.0071 30.0026C28.9254 29.931 28.825 29.8837 28.7176 29.8664C28.6103 29.8489 28.5002 29.8621 28.3998 29.904Z" fill="#0C71BC"/>
<path d="M20.0063 32.9126C20.2354 32.6343 19.9039 32.2742 20.0841 31.9754C20.3458 31.6072 20.9024 31.7994 21.193 31.4599C21.2627 31.3894 21.3164 31.305 21.3508 31.2122C21.3854 31.1193 21.3995 31.0201 21.3925 30.9214C21.3855 30.8226 21.3577 30.7264 21.3104 30.6394C21.2633 30.5523 21.1981 30.4763 21.1193 30.4163C21.0192 30.3274 20.9007 30.2619 20.7721 30.2245C20.6436 30.1874 20.5083 30.1792 20.3762 30.2007C20.2441 30.2222 20.1184 30.273 20.0085 30.3492C19.8985 30.4254 19.8068 30.5252 19.7402 30.6414C19.5357 30.9811 19.9448 31.4599 19.597 31.7299C19.5055 31.8039 19.3943 31.8495 19.2772 31.8609C19.1601 31.8724 19.0422 31.8493 18.9381 31.7945C18.834 31.7395 18.7482 31.6554 18.6915 31.5522C18.6348 31.449 18.6095 31.3316 18.619 31.2144C18.6487 31.0536 18.6357 30.8878 18.5809 30.7339C18.5262 30.5799 18.4317 30.4429 18.3072 30.3372C18.1826 30.2314 18.0324 30.1601 17.8716 30.131C17.7108 30.1017 17.5451 30.1155 17.3914 30.1708C16.9821 30.359 17.0271 30.8624 17.1335 31.2266C17.2399 31.5908 16.8348 31.7258 16.5647 31.7258C16.4233 31.7212 16.2855 31.7714 16.1804 31.866C16.075 31.9605 16.0104 32.0922 15.9999 32.2333C15.955 32.929 16.9903 33.4036 17.4445 32.843C17.686 32.5155 17.2439 32.1023 17.5181 31.7994C17.8824 31.4188 18.5453 31.8772 18.4675 32.352C18.3202 33.1499 19.5684 33.5305 20.0063 32.9126Z" fill="#0C71BC"/>
<path d="M26.8522 31.5743C26.5616 31.2551 26.9708 30.8296 26.7744 30.4776C26.6971 30.3189 26.5622 30.1959 26.3971 30.1334C26.2319 30.071 26.0493 30.0741 25.8863 30.1421C25.4035 30.2812 25.0269 30.8949 25.338 31.3697C25.559 31.7175 26.0132 31.5661 26.3201 31.779C26.6516 32.094 26.1443 32.5606 26.4511 32.8919C26.979 33.4731 28.1453 32.7651 27.8056 32.0245C27.6256 31.6112 27.1345 31.8034 26.8522 31.5743Z" fill="#0C71BC"/>
<path d="M24.18 30.9602C24.2291 30.3585 23.4762 30.023 22.9891 30.2645C22.8835 30.2992 22.7872 30.3573 22.7069 30.4341C22.6267 30.5111 22.5646 30.605 22.5254 30.7089C22.4862 30.8129 22.4707 30.9244 22.4801 31.0351C22.4896 31.1459 22.5237 31.2531 22.5799 31.349C22.9769 31.9709 24.1432 31.7254 24.18 30.9602Z" fill="#0C71BC"/>
<path d="M22.818 33.2431C22.5807 33.0303 22.7893 32.7233 22.7402 32.4655C22.6922 32.353 22.6213 32.2516 22.5321 32.1678C22.443 32.084 22.3373 32.0194 22.2221 31.9783C22.1068 31.9373 21.9843 31.9204 21.8623 31.9289C21.7402 31.9373 21.6211 31.971 21.5126 32.0276C21.4281 32.059 21.3519 32.1097 21.2901 32.1754C21.2281 32.2412 21.1824 32.3204 21.1562 32.4066C21.13 32.4931 21.1243 32.5843 21.1392 32.6734C21.1542 32.7623 21.1895 32.8467 21.2425 32.9198C21.5126 33.3044 22.061 33.1285 22.3883 33.4231C22.6134 33.6646 22.2534 34.0492 22.5725 34.2416C22.9817 34.5567 23.9269 34.4747 23.972 33.8323C23.8329 33.3207 23.1822 33.4804 22.818 33.2431Z" fill="#0C71BC"/>
<path d="M24.2367 32.0036C24.1459 32.0324 24.0626 32.081 23.9927 32.1458C23.9229 32.2105 23.8682 32.29 23.8327 32.3783C23.7971 32.4667 23.7815 32.5618 23.787 32.657C23.7925 32.7521 23.8188 32.8447 23.8643 32.9285C23.9728 33.0386 24.1074 33.1193 24.2558 33.1629C24.404 33.2064 24.5609 33.2115 24.7118 33.1774C24.8625 33.1435 25.0021 33.0716 25.1173 32.9686C25.2326 32.8656 25.3196 32.7349 25.3703 32.5888C25.4561 31.9954 24.6787 31.7458 24.2367 32.0036Z" fill="#0C71BC"/>
<path d="M20.2231 33.4899C20.137 33.5057 20.0581 33.5487 19.9982 33.6127C19.9382 33.6767 19.9004 33.7583 19.8904 33.8454C19.8803 33.9324 19.8984 34.0204 19.9421 34.0965C19.9858 34.1724 20.0527 34.2323 20.1331 34.2675C20.5424 34.5088 21.324 34.517 21.4509 33.9687C21.3894 33.4243 20.6446 33.2852 20.2231 33.4899Z" fill="#0C71BC"/>
<path d="M6.77202 34.6883C6.55071 33.98 6.10992 33.3604 5.51335 32.9191C4.91679 32.4777 4.19533 32.2375 3.45326 32.233C3.22758 32.2338 3.00262 32.2584 2.78215 32.3067C2.10091 32.4435 1.47651 32.782 0.989987 33.278C0.503465 33.7741 0.17728 34.4049 0.0537588 35.0888C-0.0697625 35.7725 0.0150829 36.4776 0.297284 37.1126C0.579486 37.7475 1.04602 38.283 1.63634 38.6495C2.18607 39.0007 2.82555 39.1853 3.47781 39.1816C3.82461 39.18 4.1693 39.1277 4.50086 39.0261C4.82926 38.9265 5.13996 38.776 5.4216 38.5799C6.03332 38.1611 6.49461 37.557 6.73766 36.8565C6.98072 36.156 6.99277 35.3961 6.77202 34.6883ZM42.8856 33.3092C42.5589 32.9722 42.1678 32.7042 41.7353 32.5214C41.303 32.3386 40.8383 32.2448 40.3689 32.2452C40.1379 32.2451 39.9076 32.2683 39.6813 32.3148C38.8101 32.4988 38.0427 33.01 37.537 33.743C37.2788 34.1214 37.0977 34.5471 37.0046 34.9957C36.9115 35.4443 36.9079 35.9068 36.9942 36.3568C37.0806 36.8068 37.2551 37.2352 37.5077 37.6174C37.7602 37.9997 38.086 38.3282 38.4659 38.5841C39.0211 38.9718 39.6836 39.1763 40.3607 39.1692C40.9489 39.1721 41.529 39.0316 42.0507 38.7601C42.5516 38.4972 42.9748 38.1078 43.2784 37.6305C43.7097 36.9725 43.9059 36.1879 43.8353 35.4043C43.7648 34.6206 43.4315 33.8838 42.8896 33.3133L42.8856 33.3092ZM6.61243 12.8483C6.33174 12.2462 5.8849 11.7369 5.32449 11.3802C4.7641 11.0235 4.11345 10.8343 3.44917 10.835C3.12566 10.8348 2.80405 10.8844 2.49569 10.9823C1.70335 11.2212 1.02298 11.7364 0.578126 12.4342C0.133276 13.132 -0.0465438 13.9663 0.0713252 14.7854C0.189194 15.6046 0.596934 16.3543 1.22049 16.8983C1.84405 17.4425 2.64207 17.7449 3.46963 17.7507C3.85495 17.751 4.23776 17.6888 4.60316 17.5666C4.95483 17.4487 5.28309 17.2701 5.57302 17.0387C6.19661 16.5603 6.63913 15.8843 6.82799 15.1214C7.01686 14.3586 6.94085 13.5541 6.61243 12.8401V12.8483ZM25.3179 45.6226C25.1516 44.8417 24.7232 44.1411 24.1039 43.637C23.4846 43.1331 22.7115 42.8562 21.9131 42.8521C21.621 42.8521 21.3302 42.8935 21.0497 42.975C20.6149 43.0881 20.2069 43.2857 19.8487 43.5568C19.4906 43.8279 19.1895 44.1669 18.9627 44.5545C18.496 45.3114 18.3488 46.2223 18.5534 47.0876C18.7324 47.8538 19.1639 48.5375 19.7784 49.0289C20.3931 49.5202 21.1549 49.7907 21.9418 49.7967C22.2181 49.7979 22.4934 49.7622 22.7601 49.6903C23.1986 49.5851 23.6121 49.3943 23.9766 49.1289C24.341 48.8634 24.6495 48.5285 24.884 48.1434C25.1196 47.7714 25.2791 47.3562 25.3535 46.9222C25.428 46.4882 25.4158 46.0437 25.3179 45.6145V45.6226ZM43.1598 12.2181C42.8336 11.7857 42.4113 11.4352 41.9261 11.1944C41.441 10.9536 40.9064 10.8291 40.3647 10.8309C39.925 10.8276 39.4892 10.9139 39.0838 11.0846C38.3363 11.392 37.7193 11.9504 37.339 12.6637C36.9589 13.3771 36.8393 14.2006 37.001 14.9926C37.1525 15.7369 37.5464 16.4099 38.1208 16.9067C38.6953 17.4035 39.4183 17.6959 40.1765 17.7385H40.418C41.0581 17.734 41.6843 17.5518 42.227 17.2125C42.7697 16.8731 43.2075 16.3896 43.4917 15.816C43.776 15.2425 43.8954 14.6014 43.8369 13.9639C43.7781 13.3265 43.5438 12.7179 43.1598 12.2058V12.2181ZM25.1214 2.33549C24.849 1.70712 24.3993 1.17187 23.8272 0.795349C23.2552 0.418825 22.5857 0.217391 21.9009 0.215739C21.5254 0.213489 21.1525 0.278632 20.8 0.408073C20.352 0.559277 19.9406 0.802227 19.5918 1.12141C19.2431 1.4406 18.9646 1.829 18.7743 2.26183C18.5778 2.67941 18.47 3.13329 18.458 3.59471C18.4461 4.05614 18.5301 4.515 18.7048 4.94221C18.9644 5.59687 19.4159 6.1576 20.0004 6.55058C20.5847 6.94357 21.2745 7.15038 21.9786 7.14381C22.4723 7.14762 22.9601 7.03549 23.4027 6.81643C24.2235 6.43272 24.8589 5.7398 25.1705 4.88901C25.4909 4.06456 25.4732 3.14702 25.1214 2.33549Z" fill="white"/>
<path d="M7.18542 12.5736C7.2665 12.7401 7.33489 12.9124 7.39003 13.0892C8.57677 12.4017 10.1236 11.4933 11.1589 10.8917C13.4669 9.55765 16.4788 7.83894 18.9095 6.4435C18.5646 6.07739 18.296 5.64611 18.1197 5.17493C18.0912 5.10537 18.0625 5.03171 18.0379 4.95804C14.7969 6.8159 10.9625 9.01749 7.86064 10.8181L6.54704 11.5915C6.80863 11.8844 7.02391 12.2156 7.18542 12.5736Z" fill="white"/>
<path d="M25.751 5.12616C25.5676 5.5999 25.2999 6.03658 24.9613 6.41521C25.2231 6.58708 25.5055 6.75895 25.6241 6.82443C27.1056 7.66741 28.6074 8.53906 30.056 9.38205C31.9384 10.4746 34.4387 11.9438 36.4643 13.0937C36.6349 12.5474 36.9132 12.0409 37.2828 11.6041C33.4893 9.41887 28.9962 6.77122 25.8247 4.93384C25.8043 4.97885 25.7797 5.04842 25.751 5.12616Z" fill="white"/>
<path d="M41.2531 29.6799C41.2531 28.4521 41.2531 27.2245 41.2531 25.9968V25.7595C41.2531 22.9932 41.2531 19.9118 41.2531 18.4345V18.279C40.9845 18.3392 40.7101 18.3707 40.4347 18.3731H40.1605C39.954 18.3643 39.7488 18.3383 39.5467 18.2954V18.4427C39.5467 19.3675 39.5467 20.8612 39.5467 22.5349C39.5467 23.9344 39.5467 25.4484 39.5467 26.8399C39.5369 27.0198 39.5369 27.2001 39.5467 27.3801C39.5467 27.5274 39.5467 27.6665 39.5467 27.7893V27.8138C39.5467 27.9611 39.5467 28.1126 39.5467 28.2722C39.5467 28.4317 39.5467 28.661 39.5467 28.8574V29.1111V29.5202C39.5467 29.7248 39.5467 29.9294 39.5467 30.1341V31.1121C39.5467 31.1857 39.5467 31.4558 39.5467 31.7341H39.5753C39.8444 31.6774 40.1187 31.6485 40.3938 31.6482C40.6895 31.6481 40.9845 31.6797 41.2737 31.7423C41.2737 31.1121 41.2737 30.3182 41.2737 29.9377L41.2531 29.6799Z" fill="white"/>
<path d="M36.4811 36.9141L32.9208 38.9602C30.4656 40.3762 27.4946 42.1112 24.9492 43.5517C25.3507 43.9789 25.6514 44.4907 25.8291 45.0494C27.9489 43.8217 30.5025 42.3403 32.5403 41.1659L37.3158 38.4119C36.9349 37.9772 36.6505 37.4667 36.4811 36.9141Z" fill="white"/>
<path d="M3.45305 31.6235C3.74785 31.6252 4.04154 31.6594 4.32878 31.7257C4.32878 30.9523 4.32878 30.2075 4.32878 29.9538C4.32878 29.1354 4.34924 28.3169 4.29196 27.4781C4.33697 26.3323 4.33287 25.1701 4.32469 24.0447C4.32469 23.2591 4.32469 22.4447 4.32469 21.6467C4.32469 21.1761 4.32469 20.7015 4.32469 20.2309C4.32469 19.7601 4.32469 18.9131 4.32469 18.291C4.04208 18.3505 3.75412 18.3807 3.46534 18.3812C3.17517 18.381 2.8858 18.351 2.60188 18.291C2.60188 19.2651 2.60188 20.6728 2.60188 21.6467C2.60188 21.9455 2.60188 22.2483 2.60188 22.547C2.60188 23.2426 2.60188 23.9629 2.60188 24.6708C2.60188 25.2069 2.60188 25.7553 2.60188 26.3077V27.032C2.60188 27.8505 2.60188 28.7097 2.60188 29.5487C2.60188 29.8271 2.60188 30.1093 2.60188 30.3672C2.60188 30.5227 2.60188 31.0873 2.60188 31.7094H2.67963C2.93381 31.6543 3.19297 31.6255 3.45305 31.6235Z" fill="white"/>
<path d="M18.4145 44.2196C18.5542 43.9877 18.7159 43.7699 18.8973 43.5689C15.5048 41.6292 11.6295 39.3744 8.33943 37.4552L7.36548 36.9233C7.20071 37.4792 6.92198 37.9949 6.54704 38.4373C8.18392 39.3826 10.3651 40.6184 11.6664 41.3714L18.0461 45.0544C18.1381 44.7635 18.2616 44.4836 18.4145 44.2196Z" fill="white"/>
<path d="M13.9575 19.3998C13.6257 19.8693 13.3367 20.368 13.0941 20.8894L8.44125 18.2212C7.8438 17.8734 7.21359 17.5173 6.62024 17.1736L6.47292 17.0918C6.86211 16.6684 7.15771 16.168 7.34046 15.6227L7.46322 15.6882C8.17936 16.0728 8.8914 16.5066 9.57889 16.8912L13.9575 19.3998Z" fill="white"/>
<path d="M14.0277 30.6987C11.8097 31.9264 8.4337 33.776 7.50477 34.3367L7.36564 34.4267C7.18261 33.8646 6.87485 33.3512 6.46536 32.9249L6.63314 32.8308C7.69301 32.2373 8.76107 31.6032 9.79639 31.0138L13.1479 29.1887C13.3945 29.7179 13.689 30.2233 14.0277 30.6987Z" fill="white"/>
<path d="M22.7889 10.1192V15.2959C22.5161 15.2686 22.2283 15.2549 21.9255 15.2549C21.6226 15.2549 21.3362 15.2686 21.0661 15.2959C21.0661 13.127 21.0661 10.3279 21.0661 9.90646C21.0661 9.21897 21.0661 8.53557 21.0661 7.86036V7.68849C21.3629 7.75611 21.6662 7.79043 21.9704 7.79079C22.2455 7.79098 22.5198 7.76216 22.7889 7.70487V7.86036C22.7889 8.60923 22.7889 9.36219 22.7889 10.1192Z" fill="white"/>
<path d="M22.7894 42.1642V42.3115C22.5021 42.246 22.2084 42.213 21.9136 42.2133C21.6301 42.2133 21.3473 42.2449 21.0706 42.3075V42.148C21.0706 41.5709 21.0706 40.9857 21.0706 40.421C21.0706 39.9177 21.0706 36.9917 21.0706 34.6919C21.3436 34.7192 21.63 34.733 21.93 34.733C22.2301 34.733 22.518 34.7192 22.7934 34.6919C22.7934 36.9795 22.7934 39.9054 22.7934 40.421C22.7934 40.9899 22.7934 41.5832 22.7894 42.1642Z" fill="white"/>
<path d="M37.3894 17.0709L37.2421 17.1528C36.6242 17.5006 36.0145 17.8607 35.4006 18.2086C35.0937 18.3846 32.8267 19.7431 30.7887 20.9544C30.5521 20.4354 30.2699 19.9383 29.9457 19.4689C32.4952 17.9589 35.638 16.0848 36.3664 15.6551L36.5015 15.5773C36.6861 16.1336 36.9889 16.643 37.3894 17.0709Z" fill="white"/>
<path d="M37.3892 32.9198C37.2538 33.0645 37.1293 33.2191 37.0168 33.3822C36.79 33.6984 36.6135 34.0477 36.4931 34.4176L36.358 34.3358C35.6215 33.8979 32.36 32.0195 29.8882 30.6037C30.2214 30.1327 30.5117 29.6328 30.7558 29.11L33.9355 30.9352L34.7539 31.4058C35.5724 31.8804 36.4112 32.3715 37.2461 32.838L37.3892 32.9198Z" fill="white"/>
<path d="M51.6506 18.1354H48.7533V31.8604H51.6506V18.1354Z" fill="white"/>
<path d="M59.9422 18.1354H54.2581V31.8646H59.9422C64.0344 31.8646 66.8415 29.1596 66.8415 25.002C66.8415 20.8443 64.0344 18.1354 59.9422 18.1354ZM59.7989 29.2702H57.1553V20.7461H59.7989C62.2829 20.7461 63.8911 22.3829 63.8911 25.002C63.8911 27.6209 62.2829 29.2702 59.7989 29.2702Z" fill="white"/>
<path d="M77.3543 23.6643H68.6667V26.1359H77.3543V23.6643Z" fill="#0C71BC"/>
<path d="M78.1195 18.1354H68.6667V20.6847H78.1195V18.1354Z" fill="white"/>
<path d="M78.3528 29.3157H68.6667V31.8653H78.3528V29.3157Z" fill="white"/>
<path d="M84.2332 18.1354L78.6597 31.8646H81.6265L82.7354 28.9223H88.5463L89.6554 31.8646H92.6918L87.0936 18.1354H84.2332ZM83.6602 26.508L85.645 21.2535L87.6297 26.508H83.6602Z" fill="white"/>
<path d="M99.5166 17.9024C95.5677 17.9024 92.6704 20.9224 92.6704 25.0023C92.6704 29.0821 95.5677 32.1023 99.5166 32.1023C103.466 32.1023 106.363 29.1026 106.363 25.0023C106.363 20.9019 103.449 17.9024 99.5166 17.9024ZM99.5166 29.3932C97.2823 29.3932 95.6004 27.609 95.6004 25.0023C95.6004 22.3956 97.2823 20.6113 99.5166 20.6113C101.751 20.6113 103.433 22.3956 103.433 25.0023C103.433 27.609 101.751 29.3932 99.5166 29.3932Z" fill="white"/>
<path d="M111.082 18.1354H108.189V31.8646H117.356V29.2742H111.082V18.1354Z" fill="white"/>
<path d="M124.472 17.9024C120.523 17.9024 117.626 20.9224 117.626 25.0023C117.626 29.0821 120.523 32.1023 124.472 32.1023C128.421 32.1023 131.318 29.1026 131.318 25.0023C131.318 20.9019 128.405 17.9024 124.472 17.9024ZM124.472 29.3932C122.238 29.3932 120.556 27.609 120.556 25.0023C120.556 22.3956 122.238 20.6113 124.472 20.6113C126.706 20.6113 128.388 22.3956 128.388 25.0023C128.388 27.609 126.706 29.3932 124.472 29.3932Z" fill="white"/>
<path d="M139.379 20.6064C140.001 20.6019 140.616 20.7393 141.177 21.008C141.737 21.2768 142.23 21.6698 142.616 22.1574L144.453 20.2667C143.226 18.7158 141.413 17.8933 139.215 17.8933C135.23 17.8933 132.332 20.8561 132.332 24.9932C132.332 29.1305 135.23 32.0931 139.158 32.0931C140.993 32.1002 142.775 31.4857 144.216 30.3499V24.5881H138.344V27.2235H141.589V28.7948C140.908 29.1958 140.128 29.3998 139.338 29.3842C136.944 29.3842 135.279 27.559 135.279 24.9932C135.279 22.4274 136.948 20.6064 139.379 20.6064Z" fill="white"/>
<path d="M154.59 18.1354L151.247 24.2368L147.904 18.1354H144.83L149.675 26.9621V31.8646H152.569V26.999L157.43 18.1354H154.59Z" fill="white"/>
</g>
</g>
<defs>
<clipPath id="clip0_985_344">
<rect width="158" height="49.5686" fill="white" transform="translate(0 0.215683)"/>
</clipPath>
</defs>
</svg>
