<svg width="107" height="29" viewBox="0 0 107 29" fill="none" xmlns="http://www.w3.org/2000/svg">
<path d="M1.5 18.5961L2.51961 18.0642C3.53922 17.5324 5.57843 16.4686 7.61765 14.2443C9.65686 12.02 11.6961 8.63516 13.7353 10.8829C15.7745 13.1305 17.8137 21.0108 19.8529 23.8467C21.8922 26.6826 23.9314 24.4741 25.9706 19.7389C28.0098 15.0036 30.049 7.74152 32.0882 8.46094C34.1275 9.18036 36.1667 17.8813 38.2059 17.0018C40.2451 16.1222 42.2843 5.66225 44.3235 2.3023C46.3627 -1.05766 48.402 2.68241 50.4412 6.74253C52.4804 10.8027 54.5196 15.1828 56.5588 17.8674C58.598 20.552 60.6373 21.5411 62.6765 21.7408C64.7157 21.9406 66.7549 21.351 68.7941 22.3559C70.8333 23.3608 72.8725 25.9602 74.9118 27.2732C76.951 28.5863 78.9902 28.6131 81.0294 23.0974C83.0686 17.5817 85.1078 6.52339 87.1471 3.7281C89.1863 0.93281 91.2255 6.40049 93.2647 8.53268C95.3039 10.6649 97.3431 9.46157 99.3824 8.70473C101.422 7.9479 103.461 7.63753 104.48 7.48235L105.5 7.32716" stroke="#2CBC6E" stroke-width="2" stroke-linecap="round" stroke-linejoin="round"/>
</svg>
