<svg width="467" height="477" viewBox="0 0 467 477" fill="none" xmlns="http://www.w3.org/2000/svg">
<g filter="url(#filter0_d_25_390)">
<path d="M209.656 26.4355C218 29.8492 213.925 39.0458 213.828 45.3994C218 59.9086 239.155 62.3746 248.924 52.3237C250.224 50.9453 251.219 49.3049 251.843 47.5172C252.468 45.726 252.709 43.8235 252.547 41.9354C252.386 40.0473 251.829 38.213 250.91 36.5546C249.991 34.8962 248.731 33.4532 247.215 32.3153C240.103 26.1483 228.247 29.7523 222.366 22.1674C220.467 17.7092 222.366 12.6837 222.366 8.32232C214.683 -3.62712 191.632 -2.67874 186.322 10.9751C186.039 23.5889 200.738 23.5889 209.656 26.4355Z" fill="url(#paint0_linear_25_390)"/>
<path d="M280.499 11.2733C276.61 -0.864559 259.348 -1.81296 249.481 3.21321C248.024 3.99359 246.774 5.11717 245.848 6.4884C244.925 7.85963 244.347 9.43903 244.171 11.0831C246.731 28.4388 279.644 29.5767 280.499 11.2733Z" fill="url(#paint1_linear_25_390)"/>
<path d="M276.438 45.9618C281.084 62.5566 310.964 64.4555 314.378 45.9618C314.949 31.4526 296.261 24.5318 284.689 30.0311C283.088 30.5157 281.601 31.3162 280.316 32.3859C279.027 33.452 277.971 34.7694 277.2 36.2555C276.431 37.738 275.968 39.3641 275.835 41.0297C275.706 42.6988 275.911 44.3752 276.438 45.9618Z" fill="url(#paint2_linear_25_390)"/>
<path d="M369.192 56.6875C370.112 53.622 370.237 50.3734 369.562 47.2433C368.884 44.1167 367.43 41.2092 365.326 38.7969C363.225 36.3847 360.547 34.5397 357.542 33.4412C354.536 32.3392 351.301 32.0197 348.135 32.5043C346.702 32.3608 345.255 32.5115 343.88 32.9459C342.509 33.3802 341.238 34.0874 340.146 35.0278C339.055 35.9683 338.164 37.1206 337.532 38.4128C336.9 39.7087 336.541 41.1194 336.47 42.5553C334.764 58.5829 359.52 71.0065 369.192 56.6875Z" fill="url(#paint3_linear_25_390)"/>
<path d="M94.9862 95.9421C101.625 87.8799 94.9862 75.6465 102.479 68.155C109.308 62.1819 119.552 62.5588 126.19 56.0185C129.149 53.5848 131.045 50.1028 131.49 46.3014C131.931 42.5 130.883 38.6735 128.56 35.6296C116.895 24.3438 92.7099 37.1443 96.785 52.9817C96.8317 57.5836 95.2016 62.0455 92.2001 65.5346C89.1985 69.0237 85.03 71.3031 80.4724 71.9492C77.3577 72.8071 74.4969 74.4045 72.1348 76.6085C69.7723 78.8125 67.9785 81.555 66.9068 84.6026C65.8351 87.6466 65.517 90.9095 65.9798 94.1043C66.4426 97.3026 67.6726 100.339 69.5648 102.956C71.672 104.252 74.0237 105.103 76.4727 105.447C78.9221 105.796 81.417 105.638 83.8014 104.977C86.1861 104.32 88.4086 103.179 90.333 101.621C92.2575 100.067 93.8409 98.1354 94.9862 95.9421Z" fill="url(#paint4_linear_25_390)"/>
<path d="M124.847 73.3733C123.275 74.9096 122.022 76.7475 121.167 78.7756C120.316 80.8038 119.875 82.9791 119.875 85.1795C119.875 87.3799 120.316 89.5588 121.167 91.587C122.022 93.6115 123.275 95.4494 124.847 96.9857C129.878 102.011 138.509 98.978 143.819 104.287C146.024 106.448 147.564 109.198 148.253 112.206C148.943 115.214 148.752 118.358 147.708 121.262C147.169 124.299 147.381 127.426 148.325 130.362C149.266 133.298 150.914 135.962 153.118 138.123C155.323 140.28 158.023 141.867 160.981 142.746C163.94 143.625 167.067 143.773 170.094 143.17C183.942 141.271 193.237 122.4 183.181 111.402C177.206 102.866 164.213 107.037 158.331 98.3139C152.45 89.5911 158.331 80.9617 156.622 72.2354C156.622 60.9496 169.429 58.3903 178.251 57.3457C178.251 57.3457 191.245 50.0444 190.864 42.9334C192.193 31.9313 179.009 26.6222 169.903 28.4242C166.941 28.7509 164.09 29.7344 161.559 31.3067C159.032 32.8789 156.885 35.0004 155.283 37.5131C153.682 40.0222 152.666 42.8616 152.307 45.8194C151.948 48.7773 152.257 51.7746 153.208 54.596C148.752 67.3033 131.964 63.6993 124.847 73.3733Z" fill="url(#paint5_linear_25_390)"/>
<path d="M194.193 64.9346C191.482 65.6454 188.994 67.0166 186.947 68.9263C184.901 70.836 183.361 73.223 182.47 75.8758C181.576 78.5285 181.354 81.3607 181.827 84.1175C182.301 86.8779 183.454 89.4732 185.181 91.6772C195.331 104.478 220.18 97.6503 220.844 80.772C221.509 67.4007 205.287 60.6666 194.193 64.9346Z" fill="url(#paint6_linear_25_390)"/>
<path d="M284.663 85.615C288.458 70.8222 270.722 59.9169 257.728 64.7521C255.229 65.3695 252.913 66.5792 250.982 68.2771C249.047 69.9786 247.553 72.118 246.623 74.5195C245.693 76.9209 245.352 79.509 245.636 82.0684C245.916 84.6242 246.81 87.0795 248.242 89.2189C256.683 102.303 280.682 101.262 284.663 85.615Z" fill="url(#paint7_linear_25_390)"/>
<path d="M311.142 92.3413C308.865 108.462 287.524 101.351 281.646 114.342C280.354 117.013 279.665 119.935 279.622 122.903C279.578 125.868 280.182 128.808 281.392 131.518C282.602 134.228 284.39 136.641 286.626 138.586C288.867 140.532 291.502 141.968 294.357 142.79C296.78 143.676 299.358 144.057 301.936 143.91C304.514 143.762 307.034 143.091 309.343 141.939C311.651 140.783 313.698 139.171 315.364 137.197C317.026 135.226 318.269 132.933 319.015 130.463C321.863 123.255 315.22 115.387 319.777 108.462C321.45 105.885 323.762 103.778 326.483 102.349C329.209 100.921 332.257 100.217 335.33 100.307C338.996 99.6175 342.242 97.5032 344.356 94.4305C346.471 91.3578 347.283 87.5708 346.618 83.9022C346.126 80.8474 344.97 77.9362 343.233 75.3769C341.491 72.8175 339.211 70.6709 336.554 69.0878C333.894 67.5084 330.921 66.5285 327.841 66.2198C324.76 65.911 321.651 66.2808 318.732 67.3074C307.54 71.0047 310.384 83.5217 311.142 92.3413Z" fill="url(#paint8_linear_25_390)"/>
<path d="M396.206 104.008C411.475 91.3973 391.56 63.6102 374.581 73.3775C357.982 85.3273 379.51 114.249 396.206 104.008Z" fill="url(#paint9_linear_25_390)"/>
<path d="M227.777 104.676C224.686 105.265 221.788 106.611 219.347 108.6C216.909 110.585 214.999 113.144 213.796 116.052C212.589 118.959 212.126 122.118 212.449 125.248C212.773 128.379 213.868 131.379 215.638 133.982C221.422 144.6 235.934 140.712 243.427 149.058C245.768 154.102 246.903 159.622 246.749 165.179C245.039 173.525 250.163 183.102 244.472 190.5C238.781 197.895 225.501 195.903 218.769 202.827C216.392 204.927 214.514 207.537 213.279 210.455C212.044 213.377 211.476 216.536 211.62 219.705C211.764 222.875 212.618 225.969 214.115 228.765C215.613 231.562 217.717 233.988 220.276 235.862C222.833 237.74 225.781 239.021 228.897 239.61C232.014 240.198 235.223 240.084 238.29 239.269C241.356 238.457 244.203 236.968 246.616 234.911C249.032 232.854 250.956 230.284 252.249 227.387C257.276 217.903 249.592 207.095 255.38 198.085C261.164 189.075 275.202 192.966 282.412 184.811C284.412 182.704 285.945 180.202 286.907 177.463C287.869 174.724 288.243 171.813 288.002 168.92C287.762 166.026 286.911 163.219 285.503 160.678C284.099 158.136 282.171 155.922 279.852 154.181C274.348 149.816 266.761 150.006 260.88 146.973C257.933 144.891 255.692 141.958 254.453 138.569C253.218 135.181 253.042 131.498 253.958 128.005C254.633 124.534 254.392 120.948 253.261 117.595C252.131 114.246 250.149 111.245 247.506 108.894C244.867 106.539 241.661 104.913 238.2 104.174C234.742 103.438 231.148 103.61 227.777 104.676Z" fill="url(#paint10_linear_25_390)"/>
<path d="M364.525 146.852C366.603 146.755 368.639 146.245 370.521 145.359C372.398 144.472 374.086 143.219 375.479 141.676C376.872 140.132 377.946 138.33 378.638 136.37C379.331 134.41 379.626 132.332 379.511 130.257C379.511 116.696 364.148 103.705 351.057 110.626C334.459 120.3 346.598 148.273 364.525 146.852Z" fill="url(#paint11_linear_25_390)"/>
<path d="M417.458 152.85H418.219C430.075 161.386 419.26 177.033 426.47 187.748C428.843 193.344 435.956 198.18 441.837 193.628C444.867 190.279 446.863 186.122 447.589 181.664C448.314 177.205 447.732 172.632 445.915 168.497C443.639 159.013 429.317 159.013 428.463 148.582C429.03 139.102 429.981 127.152 422.298 119.567C420.934 117.862 419.153 116.538 417.131 115.712C415.11 114.89 412.909 114.599 410.744 114.865C408.575 115.13 406.514 115.945 404.752 117.234C402.989 118.523 401.585 120.238 400.673 122.22C399.66 125.332 399.298 128.617 399.603 131.876C399.908 135.132 400.878 138.291 402.45 141.159C404.023 144.03 406.166 146.547 408.748 148.557C411.329 150.567 414.291 152.028 417.458 152.85Z" fill="url(#paint12_linear_25_390)"/>
<path d="M27.5465 194.933C39.7822 196.168 44.3353 180.614 42.5332 170.944C40.3517 163.355 44.0509 151.976 53.0617 151.219C62.5465 153.021 62.5464 163.926 60.8392 171.13C58.6577 181.185 65.2974 194.082 76.7741 193.038C88.2508 191.993 94.8895 176.346 92.0459 164.59C89.1987 152.83 100.487 145.149 111.014 144.201H111.775C114.457 142.833 116.82 140.913 118.705 138.569C120.59 136.221 121.954 133.5 122.704 130.586C123.458 127.671 123.584 124.63 123.074 121.665C122.561 118.697 121.426 115.875 119.742 113.381C117.832 111.582 115.556 110.225 113.068 109.393C110.58 108.563 107.941 108.283 105.334 108.571C102.727 108.858 100.214 109.708 97.97 111.065C95.726 112.419 93.8016 114.246 92.3295 116.414C85.9745 123.622 88.2508 133.77 87.5866 142.589C86.6962 145.123 85.3031 147.45 83.4946 149.438C81.6862 151.427 79.4978 153.031 77.0589 154.159C74.8709 153.8 72.7902 152.96 70.9688 151.696C69.1474 150.432 67.6308 148.778 66.5303 146.854C65.2023 137.374 71.3677 127.89 65.2023 119.451C63.8986 117.925 62.2646 116.723 60.4249 115.926C58.5848 115.129 56.5875 114.763 54.5848 114.852C52.5817 114.946 50.6263 115.491 48.8667 116.453C47.107 117.412 45.5897 118.761 44.43 120.398C36.8421 128.08 39.4031 139.362 38.9288 148.846C38.4506 151.018 37.4729 153.049 36.0734 154.776C34.6742 156.506 32.8912 157.885 30.8666 158.803C16.8285 164.019 14.6469 188.105 27.5465 194.933Z" fill="url(#paint13_linear_25_390)"/>
<path d="M125.136 189.526C139.932 197.774 157.478 180.042 152.168 165.059C151.544 162.528 150.38 160.163 148.761 158.124C147.142 156.081 145.106 154.412 142.787 153.224C140.467 152.039 137.918 151.364 135.315 151.246C132.712 151.128 130.112 151.569 127.696 152.542C124.231 154.107 121.255 156.584 119.086 159.703C116.914 162.826 115.632 166.477 115.367 170.267C115.105 174.062 115.876 177.852 117.596 181.244C119.312 184.633 121.919 187.494 125.136 189.526Z" fill="url(#paint14_linear_25_390)"/>
<path d="M376.397 205.563C371.18 197.123 358.183 199.966 353.631 190.673C347.656 182.331 354.485 171.709 349.268 162.889C347.39 158.363 343.832 154.737 339.341 152.777C334.849 150.814 329.776 150.667 325.177 152.365C322.276 153.75 319.744 155.8 317.78 158.345C315.82 160.89 314.484 163.862 313.885 167.021C313.285 170.176 313.436 173.432 314.326 176.519C315.217 179.606 316.822 182.442 319.012 184.797C324.703 193.046 337.032 190.199 342.533 198.735C350.123 208.219 341.301 220.829 348.223 230.41C349.405 232.585 351.053 234.477 353.052 235.938C355.052 237.399 357.354 238.397 359.788 238.86C362.219 239.323 364.725 239.24 367.123 238.616C369.522 237.988 371.748 236.839 373.643 235.245C377.747 231.544 380.304 226.44 380.813 220.94C381.323 215.441 379.747 209.953 376.397 205.563Z" fill="url(#paint15_linear_25_390)"/>
<path d="M393.572 192.777C414.249 188.222 407.42 150.671 386.079 154.842C366.159 160.248 372.798 195.81 393.572 192.777Z" fill="url(#paint16_linear_25_390)"/>
<path d="M48.6745 200.249C32.0757 206.035 34.4472 238.18 53.5122 237.613C72.672 233.438 69.3523 197.118 48.6745 200.249Z" fill="url(#paint17_linear_25_390)"/>
<path d="M282.388 226.988C283.386 229.497 284.876 231.777 286.772 233.697C288.667 235.617 290.933 237.136 293.428 238.163C295.924 239.189 298.602 239.702 301.299 239.674C303.999 239.641 306.663 239.071 309.136 237.99C311.808 236.77 314.192 235.007 316.138 232.81C318.087 230.617 319.556 228.04 320.446 225.247C321.34 222.451 321.638 219.5 321.326 216.582C321.01 213.667 320.091 210.846 318.622 208.308C317.301 205.892 315.495 203.77 313.319 202.083C311.147 200.393 308.648 199.165 305.98 198.483C303.313 197.797 300.53 197.668 297.812 198.102C295.091 198.537 292.488 199.524 290.165 201.007C285.985 203.699 282.905 207.798 281.479 212.561C280.051 217.325 280.374 222.44 282.388 226.988Z" fill="url(#paint18_linear_25_390)"/>
<path d="M414.151 237.635C435.399 237.635 433.123 196.286 411.782 200.461C395.75 206.053 396.982 234.695 414.151 237.635Z" fill="url(#paint19_linear_25_390)"/>
<path d="M146.86 281.71C149.442 279.1 151.294 275.859 152.231 272.312C153.168 268.762 153.154 265.029 152.195 261.482C151.233 257.939 149.359 254.712 146.76 252.12C144.157 249.529 140.922 247.666 137.374 246.718C129.027 245.487 120.302 240.458 120.015 231.071C122.173 223.26 121.533 214.943 118.212 207.552C117.135 205.581 115.674 203.844 113.918 202.44C112.163 201.037 110.145 199.996 107.983 199.378C105.822 198.761 103.556 198.578 101.323 198.844C99.0934 199.106 96.932 199.809 94.9753 200.915C92.3471 202.781 90.1534 205.19 88.5485 207.986C86.9436 210.779 85.9598 213.888 85.6725 217.097C85.3853 220.306 85.7946 223.536 86.8789 226.573C87.9596 229.606 89.6866 232.37 91.9414 234.675C97.8224 239.7 107.402 238.372 112.145 245.2C118.69 253.736 111.29 264.925 116.033 273.651C117.024 276.659 118.751 279.373 121.06 281.541C123.372 283.709 126.187 285.267 129.253 286.067C132.315 286.871 135.532 286.889 138.609 286.128C141.686 285.367 144.523 283.849 146.86 281.71Z" fill="url(#paint20_linear_25_390)"/>
<path d="M215.71 280.292C217.832 277.55 219.236 274.319 219.789 270.895C220.342 267.47 220.029 263.963 218.88 260.69C217.728 257.42 215.778 254.487 213.2 252.161C210.626 249.838 207.51 248.194 204.138 247.387C195.884 246.152 185.831 242.454 185.167 232.877C186.316 224.858 186.316 216.713 185.167 208.694C185.077 206.397 185.45 204.103 186.258 201.953C187.07 199.799 188.301 197.832 189.884 196.159C191.464 194.49 193.364 193.155 195.471 192.229C197.575 191.303 199.844 190.807 202.146 190.771C207.007 190.111 211.484 187.767 214.795 184.145C218.105 180.523 220.04 175.853 220.263 170.953C220.353 168.157 219.875 165.375 218.859 162.769C217.839 160.166 216.306 157.794 214.346 155.801C212.389 153.805 210.045 152.23 207.456 151.167C204.871 150.105 202.095 149.577 199.298 149.616C193.873 149.835 188.743 152.154 184.994 156.081C181.242 160.008 179.163 165.238 179.192 170.669C179.192 177.59 181.562 185.839 176.345 191.626C171.128 197.408 159.273 196.367 152.727 202.721C148.595 206.365 146.017 211.451 145.521 216.936C145.03 222.424 146.656 227.891 150.07 232.213C156.713 240.272 169.042 237.429 175.491 246.058C183.838 255.542 174.64 268.152 181.846 277.636C183.576 280.465 185.949 282.845 188.775 284.578C191.597 286.312 194.796 287.35 198.099 287.608C201.406 287.87 204.724 287.339 207.786 286.068C210.845 284.797 213.563 282.816 215.71 280.292Z" fill="url(#paint21_linear_25_390)"/>
<path d="M25.3537 243.876C23.1083 246.202 21.3932 248.984 20.3257 252.035C19.2583 255.086 18.8645 258.331 19.1711 261.547C19.4773 264.763 20.4769 267.876 22.1008 270.668C23.7248 273.465 25.9347 275.873 28.5786 277.733C50.489 280.859 45.6517 235.91 25.3537 243.876Z" fill="url(#paint22_linear_25_390)"/>
<path d="M432.078 244.047C422.592 250.211 423.637 263.015 424.491 272.499C424.491 279.8 416.52 290.134 409.314 283.497C399.829 273.349 412.729 255.049 398.69 246.513C382.282 237.03 367.009 261.403 376.592 274.965C379.625 281.602 387.212 282.549 393.474 283.878C402.105 286.627 401.724 297.152 399.638 304.17C399.01 306.122 398.816 308.19 399.075 310.225C399.329 312.264 400.03 314.217 401.125 315.954C402.22 317.688 403.681 319.163 405.408 320.273C407.135 321.385 409.081 322.103 411.117 322.38C413.799 321.942 416.37 320.976 418.678 319.544C420.987 318.108 422.99 316.227 424.566 314.016C426.146 311.801 427.27 309.299 427.877 306.65C428.48 303.997 428.555 301.255 428.092 298.577C427.105 294.593 427.507 290.389 429.23 286.667C430.954 282.941 433.902 279.915 437.578 278.091C448.202 273.637 449.721 259.127 446.497 249.644C444.504 244.238 437.201 239.593 432.078 244.047Z" fill="url(#paint23_linear_25_390)"/>
<path d="M91.4605 319.172C92.8105 321.592 94.6918 323.677 96.961 325.271C99.2301 326.861 101.83 327.92 104.565 328.369C107.301 328.814 110.105 328.638 112.762 327.852C115.419 327.062 117.868 325.684 119.918 323.821C121.781 321.042 122.959 317.866 123.35 314.545C123.742 311.225 123.336 307.858 122.169 304.728C120.999 301.594 119.103 298.783 116.633 296.533C114.163 294.278 111.193 292.645 107.966 291.766C105.05 291.342 102.268 290.269 99.8225 288.628C97.3775 286.988 95.3309 284.82 93.8337 282.282C90.0387 273.843 95.7295 264.359 91.1769 256.11C90.4696 253.651 89.177 251.4 87.4105 249.548C85.644 247.7 83.4554 246.303 81.0315 245.485C78.6076 244.663 76.0207 244.444 73.4931 244.839C70.9651 245.237 68.571 246.242 66.5159 247.764C64.2198 250.151 62.4993 253.026 61.4861 256.178C60.4729 259.33 60.1935 262.672 60.6693 265.945C61.1453 269.223 62.3639 272.346 64.232 275.077C66.1001 277.813 68.5681 280.081 71.448 281.715C77.1391 283.707 83.8736 285.792 86.3406 291.862C90.0387 300.585 85.4861 311.207 91.4605 319.172Z" fill="url(#paint24_linear_25_390)"/>
<path d="M225.594 331.894C228.937 333.419 232.631 334.004 236.283 333.595C239.934 333.182 243.406 331.789 246.329 329.56C249.248 327.331 251.51 324.348 252.87 320.934C254.228 317.524 254.637 313.806 254.048 310.176C253.29 307.89 253.036 305.467 253.308 303.073C253.585 300.678 254.375 298.37 255.628 296.313C256.884 294.257 258.572 292.494 260.575 291.155C262.579 289.816 264.852 288.929 267.232 288.556C272.88 288.337 278.229 285.968 282.179 281.926C286.132 277.888 288.387 272.489 288.48 266.839C288.415 263.4 287.489 260.033 285.787 257.043C284.085 254.056 281.662 251.54 278.736 249.731C275.813 247.918 272.481 246.87 269.045 246.676C265.613 246.486 262.184 247.157 259.075 248.633C253.879 251.045 249.804 255.352 247.693 260.676C244.372 269.212 250.634 278.979 245.32 287.038C238.681 296.522 223.792 292.541 216.866 302.211C214.988 304.591 213.71 307.384 213.135 310.356C212.561 313.332 212.705 316.401 213.559 319.305C214.414 322.212 215.954 324.872 218.047 327.062C220.14 329.252 222.729 330.91 225.594 331.894Z" fill="url(#paint25_linear_25_390)"/>
<path d="M345.937 280.116C349.394 276.347 351.398 271.476 351.588 266.368C351.778 261.26 350.148 256.249 346.981 252.236C344.655 249.436 341.513 247.433 337.995 246.496C334.48 245.563 330.756 245.746 327.345 247.02C324.735 248.025 322.348 249.54 320.33 251.478C318.308 253.413 316.696 255.736 315.587 258.302C310.844 267.122 317.576 277.837 311.885 286.754C306.194 295.667 293.768 292.727 286.752 299.554C284.745 301.18 283.09 303.198 281.891 305.484C280.692 307.774 279.974 310.28 279.78 312.857C279.582 315.431 279.916 318.019 280.756 320.46C281.597 322.901 282.925 325.144 284.663 327.054C287.025 329.283 289.869 330.934 292.975 331.875C296.08 332.819 299.362 333.027 302.565 332.485C305.764 331.939 308.794 330.662 311.415 328.752C314.036 326.839 316.179 324.34 317.673 321.461C322.793 312.925 315.964 302.494 321.942 294.055C327.916 285.616 339.582 287.701 345.937 280.116Z" fill="url(#paint26_linear_25_390)"/>
<path d="M45.6546 287.584C30.3836 297.068 41.3864 326.937 59.3132 322.008C76.7658 314.23 63.961 280.947 45.6546 287.584Z" fill="url(#paint27_linear_25_390)"/>
<path d="M351.067 327.047C366.527 335.013 384.548 315.668 377.625 300.495C376.649 298.363 375.213 296.475 373.421 294.964C371.633 293.449 369.529 292.35 367.263 291.744C364.998 291.137 362.628 291.036 360.32 291.453C358.011 291.866 355.824 292.785 353.911 294.142C342.626 300.305 338.264 319.84 351.067 327.047Z" fill="url(#paint28_linear_25_390)"/>
<path d="M155.198 328.075C157.704 330.157 160.684 331.582 163.876 332.232C167.067 332.878 170.371 332.724 173.487 331.787C176.607 330.846 179.444 329.152 181.745 326.847C184.05 324.546 185.748 321.711 186.689 318.595C187.317 314.725 186.865 310.759 185.382 307.133C183.896 303.508 181.44 300.36 178.277 298.044C175.117 295.729 171.376 294.333 167.47 294.006C163.563 293.683 159.646 294.448 156.145 296.214C153.431 297.851 151.169 300.144 149.568 302.883C147.97 305.622 147.08 308.716 146.986 311.886C146.893 315.056 147.593 318.2 149.029 321.029C150.462 323.854 152.584 326.28 155.198 328.075Z" fill="url(#paint29_linear_25_390)"/>
<path d="M72.4034 332.362C62.9183 337.104 63.3926 351.329 69.7476 358.254C76.1026 365.174 89.2884 369.916 95.7367 361.003C104.461 347.158 87.7696 326.486 72.4034 332.362Z" fill="url(#paint30_linear_25_390)"/>
<path d="M383.335 332.244C372.144 336.132 363.796 351.212 371.48 361.83C382.01 372.642 399.934 361.83 401.549 348.175C402.206 345.741 402.167 343.174 401.438 340.759C400.706 338.346 399.313 336.189 397.413 334.527C395.518 332.869 393.191 331.774 390.703 331.372C388.215 330.966 385.662 331.271 383.335 332.244Z" fill="url(#paint31_linear_25_390)"/>
<path d="M188.787 401.963C194.097 395.516 186.414 387.171 190.589 380.246C196.657 371.714 209.557 376.168 216.293 368.3C217.909 366.667 219.155 364.71 219.952 362.56C220.752 360.406 221.079 358.109 220.917 355.823C220.756 353.532 220.11 351.303 219.015 349.286C217.923 347.268 216.411 345.506 214.584 344.117C212.265 342.056 209.518 340.538 206.538 339.673C203.558 338.811 200.423 338.621 197.361 339.12C194.298 339.619 191.386 340.796 188.837 342.562C186.288 344.329 184.163 346.64 182.619 349.332C177.879 357.204 187.362 368.3 179.301 374.557C177.179 376.272 174.601 377.328 171.887 377.593C169.173 377.859 166.44 377.324 164.028 376.053C161.615 374.779 159.626 372.83 158.312 370.439C156.998 368.049 156.412 365.328 156.631 362.61C157.321 358.884 157.019 355.044 155.748 351.475C154.481 347.907 152.291 344.734 149.404 342.282C146.517 339.831 143.035 338.18 139.308 337.505C135.581 336.826 131.739 337.146 128.177 338.427C118.692 342.789 119.733 354.455 122.199 362.894C124.666 371.333 115.277 374.463 109.015 374.463C105.737 374.356 102.546 375.519 100.108 377.712C97.6663 379.902 96.1691 382.953 95.9249 386.223C94.8837 402.344 118.882 413.342 129.409 400.352C135.006 392.763 124.759 383.186 131.114 376.168C139.559 367.349 154.922 377.97 153.12 388.973C149.705 407.463 178.637 416.282 188.787 401.963Z" fill="url(#paint32_linear_25_390)"/>
<path d="M347.464 370.952C340.728 363.554 350.214 353.693 345.662 345.538C343.87 341.858 340.743 339.008 336.915 337.562C333.088 336.115 328.855 336.187 325.078 337.763C313.886 340.986 305.158 355.208 312.368 366.21C317.491 374.269 328.018 370.762 335.131 375.694C342.814 382.995 331.056 393.807 338.168 401.486C350.404 414.954 377.437 398.546 369.563 381.384C365.391 371.807 354.009 376.261 347.464 370.952Z" fill="url(#paint33_linear_25_390)"/>
<path d="M285.528 356.72C286.666 342.777 269.213 335.002 257.925 340.599C255.477 341.403 253.243 342.749 251.384 344.529C249.524 346.313 248.084 348.489 247.176 350.897C246.267 353.306 245.908 355.89 246.127 358.457C246.346 361.023 247.136 363.507 248.439 365.729C257.642 380.142 284.674 374.452 285.528 356.72Z" fill="url(#paint34_linear_25_390)"/>
<path d="M253.959 409.623C248.458 404.691 253.294 397.576 252.156 391.603C251.043 388.997 249.399 386.646 247.331 384.704C245.266 382.762 242.818 381.265 240.146 380.314C237.475 379.363 234.635 378.972 231.806 379.169C228.977 379.363 226.216 380.145 223.702 381.456C221.742 382.184 219.975 383.358 218.543 384.88C217.107 386.406 216.047 388.24 215.441 390.239C214.834 392.242 214.701 394.357 215.046 396.421C215.394 398.481 216.213 400.437 217.441 402.132C223.702 411.045 236.412 406.967 243.999 413.794C249.216 419.391 240.872 428.304 248.268 432.762C257.754 440.063 279.662 438.164 280.707 423.278C277.483 411.422 262.4 415.122 253.959 409.623Z" fill="url(#paint35_linear_25_390)"/>
<path d="M286.842 380.899C284.738 381.566 282.806 382.694 281.187 384.194C279.568 385.694 278.301 387.536 277.478 389.582C276.653 391.632 276.29 393.836 276.419 396.04C276.545 398.244 277.155 400.39 278.211 402.332C280.724 404.885 283.844 406.755 287.284 407.763C290.72 408.772 294.357 408.891 297.854 408.101C301.347 407.315 304.582 405.649 307.254 403.262C309.925 400.875 311.943 397.845 313.117 394.46C315.106 380.708 297.085 374.926 286.842 380.899Z" fill="url(#paint36_linear_25_390)"/>
<path d="M193.813 415.341C191.816 415.708 189.989 416.705 188.599 418.188C187.21 419.671 186.334 421.562 186.1 423.58C185.867 425.597 186.287 427.636 187.3 429.398C188.312 431.157 189.863 432.546 191.727 433.361C201.212 438.954 219.33 439.144 222.27 426.437C220.845 413.823 203.582 410.6 193.813 415.341Z" fill="url(#paint37_linear_25_390)"/>
</g>
<defs>
<filter id="filter0_d_25_390" x="0.5" y="0" width="466" height="476.5" filterUnits="userSpaceOnUse" color-interpolation-filters="sRGB">
<feFlood flood-opacity="0" result="BackgroundImageFix"/>
<feColorMatrix in="SourceAlpha" type="matrix" values="0 0 0 0 0 0 0 0 0 0 0 0 0 0 0 0 0 0 127 0" result="hardAlpha"/>
<feOffset dy="21"/>
<feGaussianBlur stdDeviation="9.25"/>
<feComposite in2="hardAlpha" operator="out"/>
<feColorMatrix type="matrix" values="0 0 0 0 0.00368887 0 0 0 0 0.0432902 0 0 0 0 0.138333 0 0 0 1 0"/>
<feBlend mode="normal" in2="BackgroundImageFix" result="effect1_dropShadow_25_390"/>
<feBlend mode="normal" in="SourceGraphic" in2="effect1_dropShadow_25_390" result="shape"/>
</filter>
<linearGradient id="paint0_linear_25_390" x1="233.5" y1="0" x2="233.5" y2="437" gradientUnits="userSpaceOnUse">
<stop stop-color="#041131"/>
<stop offset="1" stop-color="#0C3597"/>
</linearGradient>
<linearGradient id="paint1_linear_25_390" x1="233.5" y1="0" x2="233.5" y2="437" gradientUnits="userSpaceOnUse">
<stop stop-color="#041131"/>
<stop offset="1" stop-color="#0C3597"/>
</linearGradient>
<linearGradient id="paint2_linear_25_390" x1="233.5" y1="0" x2="233.5" y2="437" gradientUnits="userSpaceOnUse">
<stop stop-color="#041131"/>
<stop offset="1" stop-color="#0C3597"/>
</linearGradient>
<linearGradient id="paint3_linear_25_390" x1="233.5" y1="0" x2="233.5" y2="437" gradientUnits="userSpaceOnUse">
<stop stop-color="#041131"/>
<stop offset="1" stop-color="#0C3597"/>
</linearGradient>
<linearGradient id="paint4_linear_25_390" x1="233.5" y1="0" x2="233.5" y2="437" gradientUnits="userSpaceOnUse">
<stop stop-color="#041131"/>
<stop offset="1" stop-color="#0C3597"/>
</linearGradient>
<linearGradient id="paint5_linear_25_390" x1="233.5" y1="0" x2="233.5" y2="437" gradientUnits="userSpaceOnUse">
<stop stop-color="#041131"/>
<stop offset="1" stop-color="#0C3597"/>
</linearGradient>
<linearGradient id="paint6_linear_25_390" x1="233.5" y1="0" x2="233.5" y2="437" gradientUnits="userSpaceOnUse">
<stop stop-color="#041131"/>
<stop offset="1" stop-color="#0C3597"/>
</linearGradient>
<linearGradient id="paint7_linear_25_390" x1="233.5" y1="0" x2="233.5" y2="437" gradientUnits="userSpaceOnUse">
<stop stop-color="#041131"/>
<stop offset="1" stop-color="#0C3597"/>
</linearGradient>
<linearGradient id="paint8_linear_25_390" x1="233.5" y1="0" x2="233.5" y2="437" gradientUnits="userSpaceOnUse">
<stop stop-color="#041131"/>
<stop offset="1" stop-color="#0C3597"/>
</linearGradient>
<linearGradient id="paint9_linear_25_390" x1="233.5" y1="0" x2="233.5" y2="437" gradientUnits="userSpaceOnUse">
<stop stop-color="#041131"/>
<stop offset="1" stop-color="#0C3597"/>
</linearGradient>
<linearGradient id="paint10_linear_25_390" x1="233.5" y1="0" x2="233.5" y2="437" gradientUnits="userSpaceOnUse">
<stop stop-color="#041131"/>
<stop offset="1" stop-color="#0C3597"/>
</linearGradient>
<linearGradient id="paint11_linear_25_390" x1="233.5" y1="0" x2="233.5" y2="437" gradientUnits="userSpaceOnUse">
<stop stop-color="#041131"/>
<stop offset="1" stop-color="#0C3597"/>
</linearGradient>
<linearGradient id="paint12_linear_25_390" x1="233.5" y1="0" x2="233.5" y2="437" gradientUnits="userSpaceOnUse">
<stop stop-color="#041131"/>
<stop offset="1" stop-color="#0C3597"/>
</linearGradient>
<linearGradient id="paint13_linear_25_390" x1="233.5" y1="0" x2="233.5" y2="437" gradientUnits="userSpaceOnUse">
<stop stop-color="#041131"/>
<stop offset="1" stop-color="#0C3597"/>
</linearGradient>
<linearGradient id="paint14_linear_25_390" x1="233.5" y1="0" x2="233.5" y2="437" gradientUnits="userSpaceOnUse">
<stop stop-color="#041131"/>
<stop offset="1" stop-color="#0C3597"/>
</linearGradient>
<linearGradient id="paint15_linear_25_390" x1="233.5" y1="0" x2="233.5" y2="437" gradientUnits="userSpaceOnUse">
<stop stop-color="#041131"/>
<stop offset="1" stop-color="#0C3597"/>
</linearGradient>
<linearGradient id="paint16_linear_25_390" x1="233.5" y1="0" x2="233.5" y2="437" gradientUnits="userSpaceOnUse">
<stop stop-color="#041131"/>
<stop offset="1" stop-color="#0C3597"/>
</linearGradient>
<linearGradient id="paint17_linear_25_390" x1="233.5" y1="0" x2="233.5" y2="437" gradientUnits="userSpaceOnUse">
<stop stop-color="#041131"/>
<stop offset="1" stop-color="#0C3597"/>
</linearGradient>
<linearGradient id="paint18_linear_25_390" x1="233.5" y1="0" x2="233.5" y2="437" gradientUnits="userSpaceOnUse">
<stop stop-color="#041131"/>
<stop offset="1" stop-color="#0C3597"/>
</linearGradient>
<linearGradient id="paint19_linear_25_390" x1="233.5" y1="0" x2="233.5" y2="437" gradientUnits="userSpaceOnUse">
<stop stop-color="#041131"/>
<stop offset="1" stop-color="#0C3597"/>
</linearGradient>
<linearGradient id="paint20_linear_25_390" x1="233.5" y1="0" x2="233.5" y2="437" gradientUnits="userSpaceOnUse">
<stop stop-color="#041131"/>
<stop offset="1" stop-color="#0C3597"/>
</linearGradient>
<linearGradient id="paint21_linear_25_390" x1="233.5" y1="0" x2="233.5" y2="437" gradientUnits="userSpaceOnUse">
<stop stop-color="#041131"/>
<stop offset="1" stop-color="#0C3597"/>
</linearGradient>
<linearGradient id="paint22_linear_25_390" x1="233.5" y1="0" x2="233.5" y2="437" gradientUnits="userSpaceOnUse">
<stop stop-color="#041131"/>
<stop offset="1" stop-color="#0C3597"/>
</linearGradient>
<linearGradient id="paint23_linear_25_390" x1="233.5" y1="0" x2="233.5" y2="437" gradientUnits="userSpaceOnUse">
<stop stop-color="#041131"/>
<stop offset="1" stop-color="#0C3597"/>
</linearGradient>
<linearGradient id="paint24_linear_25_390" x1="233.5" y1="0" x2="233.5" y2="437" gradientUnits="userSpaceOnUse">
<stop stop-color="#041131"/>
<stop offset="1" stop-color="#0C3597"/>
</linearGradient>
<linearGradient id="paint25_linear_25_390" x1="233.5" y1="0" x2="233.5" y2="437" gradientUnits="userSpaceOnUse">
<stop stop-color="#041131"/>
<stop offset="1" stop-color="#0C3597"/>
</linearGradient>
<linearGradient id="paint26_linear_25_390" x1="233.5" y1="0" x2="233.5" y2="437" gradientUnits="userSpaceOnUse">
<stop stop-color="#041131"/>
<stop offset="1" stop-color="#0C3597"/>
</linearGradient>
<linearGradient id="paint27_linear_25_390" x1="233.5" y1="0" x2="233.5" y2="437" gradientUnits="userSpaceOnUse">
<stop stop-color="#041131"/>
<stop offset="1" stop-color="#0C3597"/>
</linearGradient>
<linearGradient id="paint28_linear_25_390" x1="233.5" y1="0" x2="233.5" y2="437" gradientUnits="userSpaceOnUse">
<stop stop-color="#041131"/>
<stop offset="1" stop-color="#0C3597"/>
</linearGradient>
<linearGradient id="paint29_linear_25_390" x1="233.5" y1="0" x2="233.5" y2="437" gradientUnits="userSpaceOnUse">
<stop stop-color="#041131"/>
<stop offset="1" stop-color="#0C3597"/>
</linearGradient>
<linearGradient id="paint30_linear_25_390" x1="233.5" y1="0" x2="233.5" y2="437" gradientUnits="userSpaceOnUse">
<stop stop-color="#041131"/>
<stop offset="1" stop-color="#0C3597"/>
</linearGradient>
<linearGradient id="paint31_linear_25_390" x1="233.5" y1="0" x2="233.5" y2="437" gradientUnits="userSpaceOnUse">
<stop stop-color="#041131"/>
<stop offset="1" stop-color="#0C3597"/>
</linearGradient>
<linearGradient id="paint32_linear_25_390" x1="233.5" y1="0" x2="233.5" y2="437" gradientUnits="userSpaceOnUse">
<stop stop-color="#041131"/>
<stop offset="1" stop-color="#0C3597"/>
</linearGradient>
<linearGradient id="paint33_linear_25_390" x1="233.5" y1="0" x2="233.5" y2="437" gradientUnits="userSpaceOnUse">
<stop stop-color="#041131"/>
<stop offset="1" stop-color="#0C3597"/>
</linearGradient>
<linearGradient id="paint34_linear_25_390" x1="233.5" y1="0" x2="233.5" y2="437" gradientUnits="userSpaceOnUse">
<stop stop-color="#041131"/>
<stop offset="1" stop-color="#0C3597"/>
</linearGradient>
<linearGradient id="paint35_linear_25_390" x1="233.5" y1="0" x2="233.5" y2="437" gradientUnits="userSpaceOnUse">
<stop stop-color="#041131"/>
<stop offset="1" stop-color="#0C3597"/>
</linearGradient>
<linearGradient id="paint36_linear_25_390" x1="233.5" y1="0" x2="233.5" y2="437" gradientUnits="userSpaceOnUse">
<stop stop-color="#041131"/>
<stop offset="1" stop-color="#0C3597"/>
</linearGradient>
<linearGradient id="paint37_linear_25_390" x1="233.5" y1="0" x2="233.5" y2="437" gradientUnits="userSpaceOnUse">
<stop stop-color="#041131"/>
<stop offset="1" stop-color="#0C3597"/>
</linearGradient>
</defs>
</svg>
