<svg width="329" height="336" viewBox="0 0 329 336" fill="none" xmlns="http://www.w3.org/2000/svg">
<g filter="url(#filter0_d_25_391)">
<path d="M148.326 17.9059C153.986 20.2182 151.222 26.4475 151.156 30.7511C153.986 40.5788 168.336 42.2492 174.963 35.4412C175.844 34.5076 176.519 33.3964 176.943 32.1856C177.367 30.9723 177.53 29.6837 177.42 28.4047C177.311 27.1258 176.933 25.8834 176.31 24.7601C175.686 23.6368 174.831 22.6593 173.803 21.8886C168.979 17.7114 160.937 20.1526 156.948 15.015C155.659 11.9952 156.948 8.59125 156.948 5.63709C151.736 -2.45681 136.1 -1.81443 132.498 7.4339C132.306 15.9779 142.277 15.9778 148.326 17.9059Z" fill="url(#paint0_linear_25_391)"/>
<path d="M196.38 7.63595C193.743 -0.585605 182.033 -1.228 175.34 2.17645C174.352 2.70504 173.504 3.46609 172.876 4.39489C172.25 5.32369 171.858 6.39349 171.738 7.50707C173.475 19.2629 195.801 20.0337 196.38 7.63595Z" fill="url(#paint1_linear_25_391)"/>
<path d="M193.626 31.132C196.777 42.3724 217.045 43.6586 219.361 31.132C219.749 21.3043 207.072 16.6165 199.223 20.3414C198.136 20.6697 197.128 21.2119 196.256 21.9364C195.382 22.6586 194.666 23.5509 194.142 24.5575C193.621 25.5617 193.307 26.6631 193.217 27.7913C193.129 28.9219 193.268 30.0573 193.626 31.132Z" fill="url(#paint2_linear_25_391)"/>
<path d="M256.543 38.397C257.167 36.3206 257.252 34.1202 256.794 32C256.334 29.8823 255.347 27.9128 253.92 26.2789C252.495 24.645 250.679 23.3953 248.64 22.6513C246.602 21.9048 244.407 21.6884 242.259 22.0167C241.287 21.9194 240.306 22.0215 239.373 22.3157C238.443 22.6099 237.581 23.0889 236.84 23.726C236.1 24.363 235.496 25.1435 235.067 26.0188C234.639 26.8965 234.395 27.8521 234.346 28.8246C233.19 39.6808 249.982 48.0959 256.543 38.397Z" fill="url(#paint3_linear_25_391)"/>
<path d="M70.5431 64.986C75.0462 59.525 70.5431 51.2388 75.6259 46.1645C80.2581 42.1186 87.2064 42.3739 91.7095 37.9439C93.7163 36.2954 95.0023 33.9369 95.3043 31.3621C95.6038 28.7872 94.8927 26.1954 93.3169 24.1335C85.4042 16.4892 68.999 25.1596 71.7632 35.8869C71.7949 39.004 70.6892 42.0262 68.6532 44.3895C66.6171 46.7529 63.7896 48.2968 60.698 48.7345C58.5853 49.3156 56.6447 50.3975 55.0425 51.8904C53.4399 53.3833 52.2232 55.2409 51.4962 57.3052C50.7692 59.367 50.5535 61.5771 50.8674 63.7411C51.1813 65.9075 52.0157 67.9645 53.2992 69.7369C54.7285 70.6147 56.3237 71.1909 57.985 71.4243C59.6464 71.6602 61.3388 71.5532 62.9562 71.1058C64.5738 70.6609 66.0814 69.8877 67.3867 68.8325C68.6921 67.7797 69.7662 66.4716 70.5431 64.986Z" fill="url(#paint4_linear_25_391)"/>
<path d="M90.7986 49.6991C89.7319 50.7397 88.8819 51.9846 88.3023 53.3583C87.7251 54.7321 87.4255 56.2055 87.4255 57.696C87.4255 59.1864 87.7251 60.6623 88.3023 62.036C88.8819 63.4073 89.7319 64.6522 90.7986 65.6929C94.2106 69.0968 100.065 67.0423 103.667 70.6383C105.163 72.102 106.208 73.9645 106.675 76.002C107.143 78.0395 107.014 80.1694 106.305 82.1364C105.94 84.1934 106.083 86.3111 106.724 88.3C107.362 90.2889 108.48 92.093 109.975 93.5567C111.471 95.018 113.302 96.0927 115.309 96.6884C117.316 97.2841 119.437 97.3838 121.49 96.9753C130.884 95.6891 137.189 82.9072 130.367 75.4574C126.315 69.6755 117.501 72.5008 113.512 66.5925C109.522 60.6842 113.512 54.839 112.352 48.9283C112.352 41.284 121.04 39.5504 127.023 38.8428C127.023 38.8428 135.837 33.8974 135.579 29.0808C136.48 21.6285 127.537 18.0324 121.361 19.253C119.352 19.4743 117.418 20.1405 115.701 21.2054C113.986 22.2704 112.53 23.7074 111.444 25.4093C110.358 27.1089 109.668 29.0321 109.425 31.0356C109.181 33.0391 109.391 35.0693 110.036 36.9804C107.014 45.5876 95.6256 43.1464 90.7986 49.6991Z" fill="url(#paint5_linear_25_391)"/>
<path d="M137.837 43.9832C135.998 44.4646 134.311 45.3934 132.922 46.6869C131.534 47.9804 130.489 49.5973 129.885 51.3941C129.279 53.1909 129.128 55.1093 129.449 56.9766C129.771 58.8464 130.553 60.6043 131.724 62.0972C138.609 70.7675 155.465 66.143 155.915 54.7106C156.366 45.6536 145.363 41.0923 137.837 43.9832Z" fill="url(#paint6_linear_25_391)"/>
<path d="M199.205 57.9909C201.779 47.9711 189.748 40.5845 180.934 43.8596C179.239 44.2778 177.669 45.0972 176.358 46.2472C175.046 47.3997 174.032 48.8488 173.402 50.4754C172.771 52.102 172.54 53.8551 172.732 55.5887C172.922 57.3198 173.528 58.9829 174.5 60.432C180.226 69.2945 196.504 68.5894 199.205 57.9909Z" fill="url(#paint7_linear_25_391)"/>
<path d="M217.166 62.547C215.622 73.4664 201.146 68.6498 197.159 77.4491C196.282 79.258 195.814 81.2372 195.785 83.248C195.756 85.2563 196.165 87.2476 196.986 89.0833C197.807 90.9191 199.02 92.553 200.537 93.8708C202.056 95.1886 203.844 96.1611 205.78 96.7179C207.424 97.3185 209.173 97.5762 210.922 97.4765C212.67 97.3769 214.38 96.9222 215.946 96.1417C217.512 95.3588 218.9 94.2671 220.03 92.9298C221.158 91.595 222 90.0413 222.507 88.3685C224.438 83.4862 219.933 78.1566 223.023 73.4664C224.158 71.7207 225.727 70.2934 227.573 69.3258C229.421 68.3581 231.489 67.8815 233.574 67.9423C236.06 67.4754 238.262 66.0434 239.696 63.9621C241.131 61.8808 241.681 59.3157 241.231 56.8308C240.897 54.7616 240.113 52.7898 238.934 51.0562C237.753 49.3226 236.206 47.8686 234.404 46.7963C232.599 45.7265 230.583 45.0628 228.493 44.8537C226.404 44.6446 224.295 44.895 222.315 45.5904C214.723 48.0947 216.652 56.573 217.166 62.547Z" fill="url(#paint8_linear_25_391)"/>
<path d="M274.867 70.4491C285.225 61.9076 271.715 43.0861 260.198 49.7019C248.939 57.7961 263.542 77.3859 274.867 70.4491Z" fill="url(#paint9_linear_25_391)"/>
<path d="M160.618 70.9021C158.521 71.3008 156.556 72.2126 154.899 73.5596C153.246 74.9042 151.95 76.6377 151.134 78.6072C150.316 80.5766 150.002 82.7163 150.221 84.8364C150.44 86.9566 151.183 88.9893 152.384 90.7521C156.307 97.9442 166.151 95.3109 171.234 100.964C172.822 104.38 173.591 108.12 173.487 111.883C172.327 117.536 175.803 124.023 171.943 129.035C168.082 134.043 159.074 132.694 154.507 137.384C152.895 138.806 151.621 140.574 150.784 142.551C149.946 144.53 149.561 146.669 149.658 148.816C149.756 150.963 150.335 153.059 151.351 154.953C152.367 156.847 153.794 158.491 155.53 159.76C157.264 161.032 159.264 161.9 161.378 162.299C163.492 162.697 165.669 162.62 167.749 162.068C169.829 161.518 171.76 160.509 173.397 159.116C175.036 157.723 176.341 155.982 177.218 154.02C180.627 147.596 175.416 140.275 179.342 134.172C183.265 128.069 192.788 130.705 197.678 125.181C199.035 123.754 200.075 122.059 200.727 120.204C201.38 118.348 201.633 116.377 201.47 114.417C201.307 112.457 200.73 110.556 199.775 108.834C198.823 107.113 197.515 105.613 195.942 104.434C192.208 101.477 187.062 101.606 183.073 99.5513C181.073 98.1411 179.553 96.1546 178.713 93.8594C177.875 91.5641 177.756 89.0695 178.377 86.7038C178.835 84.3526 178.672 81.9236 177.905 79.6527C177.137 77.3842 175.793 75.3515 174.001 73.759C172.211 72.164 170.036 71.0625 167.688 70.5617C165.343 70.0632 162.905 70.1799 160.618 70.9021Z" fill="url(#paint10_linear_25_391)"/>
<path d="M253.377 99.4695C254.787 99.4039 256.168 99.0586 257.444 98.4581C258.718 97.8575 259.862 97.0089 260.807 95.9634C261.752 94.9179 262.481 93.6974 262.951 92.3698C263.421 91.0423 263.62 89.6345 263.542 88.2291C263.542 79.0433 253.121 70.244 244.241 74.9318C232.982 81.4844 241.217 100.432 253.377 99.4695Z" fill="url(#paint11_linear_25_391)"/>
<path d="M289.283 103.532H289.799C297.841 109.314 290.505 119.913 295.396 127.17C297.005 130.961 301.83 134.236 305.819 131.153C307.875 128.885 309.229 126.069 309.721 123.049C310.213 120.029 309.818 116.932 308.586 114.131C307.042 107.707 297.327 107.707 296.747 100.641C297.132 94.22 297.778 86.1258 292.566 80.9883C291.64 79.8334 290.432 78.9362 289.061 78.377C287.69 77.8202 286.197 77.6232 284.728 77.8031C283.257 77.9831 281.859 78.535 280.664 79.4079C279.468 80.2807 278.516 81.4429 277.897 82.7851C277.21 84.8931 276.964 87.1178 277.171 89.3256C277.378 91.5308 278.036 93.6705 279.103 95.6132C280.169 97.5583 281.623 99.2627 283.374 100.624C285.125 101.986 287.135 102.975 289.283 103.532Z" fill="url(#paint12_linear_25_391)"/>
<path d="M24.7973 132.037C33.097 132.873 36.1854 122.338 34.9631 115.788C33.4833 110.648 35.9926 102.94 42.1048 102.427C48.5385 103.648 48.5385 111.034 47.3804 115.914C45.9007 122.725 50.4045 131.461 58.1894 130.753C65.9743 130.046 70.4775 119.447 68.5486 111.484C66.6173 103.519 74.2743 98.3158 81.4151 97.6739H81.9314C83.7507 96.7475 85.3532 95.4467 86.6318 93.859C87.9104 92.2689 88.8359 90.4259 89.3449 88.4516C89.8563 86.4773 89.9416 84.4179 89.5957 82.4095C89.2475 80.3988 88.4779 78.4877 87.3356 76.7978C86.04 75.5797 84.4959 74.6606 82.8081 74.0965C81.1204 73.5349 79.3303 73.3452 77.5622 73.5397C75.7941 73.7343 74.0892 74.3105 72.5671 75.2296C71.0449 76.1462 69.7395 77.3838 68.741 78.8524C64.4303 83.7346 65.9743 90.6082 65.5238 96.5822C64.9198 98.2987 63.9748 99.8743 62.7481 101.221C61.5214 102.568 60.037 103.655 58.3826 104.419C56.8984 104.175 55.4871 103.606 54.2516 102.751C53.0161 101.895 51.9873 100.774 51.2409 99.4707C50.34 93.0493 54.5221 86.6256 50.34 80.9093C49.4557 79.876 48.3473 79.0615 47.0994 78.5217C45.8512 77.9819 44.4964 77.7339 43.1379 77.7947C41.7792 77.8579 40.4528 78.2275 39.2592 78.8791C38.0656 79.5283 37.0364 80.4425 36.2497 81.5512C31.1027 86.7544 32.8399 94.3963 32.5181 100.82C32.1937 102.291 31.5306 103.667 30.5812 104.837C29.6322 106.009 28.4227 106.942 27.0493 107.565C17.527 111.098 16.0472 127.412 24.7973 132.037Z" fill="url(#paint13_linear_25_391)"/>
<path d="M90.9944 128.374C101.031 133.962 112.933 121.951 109.331 111.802C108.907 110.088 108.118 108.485 107.02 107.104C105.921 105.721 104.54 104.59 102.967 103.786C101.394 102.983 99.6646 102.526 97.8989 102.446C96.1332 102.366 94.3699 102.665 92.7309 103.324C90.3807 104.384 88.3617 106.061 86.8907 108.174C85.4173 110.289 84.5478 112.762 84.3676 115.33C84.1898 117.9 84.7134 120.467 85.88 122.765C87.0441 125.06 88.8123 126.998 90.9944 128.374Z" fill="url(#paint14_linear_25_391)"/>
<path d="M261.43 139.237C257.892 133.521 249.075 135.446 245.987 129.151C241.935 123.501 246.567 116.306 243.028 110.332C241.754 107.266 239.341 104.811 236.294 103.483C233.247 102.153 229.806 102.053 226.686 103.203C224.718 104.142 223.001 105.53 221.669 107.254C220.339 108.978 219.433 110.991 219.027 113.131C218.62 115.268 218.722 117.473 219.326 119.564C219.93 121.655 221.019 123.576 222.505 125.171C226.365 130.759 234.728 128.83 238.459 134.612C243.608 141.036 237.624 149.578 242.319 156.067C243.121 157.541 244.239 158.822 245.595 159.811C246.952 160.801 248.513 161.477 250.164 161.791C251.813 162.104 253.513 162.048 255.14 161.625C256.766 161.2 258.276 160.422 259.562 159.342C262.346 156.835 264.08 153.378 264.426 149.653C264.772 145.928 263.703 142.21 261.43 139.237Z" fill="url(#paint15_linear_25_391)"/>
<path d="M273.08 130.577C287.106 127.491 282.474 102.056 267.997 104.882C254.486 108.543 258.989 132.631 273.08 130.577Z" fill="url(#paint16_linear_25_391)"/>
<path d="M39.1288 135.637C27.8695 139.557 29.4782 161.33 42.4104 160.946C55.4069 158.118 53.1551 133.517 39.1288 135.637Z" fill="url(#paint17_linear_25_391)"/>
<path d="M197.662 153.749C198.339 155.449 199.349 156.993 200.635 158.294C201.921 159.594 203.458 160.623 205.151 161.318C206.843 162.014 208.66 162.361 210.489 162.342C212.321 162.32 214.128 161.933 215.806 161.202C217.618 160.375 219.235 159.181 220.555 157.693C221.877 156.208 222.873 154.462 223.477 152.57C224.084 150.676 224.286 148.677 224.074 146.701C223.86 144.726 223.236 142.815 222.24 141.096C221.344 139.46 220.119 138.023 218.643 136.88C217.17 135.735 215.475 134.904 213.665 134.442C211.855 133.977 209.968 133.89 208.124 134.184C206.278 134.478 204.513 135.147 202.937 136.151C200.102 137.974 198.012 140.751 197.046 143.978C196.076 147.204 196.295 150.669 197.662 153.749Z" fill="url(#paint18_linear_25_391)"/>
<path d="M287.04 160.961C301.453 160.961 299.909 132.954 285.432 135.781C274.558 139.569 275.393 158.97 287.04 160.961Z" fill="url(#paint19_linear_25_391)"/>
<path d="M105.73 190.815C107.481 189.047 108.738 186.852 109.374 184.449C110.009 182.045 110 179.516 109.349 177.114C108.697 174.714 107.425 172.528 105.662 170.773C103.896 169.017 101.702 167.755 99.2958 167.113C93.6334 166.279 87.7153 162.873 87.5205 156.515C88.9842 151.224 88.5506 145.591 86.2979 140.584C85.5672 139.25 84.576 138.073 83.3851 137.122C82.1941 136.171 80.8254 135.466 79.3593 135.048C77.8932 134.63 76.3564 134.506 74.8415 134.686C73.3291 134.863 71.863 135.34 70.5357 136.089C68.7529 137.353 67.2649 138.984 66.1762 140.879C65.0876 142.77 64.4203 144.876 64.2254 147.049C64.0306 149.223 64.3082 151.411 65.0437 153.468C65.7768 155.523 66.9483 157.395 68.4777 158.956C72.467 162.36 78.9647 161.46 82.182 166.085C86.6218 171.867 81.6023 179.445 84.8196 185.356C85.4917 187.394 86.6632 189.232 88.2292 190.7C89.7976 192.169 91.707 193.224 93.7869 193.766C95.8643 194.311 98.0465 194.323 100.134 193.808C102.221 193.292 104.145 192.264 105.73 190.815Z" fill="url(#paint20_linear_25_391)"/>
<path d="M152.433 189.855C153.872 187.997 154.824 185.809 155.199 183.489C155.574 181.17 155.363 178.794 154.583 176.577C153.801 174.362 152.479 172.376 150.73 170.8C148.984 169.227 146.87 168.113 144.583 167.566C138.984 166.73 132.165 164.225 131.714 157.738C132.494 152.307 132.494 146.79 131.714 141.358C131.654 139.802 131.907 138.248 132.455 136.792C133.005 135.333 133.841 134.001 134.915 132.868C135.986 131.737 137.275 130.833 138.704 130.205C140.131 129.578 141.671 129.242 143.232 129.218C146.529 128.771 149.566 127.183 151.812 124.73C154.057 122.276 155.37 119.113 155.521 115.794C155.582 113.9 155.258 112.016 154.569 110.251C153.877 108.488 152.837 106.881 151.507 105.531C150.18 104.179 148.59 103.112 146.834 102.392C145.08 101.673 143.198 101.315 141.3 101.342C137.62 101.49 134.14 103.061 131.598 105.721C129.052 108.381 127.642 111.923 127.662 115.602C127.662 120.29 129.269 125.877 125.731 129.797C122.192 133.714 114.15 133.009 109.71 137.312C106.907 139.78 105.158 143.225 104.822 146.941C104.489 150.658 105.592 154.361 107.908 157.289C112.414 162.747 120.777 160.821 125.151 166.667C130.813 173.09 124.574 181.632 129.462 188.056C130.636 189.972 132.245 191.584 134.162 192.758C136.076 193.932 138.246 194.635 140.487 194.81C142.73 194.988 144.98 194.628 147.058 193.767C149.133 192.906 150.976 191.564 152.433 189.855Z" fill="url(#paint21_linear_25_391)"/>
<path d="M23.3099 165.188C21.7868 166.764 20.6233 168.648 19.8993 170.715C19.1752 172.781 18.9081 174.979 19.116 177.158C19.3238 179.336 20.0018 181.444 21.1034 183.336C22.2049 185.23 23.7039 186.862 25.4974 188.121C40.3597 190.239 37.0784 159.793 23.3099 165.188Z" fill="url(#paint22_linear_25_391)"/>
<path d="M299.199 165.304C292.765 169.479 293.474 178.152 294.053 184.576C294.053 189.521 288.647 196.521 283.759 192.026C277.324 185.152 286.075 172.757 276.552 166.975C265.422 160.551 255.062 177.06 261.562 186.246C263.62 190.742 268.766 191.384 273.014 192.283C278.868 194.146 278.61 201.275 277.195 206.028C276.769 207.351 276.637 208.751 276.813 210.13C276.986 211.511 277.461 212.833 278.203 214.01C278.946 215.185 279.938 216.184 281.109 216.935C282.28 217.689 283.6 218.175 284.981 218.363C286.801 218.066 288.544 217.412 290.11 216.442C291.676 215.469 293.035 214.195 294.105 212.697C295.176 211.197 295.938 209.502 296.35 207.708C296.759 205.911 296.81 204.054 296.496 202.24C295.826 199.541 296.099 196.694 297.268 194.172C298.437 191.649 300.437 189.599 302.931 188.364C310.137 185.346 311.167 175.519 308.98 169.095C307.629 165.433 302.675 162.287 299.199 165.304Z" fill="url(#paint23_linear_25_391)"/>
<path d="M68.1515 216.19C69.0673 217.829 70.3434 219.241 71.8826 220.321C73.4218 221.398 75.1851 222.115 77.0409 222.419C78.8967 222.721 80.7988 222.602 82.601 222.069C84.4033 221.534 86.0642 220.6 87.4549 219.339C88.7189 217.457 89.5177 215.305 89.7831 213.056C90.0486 210.807 89.7734 208.526 88.9819 206.406C88.1879 204.283 86.902 202.379 85.2264 200.855C83.5508 199.328 81.5367 198.222 79.3473 197.626C77.3697 197.339 75.4822 196.612 73.8237 195.501C72.1651 194.39 70.7769 192.921 69.7613 191.202C67.1871 185.486 71.0473 179.062 67.9591 173.475C67.4793 171.809 66.6026 170.285 65.4043 169.03C64.2061 167.778 62.7215 166.832 61.0773 166.278C59.4331 165.721 57.6784 165.573 55.9638 165.84C54.249 166.11 52.6251 166.791 51.231 167.822C49.6736 169.439 48.5065 171.386 47.8192 173.521C47.1319 175.656 46.9425 177.92 47.2652 180.137C47.5881 182.357 48.4147 184.472 49.6818 186.322C50.949 188.175 52.6231 189.712 54.5766 190.818C58.437 192.168 63.0052 193.58 64.6786 197.692C67.1871 203.6 64.099 210.795 68.1515 216.19Z" fill="url(#paint24_linear_25_391)"/>
<path d="M159.137 224.807C161.405 225.84 163.911 226.236 166.388 225.959C168.864 225.68 171.22 224.736 173.202 223.226C175.182 221.716 176.716 219.696 177.639 217.384C178.56 215.074 178.838 212.555 178.438 210.097C177.924 208.548 177.751 206.907 177.936 205.285C178.124 203.663 178.66 202.1 179.51 200.707C180.362 199.313 181.507 198.12 182.866 197.213C184.225 196.306 185.766 195.705 187.381 195.452C191.212 195.304 194.841 193.699 197.52 190.961C200.201 188.226 201.731 184.569 201.794 180.742C201.75 178.413 201.122 176.132 199.968 174.107C198.813 172.084 197.169 170.38 195.184 169.154C193.202 167.926 190.942 167.216 188.611 167.085C186.283 166.956 183.957 167.411 181.848 168.41C178.324 170.044 175.559 172.962 174.127 176.568C171.875 182.349 176.122 188.965 172.518 194.424C168.014 200.848 157.915 198.151 153.217 204.701C151.943 206.313 151.076 208.205 150.686 210.218C150.297 212.234 150.394 214.313 150.974 216.28C151.553 218.249 152.598 220.051 154.018 221.534C155.438 223.017 157.194 224.14 159.137 224.807Z" fill="url(#paint25_linear_25_391)"/>
<path d="M240.768 189.736C243.113 187.183 244.472 183.883 244.602 180.423C244.731 176.963 243.625 173.569 241.477 170.851C239.899 168.954 237.768 167.598 235.381 166.963C232.997 166.331 230.471 166.455 228.157 167.318C226.387 167.999 224.767 169.025 223.399 170.338C222.027 171.648 220.934 173.221 220.181 174.96C216.964 180.934 221.531 188.192 217.67 194.231C213.81 200.268 205.381 198.277 200.622 202.902C199.261 204.003 198.138 205.37 197.325 206.918C196.511 208.47 196.024 210.167 195.893 211.912C195.759 213.656 195.985 215.409 196.555 217.062C197.125 218.715 198.026 220.235 199.205 221.529C200.807 223.038 202.736 224.157 204.843 224.794C206.95 225.433 209.176 225.574 211.348 225.207C213.518 224.838 215.573 223.972 217.351 222.679C219.129 221.383 220.583 219.69 221.596 217.74C225.069 211.959 220.437 204.893 224.492 199.177C228.545 193.46 236.457 194.873 240.768 189.736Z" fill="url(#paint26_linear_25_391)"/>
<path d="M37.0804 194.794C26.7217 201.217 34.1852 221.449 46.3453 218.111C58.1838 212.842 49.498 190.298 37.0804 194.794Z" fill="url(#paint27_linear_25_391)"/>
<path d="M244.248 221.524C254.735 226.919 266.959 213.817 262.263 203.539C261.601 202.095 260.627 200.816 259.411 199.792C258.199 198.766 256.771 198.022 255.235 197.611C253.698 197.2 252.09 197.132 250.524 197.414C248.958 197.694 247.475 198.316 246.177 199.235C238.523 203.41 235.564 216.642 244.248 221.524Z" fill="url(#paint28_linear_25_391)"/>
<path d="M111.386 222.22C113.086 223.63 115.107 224.596 117.272 225.036C119.437 225.473 121.678 225.369 123.792 224.734C125.908 224.097 127.832 222.95 129.393 221.389C130.957 219.83 132.109 217.909 132.747 215.799C133.173 213.178 132.866 210.491 131.861 208.035C130.852 205.58 129.186 203.447 127.041 201.879C124.898 200.311 122.36 199.365 119.71 199.144C117.06 198.925 114.403 199.443 112.029 200.639C110.188 201.748 108.653 203.301 107.567 205.157C106.483 207.012 105.879 209.108 105.816 211.255C105.753 213.401 106.228 215.531 107.202 217.447C108.173 219.361 109.613 221.004 111.386 222.22Z" fill="url(#paint29_linear_25_391)"/>
<path d="M55.2247 225.124C48.7908 228.336 49.1125 237.971 53.4232 242.662C57.734 247.349 66.6781 250.561 71.0522 244.524C76.9703 235.146 65.6479 221.144 55.2247 225.124Z" fill="url(#paint30_linear_25_391)"/>
<path d="M266.137 225.044C258.545 227.677 252.883 237.892 258.095 245.084C265.238 252.407 277.396 245.084 278.492 235.835C278.937 234.186 278.91 232.448 278.416 230.811C277.919 229.177 276.974 227.716 275.686 226.59C274.4 225.467 272.822 224.726 271.134 224.453C269.446 224.179 267.715 224.385 266.137 225.044Z" fill="url(#paint31_linear_25_391)"/>
<path d="M134.17 272.268C137.772 267.901 132.56 262.248 135.393 257.558C139.509 251.779 148.259 254.796 152.828 249.466C153.924 248.36 154.769 247.035 155.31 245.579C155.853 244.12 156.075 242.564 155.965 241.015C155.855 239.464 155.417 237.954 154.674 236.587C153.934 235.221 152.908 234.027 151.669 233.086C150.096 231.69 148.232 230.662 146.211 230.076C144.19 229.492 142.063 229.364 139.986 229.701C137.909 230.039 135.933 230.837 134.204 232.033C132.475 233.229 131.033 234.795 129.986 236.619C126.771 241.951 133.203 249.466 127.736 253.704C126.296 254.867 124.548 255.581 122.707 255.761C120.865 255.941 119.012 255.579 117.375 254.718C115.739 253.855 114.389 252.535 113.498 250.915C112.607 249.296 112.21 247.453 112.358 245.613C112.826 243.089 112.621 240.487 111.759 238.07C110.899 235.654 109.414 233.504 107.456 231.844C105.498 230.183 103.135 229.064 100.607 228.607C98.0793 228.148 95.4734 228.364 93.0574 229.232C86.623 232.186 87.3293 240.088 89.0024 245.805C90.6756 251.521 84.3069 253.641 80.0594 253.641C77.8359 253.568 75.6708 254.356 74.0171 255.841C72.361 257.325 71.3454 259.391 71.1798 261.606C70.4736 272.526 86.752 279.976 93.8928 271.176C97.6896 266.036 90.7389 259.549 95.0496 254.796C100.778 248.822 111.199 256.017 109.976 263.469C107.66 275.993 127.285 281.967 134.17 272.268Z" fill="url(#paint32_linear_25_391)"/>
<path d="M241.804 251.263C237.235 246.252 243.67 239.573 240.582 234.049C239.366 231.556 237.245 229.626 234.649 228.646C232.053 227.666 229.181 227.715 226.619 228.782C219.028 230.965 213.107 240.599 217.998 248.051C221.473 253.509 228.614 251.134 233.438 254.475C238.65 259.42 230.674 266.744 235.499 271.944C243.799 281.067 262.135 269.953 256.794 258.329C253.964 251.842 246.244 254.859 241.804 251.263Z" fill="url(#paint33_linear_25_391)"/>
<path d="M199.792 241.622C200.564 232.179 188.725 226.912 181.068 230.703C179.407 231.248 177.892 232.159 176.631 233.365C175.369 234.574 174.393 236.047 173.776 237.679C173.16 239.31 172.917 241.061 173.065 242.799C173.214 244.538 173.75 246.22 174.634 247.725C180.876 257.487 199.212 253.634 199.792 241.622Z" fill="url(#paint34_linear_25_391)"/>
<path d="M178.377 277.456C174.646 274.116 177.927 269.297 177.155 265.251C176.4 263.486 175.284 261.893 173.882 260.578C172.481 259.262 170.82 258.248 169.008 257.604C167.196 256.96 165.27 256.695 163.351 256.828C161.432 256.96 159.559 257.49 157.854 258.377C156.524 258.871 155.326 259.666 154.354 260.697C153.38 261.73 152.662 262.973 152.25 264.327C151.838 265.684 151.748 267.116 151.982 268.514C152.218 269.909 152.774 271.234 153.607 272.382C157.854 278.419 166.475 275.657 171.622 280.282C175.16 284.072 169.5 290.11 174.517 293.129C180.952 298.075 195.813 296.789 196.522 286.706C194.335 278.675 184.103 281.181 178.377 277.456Z" fill="url(#paint35_linear_25_391)"/>
<path d="M200.683 258C199.256 258.452 197.946 259.216 196.847 260.232C195.749 261.248 194.889 262.496 194.331 263.882C193.771 265.27 193.525 266.763 193.613 268.256C193.698 269.749 194.112 271.203 194.828 272.518C196.533 274.247 198.649 275.513 200.983 276.197C203.313 276.88 205.78 276.96 208.153 276.425C210.522 275.893 212.717 274.765 214.529 273.148C216.341 271.531 217.709 269.479 218.506 267.186C219.855 257.871 207.631 253.954 200.683 258Z" fill="url(#paint36_linear_25_391)"/>
<path d="M137.579 281.33C136.225 281.578 134.985 282.254 134.043 283.258C133.1 284.262 132.506 285.543 132.348 286.91C132.19 288.276 132.475 289.657 133.161 290.851C133.848 292.042 134.9 292.983 136.164 293.535C142.599 297.323 154.888 297.452 156.883 288.845C155.916 280.301 144.206 278.118 137.579 281.33Z" fill="url(#paint37_linear_25_391)"/>
</g>
<defs>
<filter id="filter0_d_25_391" x="0.5" y="0" width="328" height="335.5" filterUnits="userSpaceOnUse" color-interpolation-filters="sRGB">
<feFlood flood-opacity="0" result="BackgroundImageFix"/>
<feColorMatrix in="SourceAlpha" type="matrix" values="0 0 0 0 0 0 0 0 0 0 0 0 0 0 0 0 0 0 127 0" result="hardAlpha"/>
<feOffset dy="21"/>
<feGaussianBlur stdDeviation="9.25"/>
<feComposite in2="hardAlpha" operator="out"/>
<feColorMatrix type="matrix" values="0 0 0 0 0.00368887 0 0 0 0 0.0432902 0 0 0 0 0.138333 0 0 0 1 0"/>
<feBlend mode="normal" in2="BackgroundImageFix" result="effect1_dropShadow_25_391"/>
<feBlend mode="normal" in="SourceGraphic" in2="effect1_dropShadow_25_391" result="shape"/>
</filter>
<linearGradient id="paint0_linear_25_391" x1="164.5" y1="0" x2="164.5" y2="296" gradientUnits="userSpaceOnUse">
<stop stop-color="#041131"/>
<stop offset="1" stop-color="#0C3597"/>
</linearGradient>
<linearGradient id="paint1_linear_25_391" x1="164.5" y1="0" x2="164.5" y2="296" gradientUnits="userSpaceOnUse">
<stop stop-color="#041131"/>
<stop offset="1" stop-color="#0C3597"/>
</linearGradient>
<linearGradient id="paint2_linear_25_391" x1="164.5" y1="0" x2="164.5" y2="296" gradientUnits="userSpaceOnUse">
<stop stop-color="#041131"/>
<stop offset="1" stop-color="#0C3597"/>
</linearGradient>
<linearGradient id="paint3_linear_25_391" x1="164.5" y1="0" x2="164.5" y2="296" gradientUnits="userSpaceOnUse">
<stop stop-color="#041131"/>
<stop offset="1" stop-color="#0C3597"/>
</linearGradient>
<linearGradient id="paint4_linear_25_391" x1="164.5" y1="0" x2="164.5" y2="296" gradientUnits="userSpaceOnUse">
<stop stop-color="#041131"/>
<stop offset="1" stop-color="#0C3597"/>
</linearGradient>
<linearGradient id="paint5_linear_25_391" x1="164.5" y1="0" x2="164.5" y2="296" gradientUnits="userSpaceOnUse">
<stop stop-color="#041131"/>
<stop offset="1" stop-color="#0C3597"/>
</linearGradient>
<linearGradient id="paint6_linear_25_391" x1="164.5" y1="0" x2="164.5" y2="296" gradientUnits="userSpaceOnUse">
<stop stop-color="#041131"/>
<stop offset="1" stop-color="#0C3597"/>
</linearGradient>
<linearGradient id="paint7_linear_25_391" x1="164.5" y1="0" x2="164.5" y2="296" gradientUnits="userSpaceOnUse">
<stop stop-color="#041131"/>
<stop offset="1" stop-color="#0C3597"/>
</linearGradient>
<linearGradient id="paint8_linear_25_391" x1="164.5" y1="0" x2="164.5" y2="296" gradientUnits="userSpaceOnUse">
<stop stop-color="#041131"/>
<stop offset="1" stop-color="#0C3597"/>
</linearGradient>
<linearGradient id="paint9_linear_25_391" x1="164.5" y1="0" x2="164.5" y2="296" gradientUnits="userSpaceOnUse">
<stop stop-color="#041131"/>
<stop offset="1" stop-color="#0C3597"/>
</linearGradient>
<linearGradient id="paint10_linear_25_391" x1="164.5" y1="0" x2="164.5" y2="296" gradientUnits="userSpaceOnUse">
<stop stop-color="#041131"/>
<stop offset="1" stop-color="#0C3597"/>
</linearGradient>
<linearGradient id="paint11_linear_25_391" x1="164.5" y1="0" x2="164.5" y2="296" gradientUnits="userSpaceOnUse">
<stop stop-color="#041131"/>
<stop offset="1" stop-color="#0C3597"/>
</linearGradient>
<linearGradient id="paint12_linear_25_391" x1="164.5" y1="0" x2="164.5" y2="296" gradientUnits="userSpaceOnUse">
<stop stop-color="#041131"/>
<stop offset="1" stop-color="#0C3597"/>
</linearGradient>
<linearGradient id="paint13_linear_25_391" x1="164.5" y1="0" x2="164.5" y2="296" gradientUnits="userSpaceOnUse">
<stop stop-color="#041131"/>
<stop offset="1" stop-color="#0C3597"/>
</linearGradient>
<linearGradient id="paint14_linear_25_391" x1="164.5" y1="0" x2="164.5" y2="296" gradientUnits="userSpaceOnUse">
<stop stop-color="#041131"/>
<stop offset="1" stop-color="#0C3597"/>
</linearGradient>
<linearGradient id="paint15_linear_25_391" x1="164.5" y1="0" x2="164.5" y2="296" gradientUnits="userSpaceOnUse">
<stop stop-color="#041131"/>
<stop offset="1" stop-color="#0C3597"/>
</linearGradient>
<linearGradient id="paint16_linear_25_391" x1="164.5" y1="0" x2="164.5" y2="296" gradientUnits="userSpaceOnUse">
<stop stop-color="#041131"/>
<stop offset="1" stop-color="#0C3597"/>
</linearGradient>
<linearGradient id="paint17_linear_25_391" x1="164.5" y1="0" x2="164.5" y2="296" gradientUnits="userSpaceOnUse">
<stop stop-color="#041131"/>
<stop offset="1" stop-color="#0C3597"/>
</linearGradient>
<linearGradient id="paint18_linear_25_391" x1="164.5" y1="0" x2="164.5" y2="296" gradientUnits="userSpaceOnUse">
<stop stop-color="#041131"/>
<stop offset="1" stop-color="#0C3597"/>
</linearGradient>
<linearGradient id="paint19_linear_25_391" x1="164.5" y1="0" x2="164.5" y2="296" gradientUnits="userSpaceOnUse">
<stop stop-color="#041131"/>
<stop offset="1" stop-color="#0C3597"/>
</linearGradient>
<linearGradient id="paint20_linear_25_391" x1="164.5" y1="0" x2="164.5" y2="296" gradientUnits="userSpaceOnUse">
<stop stop-color="#041131"/>
<stop offset="1" stop-color="#0C3597"/>
</linearGradient>
<linearGradient id="paint21_linear_25_391" x1="164.5" y1="0" x2="164.5" y2="296" gradientUnits="userSpaceOnUse">
<stop stop-color="#041131"/>
<stop offset="1" stop-color="#0C3597"/>
</linearGradient>
<linearGradient id="paint22_linear_25_391" x1="164.5" y1="0" x2="164.5" y2="296" gradientUnits="userSpaceOnUse">
<stop stop-color="#041131"/>
<stop offset="1" stop-color="#0C3597"/>
</linearGradient>
<linearGradient id="paint23_linear_25_391" x1="164.5" y1="0" x2="164.5" y2="296" gradientUnits="userSpaceOnUse">
<stop stop-color="#041131"/>
<stop offset="1" stop-color="#0C3597"/>
</linearGradient>
<linearGradient id="paint24_linear_25_391" x1="164.5" y1="0" x2="164.5" y2="296" gradientUnits="userSpaceOnUse">
<stop stop-color="#041131"/>
<stop offset="1" stop-color="#0C3597"/>
</linearGradient>
<linearGradient id="paint25_linear_25_391" x1="164.5" y1="0" x2="164.5" y2="296" gradientUnits="userSpaceOnUse">
<stop stop-color="#041131"/>
<stop offset="1" stop-color="#0C3597"/>
</linearGradient>
<linearGradient id="paint26_linear_25_391" x1="164.5" y1="0" x2="164.5" y2="296" gradientUnits="userSpaceOnUse">
<stop stop-color="#041131"/>
<stop offset="1" stop-color="#0C3597"/>
</linearGradient>
<linearGradient id="paint27_linear_25_391" x1="164.5" y1="0" x2="164.5" y2="296" gradientUnits="userSpaceOnUse">
<stop stop-color="#041131"/>
<stop offset="1" stop-color="#0C3597"/>
</linearGradient>
<linearGradient id="paint28_linear_25_391" x1="164.5" y1="0" x2="164.5" y2="296" gradientUnits="userSpaceOnUse">
<stop stop-color="#041131"/>
<stop offset="1" stop-color="#0C3597"/>
</linearGradient>
<linearGradient id="paint29_linear_25_391" x1="164.5" y1="0" x2="164.5" y2="296" gradientUnits="userSpaceOnUse">
<stop stop-color="#041131"/>
<stop offset="1" stop-color="#0C3597"/>
</linearGradient>
<linearGradient id="paint30_linear_25_391" x1="164.5" y1="0" x2="164.5" y2="296" gradientUnits="userSpaceOnUse">
<stop stop-color="#041131"/>
<stop offset="1" stop-color="#0C3597"/>
</linearGradient>
<linearGradient id="paint31_linear_25_391" x1="164.5" y1="0" x2="164.5" y2="296" gradientUnits="userSpaceOnUse">
<stop stop-color="#041131"/>
<stop offset="1" stop-color="#0C3597"/>
</linearGradient>
<linearGradient id="paint32_linear_25_391" x1="164.5" y1="0" x2="164.5" y2="296" gradientUnits="userSpaceOnUse">
<stop stop-color="#041131"/>
<stop offset="1" stop-color="#0C3597"/>
</linearGradient>
<linearGradient id="paint33_linear_25_391" x1="164.5" y1="0" x2="164.5" y2="296" gradientUnits="userSpaceOnUse">
<stop stop-color="#041131"/>
<stop offset="1" stop-color="#0C3597"/>
</linearGradient>
<linearGradient id="paint34_linear_25_391" x1="164.5" y1="0" x2="164.5" y2="296" gradientUnits="userSpaceOnUse">
<stop stop-color="#041131"/>
<stop offset="1" stop-color="#0C3597"/>
</linearGradient>
<linearGradient id="paint35_linear_25_391" x1="164.5" y1="0" x2="164.5" y2="296" gradientUnits="userSpaceOnUse">
<stop stop-color="#041131"/>
<stop offset="1" stop-color="#0C3597"/>
</linearGradient>
<linearGradient id="paint36_linear_25_391" x1="164.5" y1="0" x2="164.5" y2="296" gradientUnits="userSpaceOnUse">
<stop stop-color="#041131"/>
<stop offset="1" stop-color="#0C3597"/>
</linearGradient>
<linearGradient id="paint37_linear_25_391" x1="164.5" y1="0" x2="164.5" y2="296" gradientUnits="userSpaceOnUse">
<stop stop-color="#041131"/>
<stop offset="1" stop-color="#0C3597"/>
</linearGradient>
</defs>
</svg>
