<svg width="86" height="85" viewBox="0 0 86 85" fill="none" xmlns="http://www.w3.org/2000/svg">
<rect x="0.5" width="85" height="85" rx="42.5" fill="#01091C"/>
<path d="M41.9817 34.2013C42.3417 34.3486 42.1659 34.7455 42.1617 35.0197C42.3417 35.6458 43.2544 35.7522 43.6759 35.3185C43.732 35.259 43.7749 35.1882 43.8018 35.1111C43.8288 35.0338 43.8392 34.9517 43.8322 34.8702C43.8252 34.7887 43.8012 34.7095 43.7616 34.638C43.7219 34.5664 43.6675 34.5041 43.6022 34.455C43.2953 34.1889 42.7838 34.3444 42.5301 34.0171C42.4481 33.8247 42.5301 33.6079 42.5301 33.4197C42.1986 32.904 41.2041 32.945 40.975 33.5342C40.9628 34.0785 41.597 34.0785 41.9817 34.2013Z" fill="#0C71BC"/>
<path d="M45.0381 33.547C44.8704 33.0232 44.1256 32.9823 43.6999 33.1992C43.637 33.2329 43.5831 33.2814 43.5432 33.3405C43.5034 33.3997 43.4784 33.4679 43.4708 33.5388C43.5813 34.2878 45.0013 34.3369 45.0381 33.547Z" fill="#0C71BC"/>
<path d="M44.8629 35.044C45.0634 35.7601 46.3525 35.842 46.4998 35.044C46.5244 34.4178 45.7181 34.1192 45.2189 34.3565C45.1498 34.3774 45.0857 34.412 45.0302 34.4581C44.9746 34.5041 44.9291 34.561 44.8958 34.6251C44.8626 34.6891 44.8426 34.7592 44.8369 34.8311C44.8313 34.9031 44.8401 34.9755 44.8629 35.044Z" fill="#0C71BC"/>
<path d="M48.8646 35.5068C48.9043 35.3745 48.9097 35.2343 48.8806 35.0992C48.8513 34.9643 48.7886 34.8389 48.6978 34.7348C48.6072 34.6307 48.4916 34.551 48.362 34.5036C48.2323 34.4561 48.0927 34.4423 47.9561 34.4632C47.8943 34.457 47.8319 34.4635 47.7726 34.4823C47.7134 34.501 47.6585 34.5315 47.6115 34.5721C47.5644 34.6127 47.526 34.6624 47.4987 34.7182C47.4714 34.7741 47.4559 34.835 47.4528 34.8969C47.3793 35.5886 48.4473 36.1247 48.8646 35.5068Z" fill="#0C71BC"/>
<path d="M37.0345 37.2006C37.3209 36.8527 37.0345 36.3248 37.3577 36.0015C37.6524 35.7438 38.0943 35.76 38.3807 35.4778C38.5083 35.3728 38.5901 35.2225 38.6093 35.0585C38.6284 34.8944 38.5832 34.7293 38.4829 34.5979C37.9797 34.1109 36.9362 34.6633 37.1121 35.3467C37.1141 35.5453 37.0437 35.7379 36.9142 35.8884C36.7847 36.039 36.6049 36.1374 36.4083 36.1652C36.2739 36.2023 36.1505 36.2712 36.0486 36.3663C35.9466 36.4614 35.8692 36.5798 35.823 36.7113C35.7768 36.8426 35.763 36.9834 35.783 37.1213C35.803 37.2593 35.8561 37.3904 35.9377 37.5033C36.0286 37.5592 36.1301 37.5959 36.2357 37.6108C36.3414 37.6258 36.449 37.619 36.5519 37.5905C36.6548 37.5622 36.7507 37.5129 36.8337 37.4457C36.9167 37.3786 36.985 37.2953 37.0345 37.2006Z" fill="#0C71BC"/>
<path d="M38.3228 36.2268C38.2549 36.2931 38.2008 36.3724 38.164 36.4599C38.1273 36.5475 38.1082 36.6413 38.1082 36.7363C38.1082 36.8312 38.1273 36.9253 38.164 37.0128C38.2008 37.1001 38.2549 37.1795 38.3228 37.2458C38.5398 37.4626 38.9122 37.3317 39.1413 37.5608C39.2364 37.6541 39.3028 37.7727 39.3326 37.9025C39.3623 38.0323 39.3541 38.168 39.309 38.2934C39.2858 38.4244 39.2949 38.5593 39.3357 38.686C39.3762 38.8127 39.4473 38.9277 39.5425 39.0209C39.6376 39.114 39.754 39.1825 39.8817 39.2204C40.0093 39.2584 40.1442 39.2647 40.2748 39.2387C40.8723 39.1568 41.2733 38.3425 40.8394 37.8678C40.5817 37.4995 40.0211 37.6795 39.7674 37.3031C39.5136 36.9267 39.7674 36.5543 39.6936 36.1777C39.6936 35.6907 40.2462 35.5802 40.6268 35.5352C40.6268 35.5352 41.1874 35.2201 41.1709 34.9132C41.2282 34.4385 40.6594 34.2094 40.2666 34.2871C40.1388 34.3012 40.0158 34.3437 39.9066 34.4115C39.7976 34.4794 39.7049 34.5709 39.6359 34.6793C39.5668 34.7876 39.5229 34.9101 39.5074 35.0378C39.492 35.1654 39.5053 35.2948 39.5463 35.4165C39.3541 35.9649 38.6298 35.8093 38.3228 36.2268Z" fill="#0C71BC"/>
<path d="M41.3146 35.8625C41.1976 35.8932 41.0903 35.9524 41.002 36.0348C40.9137 36.1172 40.8473 36.2202 40.8088 36.3347C40.7703 36.4492 40.7607 36.5714 40.7811 36.6903C40.8016 36.8095 40.8513 36.9215 40.9258 37.0166C41.3637 37.5689 42.4358 37.2743 42.4644 36.546C42.4931 35.969 41.7932 35.6784 41.3146 35.8625Z" fill="#0C71BC"/>
<path d="M45.2178 36.755C45.3815 36.1166 44.6163 35.646 44.0557 35.8547C43.9479 35.8813 43.848 35.9335 43.7646 36.0068C43.6811 36.0802 43.6167 36.1725 43.5766 36.2762C43.5364 36.3798 43.5217 36.4915 43.534 36.6019C43.5461 36.7122 43.5846 36.8182 43.6464 36.9105C44.0106 37.4751 45.046 37.4302 45.2178 36.755Z" fill="#0C71BC"/>
<path d="M46.3602 37.0452C46.262 37.7409 45.3412 37.434 45.0876 37.9946C45.0319 38.1099 45.0021 38.236 45.0003 38.3641C44.9984 38.492 45.0244 38.6189 45.0766 38.7358C45.1288 38.8528 45.206 38.9569 45.3025 39.0408C45.3991 39.1248 45.5128 39.1867 45.636 39.2222C45.7406 39.2605 45.8518 39.2769 45.963 39.2706C46.0742 39.2642 46.183 39.2352 46.2826 39.1855C46.3822 39.1356 46.4705 39.0661 46.5423 38.9809C46.614 38.8958 46.6676 38.7969 46.6999 38.6903C46.8227 38.3792 46.5361 38.0397 46.7327 37.7409C46.8049 37.6297 46.9046 37.5387 47.0221 37.4771C47.1396 37.4154 47.2711 37.3851 47.4037 37.389C47.5619 37.3592 47.7019 37.268 47.7932 37.1354C47.8844 37.0028 47.9194 36.8394 47.8907 36.6811C47.8695 36.5492 47.8196 36.4236 47.7447 36.3132C47.6695 36.2027 47.5712 36.1101 47.4566 36.0418C47.3418 35.9736 47.2135 35.9313 47.0806 35.918C46.9477 35.9047 46.8136 35.9206 46.6876 35.9649C46.2048 36.1245 46.3275 36.6646 46.3602 37.0452Z" fill="#0C71BC"/>
<path d="M50.0301 37.5486C50.6889 37.0045 49.8296 35.8054 49.0971 36.2269C48.381 36.7425 49.3098 37.9906 50.0301 37.5486Z" fill="#0C71BC"/>
<path d="M42.7635 37.5776C42.6301 37.6031 42.5051 37.6611 42.3998 37.747C42.2946 37.8326 42.2122 37.9431 42.1603 38.0685C42.1083 38.194 42.0883 38.3303 42.1022 38.4654C42.1162 38.6005 42.1634 38.73 42.2398 38.8423C42.4893 39.3005 43.1154 39.1327 43.4387 39.4929C43.5397 39.7105 43.5887 39.9487 43.582 40.1885C43.5083 40.5487 43.7293 40.9619 43.4838 41.2812C43.2383 41.6003 42.6653 41.5143 42.3748 41.8131C42.2723 41.9037 42.1913 42.0164 42.138 42.1423C42.0847 42.2684 42.0602 42.4047 42.0664 42.5415C42.0726 42.6783 42.1095 42.8118 42.1741 42.9325C42.2387 43.0531 42.3295 43.1578 42.4399 43.2387C42.5502 43.3197 42.6774 43.375 42.8118 43.4004C42.9463 43.4258 43.0848 43.4209 43.217 43.3857C43.3493 43.3507 43.4722 43.2864 43.5763 43.1976C43.6805 43.1089 43.7635 42.998 43.8193 42.873C44.0362 42.4637 43.7047 41.9973 43.9544 41.6085C44.2039 41.2197 44.8096 41.3876 45.1206 41.0357C45.2069 40.9448 45.2731 40.8368 45.3146 40.7186C45.3561 40.6004 45.3722 40.4748 45.3618 40.3499C45.3514 40.2251 45.3147 40.1039 45.254 39.9943C45.1934 39.8846 45.1103 39.789 45.0102 39.7139C44.7727 39.5255 44.4454 39.5337 44.1917 39.4029C44.0645 39.313 43.9679 39.1865 43.9144 39.0402C43.8611 38.894 43.8535 38.7351 43.893 38.5844C43.9222 38.4346 43.9118 38.2798 43.863 38.1351C43.8142 37.9906 43.7287 37.8611 43.6147 37.7597C43.5008 37.658 43.3625 37.5879 43.2132 37.556C43.064 37.5242 42.9089 37.5316 42.7635 37.5776Z" fill="#0C71BC"/>
<path d="M48.6633 39.3976C48.753 39.3935 48.8408 39.3715 48.922 39.3332C49.003 39.2949 49.0758 39.2409 49.1359 39.1743C49.196 39.1077 49.2423 39.0299 49.2722 38.9453C49.3021 38.8608 49.3148 38.7711 49.3098 38.6815C49.3098 38.0963 48.647 37.5357 48.0822 37.8344C47.3661 38.2518 47.8899 39.459 48.6633 39.3976Z" fill="#0C71BC"/>
<path d="M50.947 39.6565H50.9798C51.4913 40.0248 51.0247 40.7 51.3358 41.1624C51.4382 41.4039 51.745 41.6126 51.9988 41.4162C52.1295 41.2716 52.2156 41.0923 52.2469 40.8999C52.2782 40.7075 52.2531 40.5101 52.1747 40.3317C52.0765 39.9224 51.4586 39.9224 51.4217 39.4723C51.4462 39.0632 51.4873 38.5475 51.1558 38.2202C51.0969 38.1466 51.0201 38.0895 50.9329 38.0539C50.8457 38.0184 50.7507 38.0058 50.6573 38.0173C50.5637 38.0288 50.4748 38.0639 50.3988 38.1195C50.3227 38.1751 50.2621 38.2492 50.2228 38.3347C50.1791 38.469 50.1635 38.6107 50.1766 38.7514C50.1898 38.8919 50.2316 39.0282 50.2995 39.152C50.3673 39.2759 50.4598 39.3845 50.5712 39.4712C50.6826 39.558 50.8103 39.621 50.947 39.6565Z" fill="#0C71BC"/>
<path d="M34.1249 41.4723C34.6528 41.5256 34.8492 40.8544 34.7715 40.4371C34.6773 40.1097 34.8369 39.6186 35.2257 39.586C35.6349 39.6637 35.6349 40.1343 35.5612 40.4452C35.4671 40.8791 35.7536 41.4356 36.2487 41.3906C36.7439 41.3455 37.0303 40.6703 36.9076 40.163C36.7848 39.6555 37.2718 39.324 37.726 39.2831H37.7588C37.8745 39.2241 37.9764 39.1412 38.0578 39.0401C38.1391 38.9388 38.1979 38.8214 38.2303 38.6956C38.2628 38.5698 38.2683 38.4386 38.2463 38.3106C38.2241 38.1825 38.1752 38.0608 38.1025 37.9531C38.0201 37.8755 37.9219 37.817 37.8146 37.781C37.7072 37.7453 37.5934 37.7332 37.4809 37.7456C37.3684 37.758 37.26 37.7947 37.1632 37.8532C37.0664 37.9116 36.9834 37.9905 36.9198 38.084C36.6457 38.3951 36.7439 38.833 36.7152 39.2136C36.6768 39.3229 36.6167 39.4233 36.5387 39.5091C36.4607 39.5949 36.3662 39.6642 36.261 39.7128C36.1666 39.6973 36.0769 39.6611 35.9983 39.6066C35.9197 39.552 35.8543 39.4806 35.8068 39.3976C35.7495 38.9885 36.0155 38.5792 35.7495 38.2151C35.6932 38.1492 35.6227 38.0973 35.5434 38.063C35.464 38.0286 35.3778 38.0128 35.2914 38.0166C35.205 38.0207 35.1206 38.0442 35.0447 38.0857C34.9688 38.1271 34.9033 38.1853 34.8533 38.256C34.5259 38.5875 34.6364 39.0743 34.616 39.4836C34.5953 39.5773 34.5531 39.665 34.4928 39.7395C34.4324 39.8141 34.3555 39.8736 34.2681 39.9133C33.6625 40.1383 33.5684 41.1777 34.1249 41.4723Z" fill="#0C71BC"/>
<path d="M38.3352 41.2391C38.9736 41.5951 39.7306 40.8299 39.5015 40.1833C39.4745 40.0741 39.4243 39.972 39.3545 39.884C39.2846 39.7959 39.1968 39.7239 39.0967 39.6726C38.9966 39.6215 38.8867 39.5924 38.7744 39.5872C38.662 39.5821 38.5499 39.6012 38.4457 39.6432C38.2962 39.7107 38.1678 39.8176 38.0742 39.9522C37.9805 40.087 37.9252 40.2445 37.9137 40.4081C37.9024 40.5718 37.9357 40.7354 38.0099 40.8818C38.084 41.028 38.1964 41.1514 38.3352 41.2391Z" fill="#0C71BC"/>
<path d="M49.1755 41.9312C48.9504 41.567 48.3897 41.6897 48.1932 41.2886C47.9355 40.9286 48.2301 40.4703 48.005 40.0897C47.924 39.8944 47.7705 39.7379 47.5767 39.6533C47.383 39.5686 47.1641 39.5623 46.9656 39.6355C46.8405 39.6953 46.7313 39.7838 46.6466 39.8936C46.562 40.0034 46.5044 40.1317 46.4785 40.268C46.4526 40.4042 46.4591 40.5446 46.4975 40.6779C46.536 40.8111 46.6052 40.9335 46.6997 41.0351C46.9452 41.391 47.4771 41.2682 47.7144 41.6366C48.0419 42.0458 47.6613 42.59 47.96 43.0034C48.0109 43.0973 48.082 43.1789 48.1683 43.242C48.2546 43.305 48.3539 43.3481 48.4589 43.368C48.5638 43.388 48.6719 43.3845 48.7754 43.3575C48.8788 43.3304 48.9749 43.2808 49.0567 43.2121C49.2337 43.0524 49.344 42.8321 49.366 42.5948C49.388 42.3575 49.32 42.1206 49.1755 41.9312Z" fill="#0C71BC"/>
<path d="M49.9164 41.3794C50.8085 41.1829 50.5139 39.5624 49.5931 39.7424C48.7338 39.9757 49.0202 41.5103 49.9164 41.3794Z" fill="#0C71BC"/>
<path d="M35.0364 41.7017C34.3203 41.9514 34.4226 43.3386 35.2452 43.3141C36.0718 43.1339 35.9286 41.5666 35.0364 41.7017Z" fill="#0C71BC"/>
<path d="M45.1196 42.8556C45.1627 42.9639 45.227 43.0623 45.3088 43.1451C45.3905 43.228 45.4883 43.2935 45.5959 43.3378C45.7036 43.3821 45.8192 43.4043 45.9355 43.403C46.052 43.4016 46.1669 43.377 46.2736 43.3304C46.3889 43.2777 46.4917 43.2017 46.5757 43.1069C46.6598 43.0122 46.7232 42.901 46.7616 42.7805C46.8002 42.6598 46.813 42.5325 46.7995 42.4066C46.7859 42.2808 46.7463 42.159 46.6829 42.0495C46.6259 41.9453 46.548 41.8537 46.4541 41.7809C46.3604 41.7079 46.2526 41.655 46.1375 41.6255C46.0224 41.596 45.9023 41.5904 45.7851 41.6091C45.6677 41.6279 45.5554 41.6705 45.4551 41.7344C45.2748 41.8506 45.1419 42.0275 45.0804 42.2331C45.0188 42.4386 45.0327 42.6594 45.1196 42.8556Z" fill="#0C71BC"/>
<path d="M50.8043 43.3151C51.721 43.3151 51.6228 41.5307 50.7021 41.7109C50.0104 41.9522 50.0636 43.1882 50.8043 43.3151Z" fill="#0C71BC"/>
<path d="M39.2725 45.2171C39.3838 45.1045 39.4638 44.9646 39.5042 44.8116C39.5446 44.6584 39.544 44.4973 39.5026 44.3443C39.4611 44.1914 39.3803 44.0521 39.2681 43.9403C39.1558 43.8284 39.0163 43.748 38.8632 43.7071C38.5031 43.654 38.1267 43.437 38.1143 43.0319C38.2074 42.6949 38.1798 42.3359 38.0365 42.017C37.99 41.932 37.927 41.857 37.8512 41.7964C37.7755 41.7359 37.6884 41.6909 37.5952 41.6643C37.5019 41.6377 37.4042 41.6298 37.3078 41.6412C37.2116 41.6525 37.1184 41.6829 37.034 41.7306C36.9206 41.8111 36.8259 41.9151 36.7567 42.0357C36.6875 42.1563 36.645 42.2904 36.6326 42.4289C36.6202 42.5674 36.6379 42.7068 36.6847 42.8378C36.7313 42.9687 36.8058 43.088 36.9031 43.1874C37.1568 43.4043 37.5701 43.347 37.7747 43.6416C38.0571 44.01 37.7379 44.4928 37.9425 44.8694C37.9852 44.9992 38.0597 45.1163 38.1593 45.2098C38.2591 45.3034 38.3805 45.3706 38.5128 45.4052C38.645 45.4399 38.7837 45.4406 38.9165 45.4078C39.0493 45.375 39.1716 45.3094 39.2725 45.2171Z" fill="#0C71BC"/>
<path d="M42.2429 45.156C42.3344 45.0376 42.395 44.8982 42.4189 44.7505C42.4427 44.6027 42.4292 44.4513 42.3797 44.3101C42.33 44.169 42.2458 44.0424 42.1346 43.942C42.0236 43.8418 41.8891 43.7709 41.7436 43.736C41.3875 43.6827 40.9538 43.5232 40.9251 43.1099C40.9747 42.7638 40.9747 42.4124 40.9251 42.0663C40.9213 41.9672 40.9374 41.8682 40.9722 41.7754C41.0072 41.6825 41.0604 41.5976 41.1287 41.5254C41.1968 41.4534 41.2788 41.3957 41.3697 41.3558C41.4605 41.3158 41.5584 41.2944 41.6577 41.2929C41.8674 41.2644 42.0606 41.1632 42.2034 41.0069C42.3462 40.8506 42.4297 40.6491 42.4393 40.4377C42.4432 40.317 42.4226 40.197 42.3787 40.0845C42.3348 39.9722 42.2686 39.8698 42.184 39.7838C42.0996 39.6977 41.9985 39.6297 41.8868 39.5839C41.7752 39.538 41.6555 39.5152 41.5348 39.5169C41.3008 39.5264 41.0794 39.6264 40.9177 39.7959C40.7558 39.9654 40.6661 40.1911 40.6674 40.4254C40.6674 40.7241 40.7696 41.08 40.5446 41.3298C40.3195 41.5793 39.808 41.5344 39.5256 41.8086C39.3473 41.9658 39.2361 42.1853 39.2147 42.422C39.1935 42.6588 39.2637 42.8947 39.411 43.0812C39.6975 43.429 40.2295 43.3063 40.5077 43.6787C40.8678 44.0879 40.471 44.6321 40.7819 45.0414C40.8565 45.1634 40.9589 45.2661 41.0808 45.3409C41.2026 45.4158 41.3406 45.4605 41.4831 45.4717C41.6258 45.483 41.7689 45.4601 41.901 45.4052C42.033 45.3504 42.1503 45.2649 42.2429 45.156Z" fill="#0C71BC"/>
<path d="M34.0303 43.5845C33.9334 43.6849 33.8594 43.8049 33.8133 43.9366C33.7673 44.0682 33.7503 44.2083 33.7635 44.3471C33.7767 44.4859 33.8198 44.6202 33.8899 44.7407C33.96 44.8613 34.0553 44.9653 34.1694 45.0455C35.1147 45.1804 34.906 43.2408 34.0303 43.5845Z" fill="#0C71BC"/>
<path d="M51.5777 43.5919C51.1685 43.8579 51.2135 44.4104 51.2504 44.8197C51.2504 45.1347 50.9065 45.5807 50.5956 45.2943C50.1864 44.8564 50.7429 44.0667 50.1373 43.6983C49.4294 43.2891 48.7704 44.3409 49.1838 44.9261C49.3147 45.2125 49.642 45.2534 49.9122 45.3107C50.2846 45.4294 50.2682 45.8835 50.1782 46.1864C50.1511 46.2706 50.1427 46.3599 50.1538 46.4477C50.1648 46.5357 50.195 46.6199 50.2423 46.6949C50.2895 46.7697 50.3526 46.8334 50.4271 46.8813C50.5016 46.9293 50.5856 46.9603 50.6734 46.9722C50.7891 46.9533 50.9 46.9116 50.9996 46.8498C51.0992 46.7878 51.1856 46.7067 51.2536 46.6113C51.3218 46.5157 51.3703 46.4077 51.3965 46.2934C51.4225 46.1789 51.4257 46.0606 51.4058 45.945C51.3632 45.7731 51.3805 45.5917 51.4549 45.4311C51.5292 45.2703 51.6564 45.1397 51.815 45.061C52.2734 44.8688 52.3389 44.2427 52.1998 43.8334C52.1138 43.6001 51.7987 43.3997 51.5777 43.5919Z" fill="#0C71BC"/>
<path d="M36.8824 46.8336C36.9406 46.938 37.0218 47.028 37.1197 47.0968C37.2176 47.1654 37.3297 47.2111 37.4477 47.2305C37.5658 47.2497 37.6868 47.2421 37.8014 47.2082C37.916 47.1741 38.0217 47.1146 38.1101 47.0342C38.1905 46.9143 38.2413 46.7772 38.2582 46.634C38.2751 46.4907 38.2576 46.3454 38.2072 46.2103C38.1567 46.0751 38.0749 45.9538 37.9684 45.8567C37.8618 45.7594 37.7337 45.6889 37.5944 45.6509C37.4687 45.6327 37.3486 45.5864 37.2431 45.5156C37.1376 45.4448 37.0493 45.3512 36.9847 45.2417C36.821 44.8775 37.0665 44.4683 36.8701 44.1123C36.8396 44.0062 36.7838 43.9091 36.7076 43.8291C36.6314 43.7494 36.537 43.6891 36.4324 43.6538C36.3278 43.6183 36.2162 43.6089 36.1072 43.6259C35.9981 43.6431 35.8948 43.6865 35.8062 43.7522C35.7071 43.8552 35.6329 43.9792 35.5892 44.1152C35.5454 44.2513 35.5334 44.3955 35.5539 44.5367C35.5745 44.6782 35.627 44.8129 35.7076 44.9308C35.7882 45.0488 35.8947 45.1467 36.0189 45.2172C36.2645 45.3032 36.555 45.3932 36.6615 45.6551C36.821 46.0315 36.6246 46.4899 36.8824 46.8336Z" fill="#0C71BC"/>
<path d="M42.6693 47.3826C42.8136 47.4484 42.973 47.4737 43.1305 47.456C43.288 47.4382 43.4378 47.3781 43.5639 47.2819C43.6898 47.1857 43.7874 47.057 43.8461 46.9097C43.9047 46.7625 43.9223 46.602 43.8969 46.4454C43.8643 46.3468 43.8533 46.2422 43.865 46.1389C43.877 46.0356 43.911 45.936 43.9651 45.8472C44.0193 45.7584 44.0921 45.6824 44.1786 45.6246C44.265 45.5668 44.363 45.5286 44.4657 45.5125C44.7094 45.503 44.9402 45.4008 45.1106 45.2264C45.2811 45.0521 45.3784 44.8191 45.3825 44.5753C45.3797 44.4269 45.3397 44.2816 45.2663 44.1526C45.1929 44.0237 45.0883 43.9151 44.962 43.837C44.836 43.7588 44.6922 43.7136 44.544 43.7052C44.3959 43.697 44.2479 43.726 44.1138 43.7896C43.8897 43.8937 43.7138 44.0796 43.6228 44.3093C43.4795 44.6777 43.7496 45.0992 43.5204 45.4469C43.234 45.8562 42.5916 45.6844 42.2928 46.1017C42.2118 46.2044 42.1566 46.3249 42.1318 46.4532C42.107 46.5816 42.1132 46.714 42.1501 46.8394C42.187 46.9648 42.2534 47.0796 42.3437 47.1741C42.434 47.2686 42.5457 47.3401 42.6693 47.3826Z" fill="#0C71BC"/>
<path d="M47.8613 45.1484C48.0105 44.9857 48.0969 44.7755 48.1051 44.5551C48.1133 44.3347 48.043 44.1184 47.9064 43.9453C47.806 43.8244 47.6705 43.738 47.5187 43.6976C47.367 43.6573 47.2064 43.6652 47.0592 43.7202C46.9466 43.7636 46.8436 43.8289 46.7565 43.9126C46.6693 43.9961 46.5998 44.0963 46.5519 44.207C46.3473 44.5876 46.6377 45.05 46.3922 45.4348C46.1467 45.8194 45.6106 45.6926 45.3079 45.9872C45.2213 46.0573 45.1499 46.1444 45.0982 46.2431C45.0464 46.3419 45.0154 46.45 45.0071 46.5612C44.9986 46.6723 45.013 46.784 45.0492 46.8893C45.0855 46.9947 45.1428 47.0915 45.2177 47.1739C45.3197 47.2701 45.4424 47.3413 45.5763 47.3819C45.7103 47.4227 45.8519 47.4316 45.9901 47.4082C46.1281 47.3847 46.2588 47.3296 46.3719 47.2472C46.485 47.1646 46.5775 47.0568 46.6419 46.9325C46.8628 46.5642 46.5682 46.114 46.8261 45.7499C47.0839 45.3857 47.5871 45.4757 47.8613 45.1484Z" fill="#0C71BC"/>
<path d="M34.9061 45.4705C34.2473 45.8798 34.722 47.1687 35.4954 46.956C36.2483 46.6203 35.6959 45.1841 34.9061 45.4705Z" fill="#0C71BC"/>
<path d="M48.0826 47.1735C48.7497 47.5172 49.5271 46.6824 49.2285 46.0277C49.1863 45.9357 49.1244 45.8542 49.0471 45.789C48.9699 45.7236 48.8791 45.6762 48.7814 45.65C48.6837 45.6238 48.5814 45.6195 48.4818 45.6375C48.3822 45.6553 48.2879 45.6949 48.2053 45.7535C47.7185 46.0195 47.5303 46.8624 48.0826 47.1735Z" fill="#0C71BC"/>
<path d="M39.6322 47.2178C39.7403 47.3076 39.8689 47.3691 40.0066 47.3972C40.1443 47.4251 40.2868 47.4184 40.4213 47.378C40.5559 47.3374 40.6783 47.2643 40.7776 47.1648C40.877 47.0655 40.9503 46.9432 40.9909 46.8087C41.018 46.6417 40.9984 46.4706 40.9345 46.3141C40.8703 46.1576 40.7644 46.0218 40.6279 45.9219C40.4916 45.822 40.3302 45.7617 40.1617 45.7476C39.9931 45.7337 39.8241 45.7667 39.6731 45.8429C39.556 45.9135 39.4584 46.0125 39.3893 46.1307C39.3204 46.2489 39.282 46.3824 39.2779 46.5192C39.2739 46.656 39.3041 46.7917 39.3661 46.9137C39.4279 47.0356 39.5194 47.1403 39.6322 47.2178Z" fill="#0C71BC"/>
<path d="M36.0601 47.4029C35.6509 47.6076 35.6714 48.2214 35.9456 48.5202C36.2197 48.8189 36.7886 49.0235 37.0668 48.6389C37.4432 48.0414 36.7231 47.1494 36.0601 47.4029Z" fill="#0C71BC"/>
<path d="M49.4748 47.3978C48.992 47.5656 48.6319 48.2163 48.9633 48.6745C49.4177 49.1411 50.1909 48.6745 50.2606 48.0853C50.289 47.9803 50.2873 47.8695 50.2558 47.7653C50.2242 47.6612 50.1641 47.5681 50.0822 47.4964C50.0004 47.4248 49.9 47.3775 49.7927 47.3602C49.6853 47.3427 49.5752 47.3559 49.4748 47.3978Z" fill="#0C71BC"/>
<path d="M41.0813 50.4063C41.3104 50.1281 40.979 49.768 41.1591 49.4691C41.4209 49.1009 41.9775 49.2932 42.2681 48.9536C42.3378 48.8832 42.3915 48.7987 42.4259 48.7059C42.4604 48.613 42.4745 48.5139 42.4676 48.4152C42.4606 48.3164 42.4327 48.2202 42.3855 48.1331C42.3384 48.0461 42.2732 47.97 42.1943 47.9101C42.0943 47.8211 41.9758 47.7556 41.8472 47.7183C41.7186 47.6811 41.5834 47.6729 41.4513 47.6944C41.3191 47.716 41.1935 47.7668 41.0835 47.843C40.9735 47.9192 40.8818 48.019 40.8152 48.1351C40.6108 48.4748 41.0199 48.9536 40.6721 49.2236C40.5805 49.2977 40.4693 49.3432 40.3522 49.3547C40.2351 49.3661 40.1172 49.3431 40.0131 49.2882C39.909 49.2332 39.8232 49.1491 39.7665 49.046C39.7098 48.9428 39.6846 48.8254 39.694 48.7081C39.7238 48.5473 39.7108 48.3816 39.6559 48.2276C39.6013 48.0736 39.5068 47.9367 39.3822 47.8309C39.2577 47.7251 39.1074 47.6539 38.9466 47.6247C38.7859 47.5955 38.6201 47.6092 38.4664 47.6645C38.0572 47.8527 38.1021 48.3562 38.2085 48.7203C38.315 49.0845 37.9099 49.2196 37.6397 49.2196C37.4983 49.215 37.3606 49.2651 37.2554 49.3598C37.1501 49.4543 37.0855 49.5859 37.075 49.7271C37.03 50.4227 38.0654 50.8973 38.5196 50.3368C38.7611 50.0093 38.319 49.596 38.5932 49.2932C38.9575 48.9126 39.6203 49.3709 39.5426 49.8457C39.3952 50.6436 40.6434 51.0242 41.0813 50.4063Z" fill="#0C71BC"/>
<path d="M47.9272 49.0681C47.6366 48.7488 48.0458 48.3233 47.8494 47.9714C47.7721 47.8126 47.6372 47.6896 47.4721 47.6272C47.307 47.5648 47.1243 47.5679 46.9614 47.6359C46.4785 47.775 46.102 48.3887 46.413 48.8635C46.6341 49.2112 47.0882 49.0599 47.3951 49.2727C47.7266 49.5878 47.2193 50.0544 47.5261 50.3857C48.054 50.9669 49.2203 50.2588 48.8806 49.5182C48.7006 49.105 48.2096 49.2972 47.9272 49.0681Z" fill="#0C71BC"/>
<path d="M45.2551 48.4539C45.3042 47.8523 44.5512 47.5168 44.0642 47.7582C43.9585 47.7929 43.8622 47.851 43.782 47.9279C43.7017 48.0049 43.6396 48.0987 43.6004 48.2027C43.5612 48.3066 43.5457 48.4181 43.5552 48.5289C43.5646 48.6396 43.5987 48.7468 43.6549 48.8427C44.052 49.4646 45.2182 49.2191 45.2551 48.4539Z" fill="#0C71BC"/>
<path d="M43.8931 50.7369C43.6558 50.524 43.8644 50.217 43.8153 49.9593C43.7673 49.8468 43.6963 49.7453 43.6071 49.6615C43.518 49.5777 43.4124 49.5131 43.2972 49.4721C43.1819 49.431 43.0594 49.4142 42.9373 49.4227C42.8153 49.431 42.6961 49.4648 42.5877 49.5214C42.5031 49.5528 42.4269 49.6035 42.3651 49.6691C42.3031 49.735 42.2575 49.8141 42.2313 49.9004C42.2051 49.9868 42.1994 50.0781 42.2142 50.1671C42.2293 50.2561 42.2646 50.3405 42.3176 50.4136C42.5877 50.7982 43.1361 50.6222 43.4634 50.9169C43.6884 51.1584 43.3284 51.543 43.6475 51.7354C44.0568 52.0504 45.002 51.9685 45.0471 51.3261C44.908 50.8145 44.2572 50.9742 43.8931 50.7369Z" fill="#0C71BC"/>
<path d="M45.3118 49.4973C45.221 49.5261 45.1377 49.5748 45.0678 49.6395C44.998 49.7043 44.9433 49.7837 44.9078 49.872C44.8722 49.9605 44.8565 50.0556 44.8621 50.1507C44.8675 50.2458 44.8939 50.3384 44.9394 50.4222C45.0479 50.5324 45.1825 50.6131 45.3309 50.6566C45.4791 50.7001 45.636 50.7052 45.7869 50.6712C45.9376 50.6372 46.0772 50.5654 46.1924 50.4624C46.3077 50.3594 46.3947 50.2286 46.4454 50.0825C46.5312 49.4891 45.7537 49.2396 45.3118 49.4973Z" fill="#0C71BC"/>
<path d="M41.2981 50.9836C41.212 50.9994 41.1332 51.0425 41.0732 51.1064C41.0133 51.1704 40.9755 51.252 40.9654 51.3391C40.9554 51.4262 40.9735 51.5141 41.0172 51.5902C41.0608 51.6661 41.1278 51.726 41.2082 51.7612C41.6174 52.0025 42.399 52.0108 42.5259 51.4624C42.4644 50.9181 41.7196 50.779 41.2981 50.9836Z" fill="#0C71BC"/>
<path d="M27.8471 52.1821C27.6258 51.4738 27.185 50.8542 26.5884 50.4128C25.9918 49.9715 25.2704 49.7313 24.5283 49.7268C24.3026 49.7276 24.0777 49.7522 23.8572 49.8005C23.176 49.9373 22.5516 50.2757 22.065 50.7717C21.5785 51.2679 21.2523 51.8987 21.1288 52.5826C21.0053 53.2663 21.0901 53.9714 21.3723 54.6063C21.6545 55.2413 22.1211 55.7768 22.7114 56.1433C23.2611 56.4944 23.9006 56.6791 24.5529 56.6754C24.8997 56.6738 25.2444 56.6215 25.5759 56.5198C25.9043 56.4202 26.215 56.2698 26.4967 56.0737C27.1084 55.6549 27.5697 55.0508 27.8127 54.3503C28.0558 53.6498 28.0678 52.8899 27.8471 52.1821ZM63.9607 50.803C63.634 50.466 63.2428 50.198 62.8104 50.0152C62.378 49.8324 61.9133 49.7385 61.444 49.739C61.213 49.7389 60.9827 49.7621 60.7564 49.8086C59.8852 49.9926 59.1178 50.5038 58.612 51.2368C58.3538 51.6152 58.1727 52.0409 58.0797 52.4895C57.9866 52.938 57.983 53.4006 58.0693 53.8506C58.1557 54.3006 58.3301 54.729 58.5828 55.1112C58.8353 55.4935 59.161 55.822 59.541 56.0779C60.0962 56.4656 60.7587 56.6701 61.4358 56.663C62.0239 56.6659 62.604 56.5254 63.1257 56.2539C63.6267 55.991 64.0499 55.6016 64.3535 55.1243C64.7847 54.4663 64.981 53.6817 64.9104 52.8981C64.8399 52.1144 64.5065 51.3776 63.9647 50.8071L63.9607 50.803ZM27.6875 30.3421C27.4068 29.74 26.96 29.2307 26.3996 28.874C25.8392 28.5173 25.1885 28.3281 24.5242 28.3287C24.2007 28.3286 23.8791 28.3782 23.5707 28.4761C22.7784 28.715 22.098 29.2302 21.6532 29.928C21.2083 30.6258 21.0285 31.4601 21.1464 32.2792C21.2643 33.0984 21.672 33.8481 22.2956 34.3921C22.9191 34.9363 23.7171 35.2386 24.5447 35.2445C24.93 35.2448 25.3128 35.1826 25.6782 35.0604C26.0299 34.9425 26.3581 34.7639 26.6481 34.5324C27.2717 34.0541 27.7142 33.3781 27.903 32.6152C28.0919 31.8523 28.0159 31.0479 27.6875 30.3339V30.3421ZM46.3929 63.1163C46.2267 62.3355 45.7982 61.6349 45.179 61.1308C44.5597 60.6269 43.7865 60.35 42.9882 60.3459C42.696 60.3459 42.4053 60.3873 42.1247 60.4688C41.6899 60.5818 41.2819 60.7795 40.9238 61.0506C40.5657 61.3217 40.2645 61.6607 40.0378 62.0483C39.571 62.8051 39.4239 63.7161 39.6285 64.5814C39.8074 65.3476 40.239 66.0313 40.8535 66.5226C41.4681 67.014 42.2299 67.2845 43.0168 67.2905C43.2932 67.2917 43.5684 67.2559 43.8352 67.1841C44.2737 67.0789 44.6871 66.8881 45.0516 66.6227C45.4161 66.3572 45.7245 66.0223 45.959 65.6372C46.1946 65.2651 46.3542 64.85 46.4285 64.416C46.503 63.9819 46.4908 63.5375 46.3929 63.1083V63.1163ZM64.2348 29.7119C63.9086 29.2795 63.4863 28.929 63.0012 28.6882C62.516 28.4474 61.9815 28.3229 61.4398 28.3247C61 28.3213 60.5643 28.4077 60.1589 28.5784C59.4113 28.8858 58.7944 29.4442 58.4141 30.1575C58.034 30.8708 57.9144 31.6944 58.0761 32.4864C58.2276 33.2306 58.6215 33.9037 59.1959 34.4005C59.7704 34.8972 60.4933 35.1897 61.2516 35.2323H61.4931C62.1331 35.2278 62.7594 35.0456 63.302 34.7062C63.8448 34.3669 64.2825 33.8834 64.5668 33.3098C64.851 32.7363 64.9705 32.0952 64.9119 31.4577C64.8532 30.8203 64.6188 30.2117 64.2348 29.6996V29.7119ZM46.1965 19.8293C45.924 19.2009 45.4743 18.6657 44.9023 18.2891C44.3302 17.9126 43.6608 17.7112 42.9759 17.7095C42.6005 17.7073 42.2276 17.7724 41.875 17.9019C41.4271 18.0531 41.0157 18.296 40.6668 18.6152C40.3181 18.9344 40.0396 19.3228 39.8494 19.7556C39.6528 20.1732 39.545 20.6271 39.5331 21.0885C39.5212 21.5499 39.6051 22.0088 39.7798 22.436C40.0395 23.0907 40.491 23.6514 41.0754 24.0444C41.6597 24.4374 42.3495 24.6442 43.0537 24.6376C43.5474 24.6414 44.0352 24.5293 44.4777 24.3102C45.2985 23.9265 45.9339 23.2336 46.2456 22.3828C46.5659 21.5584 46.5483 20.6408 46.1965 19.8293Z" fill="white"/>
<path d="M28.2605 30.0673C28.3416 30.2338 28.41 30.4062 28.4651 30.583C29.6519 29.8955 31.1987 28.987 32.234 28.3855C34.542 27.0514 37.5539 25.3327 39.9846 23.9372C39.6396 23.5711 39.371 23.1399 39.1948 22.6687C39.1663 22.5991 39.1376 22.5255 39.113 22.4518C35.872 24.3096 32.0376 26.5112 28.9357 28.3118L27.6221 29.0852C27.8837 29.3782 28.099 29.7094 28.2605 30.0673Z" fill="white"/>
<path d="M46.8261 22.6199C46.6427 23.0937 46.375 23.5304 46.0364 23.909C46.2982 24.0809 46.5805 24.2527 46.6992 24.3182C48.1807 25.1612 49.6825 26.0328 51.1311 26.8758C53.0135 27.9684 55.5137 29.4375 57.5394 30.5874C57.7099 30.0412 57.9883 29.5347 58.3579 29.0979C54.5644 26.9126 50.0713 24.265 46.8998 22.4276C46.8794 22.4726 46.8547 22.5422 46.8261 22.6199Z" fill="white"/>
<path d="M62.3281 47.1736C62.3281 45.9459 62.3281 44.7183 62.3281 43.4905V43.2532C62.3281 40.487 62.3281 37.4055 62.3281 35.9282V35.7727C62.0595 35.833 61.7852 35.8644 61.5098 35.8669H61.2356C61.0291 35.8581 60.8238 35.832 60.6217 35.7891V35.9364C60.6217 36.8612 60.6217 38.3549 60.6217 40.0286C60.6217 41.4282 60.6217 42.9422 60.6217 44.3337C60.6119 44.5135 60.6119 44.6938 60.6217 44.8738C60.6217 45.0211 60.6217 45.1602 60.6217 45.2831V45.3075C60.6217 45.4549 60.6217 45.6063 60.6217 45.7659C60.6217 45.9254 60.6217 46.1547 60.6217 46.3511V46.6048V47.0139C60.6217 47.2186 60.6217 47.4232 60.6217 47.6278V48.6059C60.6217 48.6794 60.6217 48.9496 60.6217 49.2278H60.6504C60.9194 49.1711 61.1938 49.1423 61.4689 49.142C61.7646 49.1418 62.0595 49.1734 62.3487 49.236C62.3487 48.6059 62.3487 47.812 62.3487 47.4314L62.3281 47.1736Z" fill="white"/>
<path d="M57.5561 54.408L53.9959 56.4541C51.5407 57.87 48.5696 59.6051 46.0243 61.0455C46.4258 61.4727 46.7265 61.9845 46.9041 62.5433C49.024 61.3155 51.5775 59.8342 53.6154 58.6597L58.3909 55.9057C58.01 55.4711 57.7256 54.9605 57.5561 54.408Z" fill="white"/>
<path d="M24.5281 49.1172C24.8229 49.1189 25.1166 49.1531 25.4038 49.2194C25.4038 48.446 25.4038 47.7012 25.4038 47.4475C25.4038 46.6292 25.4243 45.8107 25.367 44.9719C25.412 43.8261 25.4079 42.6638 25.3997 41.5385C25.3997 40.7528 25.3997 39.9385 25.3997 39.1404C25.3997 38.6698 25.3997 38.1952 25.3997 37.7246C25.3997 37.2539 25.3997 36.4069 25.3997 35.7848C25.1171 35.8443 24.8292 35.8745 24.5404 35.8749C24.2502 35.8748 23.9609 35.8447 23.6769 35.7848C23.6769 36.7588 23.6769 38.1666 23.6769 39.1404C23.6769 39.4392 23.6769 39.7421 23.6769 40.0407C23.6769 40.7364 23.6769 41.4567 23.6769 42.1646C23.6769 42.7007 23.6769 43.2491 23.6769 43.8014V44.5258C23.6769 45.3443 23.6769 46.2035 23.6769 47.0424C23.6769 47.3208 23.6769 47.603 23.6769 47.8609C23.6769 48.0165 23.6769 48.5811 23.6769 49.2032H23.7547C24.0089 49.148 24.268 49.1192 24.5281 49.1172Z" fill="white"/>
<path d="M39.4895 61.7133C39.6293 61.4815 39.791 61.2637 39.9724 61.0626C36.5799 59.1229 32.7046 56.8682 29.4145 54.9489L28.4406 54.417C28.2758 54.9729 27.9971 55.4886 27.6221 55.931C29.259 56.8764 31.4401 58.1122 32.7415 58.8652L39.1212 62.5481C39.2132 62.2572 39.3367 61.9773 39.4895 61.7133Z" fill="white"/>
<path d="M35.0326 36.8936C34.7007 37.3631 34.4117 37.8617 34.1691 38.3831L29.5163 35.715C28.9189 35.3672 28.2887 35.0111 27.6953 34.6673L27.548 34.5856C27.9372 34.1622 28.2328 33.6617 28.4155 33.1165L28.5383 33.1819C29.2544 33.5666 29.9665 34.0003 30.6539 34.385L35.0326 36.8936Z" fill="white"/>
<path d="M35.1027 48.1925C32.8848 49.4202 29.5087 51.2698 28.5798 51.8305L28.4407 51.9205C28.2576 51.3584 27.9499 50.845 27.5404 50.4187L27.7082 50.3246C28.768 49.7311 29.8361 49.097 30.8714 48.5075L34.2229 46.6825C34.4696 47.2116 34.7641 47.7171 35.1027 48.1925Z" fill="white"/>
<path d="M43.8639 27.613V32.7896C43.5912 32.7623 43.3033 32.7487 43.0005 32.7487C42.6977 32.7487 42.4113 32.7623 42.1411 32.7896C42.1411 30.6208 42.1411 27.8217 42.1411 27.4002C42.1411 26.7127 42.1411 26.0293 42.1411 25.3541V25.1823C42.4379 25.2499 42.7412 25.2842 43.0454 25.2845C43.3205 25.2847 43.5949 25.2559 43.8639 25.1986V25.3541C43.8639 26.103 43.8639 26.856 43.8639 27.613Z" fill="white"/>
<path d="M43.8645 59.658V59.8053C43.5771 59.7398 43.2834 59.7068 42.9887 59.7071C42.7052 59.7071 42.4223 59.7387 42.1457 59.8013V59.6417C42.1457 59.0647 42.1457 58.4795 42.1457 57.9147C42.1457 57.4114 42.1457 54.4855 42.1457 52.1857C42.4186 52.2129 42.705 52.2267 43.0051 52.2267C43.3051 52.2267 43.5931 52.2129 43.8685 52.1857C43.8685 54.4733 43.8685 57.3992 43.8685 57.9147C43.8685 58.4837 43.8685 59.0769 43.8645 59.658Z" fill="white"/>
<path d="M58.4644 34.5646L58.3171 34.6466C57.6992 34.9943 57.0895 35.3545 56.4756 35.7024C56.1688 35.8783 53.9018 37.2368 51.8637 38.4482C51.6272 37.9291 51.345 37.432 51.0208 36.9627C53.5703 35.4527 56.7131 33.5785 57.4414 33.1488L57.5765 33.071C57.7612 33.6273 58.064 34.1368 58.4644 34.5646Z" fill="white"/>
<path d="M58.4642 50.4136C58.3288 50.5583 58.2043 50.7128 58.0918 50.876C57.8651 51.1921 57.6885 51.5414 57.5681 51.9113L57.433 51.8295C56.6965 51.3916 53.435 49.5133 50.9633 48.0975C51.2965 47.6264 51.5867 47.1266 51.8309 46.6038L55.0105 48.429L55.8289 48.8996C56.6474 49.3742 57.4862 49.8652 58.3211 50.3318L58.4642 50.4136Z" fill="white"/>
</svg>
